{"glyphs":{"0":{"ha":806,"x_min":49,"x_max":757,"o":"m 408 -24 q 265 3 326 -24 q 163 78 204 31 q 96 190 121 126 q 60 325 71 253 q 49 474 49 397 q 60 617 49 546 q 95 751 71 688 q 161 863 119 814 q 263 941 203 913 q 406 969 324 969 q 544 942 485 969 q 644 865 603 914 q 710 753 685 817 q 746 617 735 689 q 757 472 757 546 q 746 325 757 397 q 710 190 735 253 q 644 78 685 126 q 544 3 603 31 q 408 -24 486 -24 m 401 146 q 493 170 458 146 q 548 233 528 194 q 576 317 568 272 q 587 401 585 361 q 589 465 589 440 l 589 474 q 568 651 589 578 q 506 763 547 725 q 404 801 465 801 q 299 763 340 801 q 237 652 257 725 q 217 472 217 579 q 238 295 217 368 q 299 184 258 222 q 401 146 340 146 z "},"1":{"ha":539,"x_min":42,"x_max":481,"o":"m 397 -15 q 333 3 351 -15 q 315 69 315 22 l 315 875 q 333 939 315 921 q 399 957 351 957 q 463 938 444 957 q 481 872 481 919 l 481 68 q 463 3 481 22 q 397 -15 444 -15 m 183 594 q 126 566 151 565 q 71 600 101 567 q 44 660 42 632 q 82 719 46 688 l 319 929 q 377 955 351 957 q 432 921 403 953 q 460 861 463 889 q 419 801 457 833 l 183 594 z "},"2":{"ha":815,"x_min":49,"x_max":772,"o":"m 132 -7 q 74 19 100 -7 q 49 79 49 44 q 51 122 49 101 q 64 163 54 143 q 93 200 74 182 q 223 297 157 253 q 350 382 289 342 q 460 463 411 422 q 536 549 508 504 q 564 647 564 594 q 547 725 564 690 q 492 781 529 760 q 392 801 454 801 q 316 789 349 801 q 262 753 283 776 q 228 695 240 729 q 217 618 217 661 q 213 576 217 594 q 191 548 208 558 q 132 538 174 538 q 73 550 90 538 q 52 584 56 563 q 49 629 49 606 q 72 760 49 699 q 139 869 94 822 q 247 942 183 915 q 390 969 310 969 q 569 928 492 969 q 690 811 646 886 q 733 632 733 736 q 717 531 733 578 q 671 442 700 483 q 603 367 642 401 q 522 301 565 332 q 433 242 478 269 q 347 190 389 215 l 294 163 l 689 163 q 732 158 713 163 q 762 135 751 153 q 772 76 772 117 q 761 19 772 38 q 731 -3 750 1 q 686 -7 711 -7 l 132 -7 z "},"3":{"ha":806,"x_min":49,"x_max":757,"o":"m 401 -22 q 265 1 328 -22 q 154 63 203 24 q 78 154 106 103 q 49 261 51 206 q 139 322 49 322 q 181 317 167 322 q 203 296 194 311 q 219 254 211 281 q 252 200 229 226 q 313 156 275 174 q 403 139 350 139 q 501 158 460 139 q 566 210 543 176 q 589 286 589 243 q 566 360 589 329 q 504 409 543 392 q 415 426 465 426 q 369 431 389 426 q 337 451 349 435 q 325 507 325 468 q 337 563 325 547 q 369 583 349 579 q 417 588 390 588 q 495 600 464 588 q 543 635 526 613 q 560 685 560 657 q 542 751 560 722 q 491 795 524 779 q 414 811 458 811 q 344 801 374 811 q 294 771 315 790 q 254 724 272 751 q 206 676 233 683 q 136 694 179 669 q 94 740 101 715 q 104 796 88 764 q 120 826 108 806 q 155 870 132 846 q 211 917 178 894 q 293 956 244 940 q 406 971 342 971 q 543 947 483 971 q 644 883 603 922 q 708 794 686 843 q 729 692 729 744 q 711 607 729 644 q 667 544 693 569 q 614 507 640 519 q 669 472 643 494 q 715 420 694 450 q 746 357 735 390 q 757 289 757 324 q 712 129 757 200 q 586 18 667 58 q 401 -22 506 -22 z "},"4":{"ha":760,"x_min":42,"x_max":701,"o":"m 615 -12 q 559 -1 576 -12 q 537 29 542 10 q 532 72 532 49 l 532 283 l 126 283 q 69 295 88 283 q 47 326 51 307 q 42 368 42 346 q 43 387 42 379 q 46 403 44 394 l 183 896 q 218 958 196 949 q 286 958 240 968 q 341 931 322 950 q 353 883 360 913 l 229 440 l 532 440 l 532 881 q 537 919 532 903 q 560 947 542 936 q 618 958 579 958 q 675 947 657 958 q 697 916 693 935 q 701 874 701 897 l 701 69 q 697 28 701 47 q 674 -2 692 8 q 615 -12 656 -12 z "},"5":{"ha":707,"x_min":42,"x_max":658,"o":"m 343 -24 q 248 -14 290 -24 q 173 11 206 -4 q 118 41 140 26 q 82 67 96 56 q 53 94 65 81 q 42 125 42 107 q 49 153 42 139 q 75 188 57 168 q 105 215 90 207 q 133 224 119 224 q 160 217 146 224 q 197 192 175 210 q 224 172 208 182 q 267 153 240 161 q 335 146 293 146 q 417 164 382 146 q 470 215 451 182 q 489 296 489 249 q 469 374 489 340 q 416 428 450 408 q 339 447 382 447 q 299 442 318 447 q 265 428 279 436 q 240 410 250 419 q 219 393 229 400 q 192 385 208 386 q 160 385 176 382 q 121 399 144 389 q 76 426 90 414 q 63 458 63 439 l 119 874 q 128 910 122 890 q 152 945 135 931 q 204 958 169 960 l 551 958 q 592 953 574 958 q 621 931 610 949 q 632 872 632 913 q 622 818 632 835 q 594 797 611 801 q 554 793 576 793 l 279 793 l 249 585 q 278 601 263 594 q 309 610 293 607 q 340 614 325 614 l 350 614 q 467 590 411 614 q 565 522 522 565 q 633 424 608 479 q 658 306 658 368 q 617 137 658 211 q 504 19 575 63 q 343 -24 433 -24 z "},"6":{"ha":738,"x_min":49,"x_max":690,"o":"m 379 -22 q 201 23 275 -22 q 88 156 128 68 q 49 367 49 243 q 73 565 49 474 q 144 730 97 657 q 256 854 190 803 q 404 933 322 906 q 582 961 486 961 q 622 956 604 961 q 650 933 639 951 q 661 876 661 915 q 649 819 661 838 q 619 797 638 801 q 576 793 600 793 q 453 775 507 793 q 357 726 399 757 q 288 656 315 696 q 246 573 260 617 q 231 486 232 529 l 211 478 q 244 522 219 501 q 308 556 269 543 q 390 569 346 569 q 545 532 478 569 q 651 430 613 494 q 690 285 690 365 q 651 126 690 196 q 541 17 611 57 q 379 -22 471 -22 m 374 135 q 456 152 422 135 q 508 201 490 169 q 525 278 525 233 q 508 351 525 319 q 459 399 492 382 q 382 417 426 417 q 297 399 333 417 q 242 351 261 382 q 224 281 224 321 q 241 203 224 236 q 292 152 258 169 q 374 135 325 135 z "},"7":{"ha":754,"x_min":42,"x_max":713,"o":"m 274 -14 q 217 -6 235 -14 q 194 18 200 3 q 189 53 189 33 q 213 210 189 133 q 274 358 236 286 q 353 495 311 431 q 431 615 394 560 q 492 715 468 671 q 517 789 517 760 l 125 789 q 83 794 103 789 q 53 817 64 800 q 42 874 42 835 q 52 930 42 913 q 80 952 63 947 q 118 957 97 957 l 629 957 q 686 944 669 957 q 708 910 703 931 q 713 865 713 890 q 687 744 713 807 q 622 614 661 681 q 536 478 582 547 q 450 337 490 408 q 384 194 410 265 q 358 50 358 122 q 353 17 358 32 q 331 -6 349 3 q 274 -14 313 -14 z "},"8":{"ha":768,"x_min":49,"x_max":721,"o":"m 389 -24 q 213 15 290 -24 q 92 124 136 54 q 49 283 49 193 q 60 357 49 322 q 88 419 71 392 q 124 467 106 447 q 158 499 143 488 q 178 510 172 510 q 158 525 174 511 q 124 564 143 539 q 92 623 106 589 q 79 697 79 657 q 119 840 79 778 q 230 939 160 903 q 389 975 300 975 q 543 939 475 975 q 651 839 611 903 q 690 694 690 775 q 682 638 690 665 q 660 588 674 611 q 633 547 647 564 q 609 520 619 531 q 594 510 599 510 q 615 499 600 510 q 647 467 629 488 q 682 418 665 446 q 710 356 699 390 q 721 283 721 321 q 694 156 721 213 q 620 58 667 99 q 514 -3 574 18 q 389 -24 454 -24 m 386 132 q 474 150 438 132 q 532 202 511 168 q 553 281 553 236 q 532 360 553 326 q 474 411 511 393 q 383 429 436 429 q 295 411 333 429 q 237 360 257 393 q 217 281 217 326 q 238 202 217 236 q 297 150 258 168 q 386 132 335 132 m 386 576 q 458 591 428 576 q 506 633 489 606 q 522 697 522 661 q 505 760 522 733 q 457 802 488 788 q 385 817 426 817 q 314 802 344 817 q 267 760 283 788 q 250 697 250 733 q 267 633 250 661 q 315 591 283 606 q 386 576 346 576 z "},"9":{"ha":738,"x_min":49,"x_max":690,"o":"m 153 -12 q 115 -8 132 -12 q 87 15 97 -3 q 76 72 76 33 q 88 128 76 111 q 119 151 100 146 q 163 156 139 156 q 285 173 231 156 q 381 222 340 190 q 450 292 422 253 q 492 376 478 332 q 507 463 506 419 l 528 469 q 494 426 519 447 q 431 392 468 406 q 347 379 393 379 q 193 417 261 379 q 87 519 125 454 q 49 663 49 583 q 88 821 49 751 q 197 930 126 890 q 358 969 267 969 q 537 924 463 969 q 651 792 611 879 q 690 581 690 706 q 665 382 690 474 q 594 217 640 290 q 481 93 547 144 q 333 15 415 42 q 153 -12 250 -12 m 356 531 q 441 548 406 531 q 495 597 476 565 q 514 667 514 628 q 497 745 514 713 q 447 796 479 778 q 364 814 414 814 q 281 797 315 814 q 230 747 247 779 q 213 671 213 715 q 230 599 213 631 q 279 549 247 567 q 356 531 311 531 z "},"A":{"ha":981,"x_min":13,"x_max":968,"o":"m 953 104 q 967 58 967 78 q 956 23 968 38 q 914 -7 943 8 q 845 -18 869 -28 q 800 36 821 -8 l 490 690 l 182 36 q 136 -16 161 -7 q 67 -6 111 -25 q 26 24 39 8 q 15 60 13 39 q 32 113 17 82 l 414 908 q 447 944 425 931 q 492 957 468 957 q 522 951 508 957 q 548 935 536 946 q 568 907 560 924 l 953 104 m 243 239 l 310 382 l 672 382 l 739 239 l 243 239 z "},"Á":{"ha":981,"x_min":13,"x_max":968,"o":"m 953 104 q 967 58 967 78 q 956 23 968 38 q 914 -7 943 8 q 845 -18 869 -28 q 800 36 821 -8 l 490 690 l 182 36 q 136 -16 161 -7 q 67 -6 111 -25 q 26 24 39 8 q 15 60 13 39 q 32 113 17 82 l 414 908 q 447 944 425 931 q 492 957 468 957 q 522 951 508 957 q 548 935 536 946 q 568 907 560 924 l 953 104 m 243 239 l 310 382 l 672 382 l 739 239 l 243 239 m 413 1008 q 376 1017 390 1004 q 351 1061 361 1029 q 347 1120 339 1100 q 389 1151 354 1140 l 622 1225 q 659 1216 644 1229 q 682 1171 674 1203 q 687 1113 696 1133 q 644 1082 678 1093 l 413 1008 z "},"Â":{"ha":981,"x_min":13,"x_max":968,"o":"m 953 104 q 967 58 967 78 q 956 23 968 38 q 914 -7 943 8 q 845 -18 869 -28 q 800 36 821 -8 l 490 690 l 182 36 q 136 -16 161 -7 q 67 -6 111 -25 q 26 24 39 8 q 15 60 13 39 q 32 113 17 82 l 414 908 q 447 944 425 931 q 492 957 468 957 q 522 951 508 957 q 548 935 536 946 q 568 907 560 924 l 953 104 m 243 239 l 310 382 l 672 382 l 739 239 l 243 239 m 490 1238 q 505 1236 499 1238 q 515 1232 511 1235 l 674 1167 q 716 1131 708 1154 q 707 1075 724 1107 q 674 1033 692 1046 q 639 1028 657 1019 l 490 1096 l 342 1029 q 305 1035 322 1021 q 272 1076 288 1049 q 263 1131 256 1108 q 304 1167 271 1154 l 464 1232 q 475 1236 468 1235 q 490 1238 482 1238 z "},"Ä":{"ha":981,"x_min":13,"x_max":968,"o":"m 953 104 q 967 58 967 78 q 956 23 968 38 q 914 -7 943 8 q 845 -18 869 -28 q 800 36 821 -8 l 490 690 l 182 36 q 136 -16 161 -7 q 67 -6 111 -25 q 26 24 39 8 q 15 60 13 39 q 32 113 17 82 l 414 908 q 447 944 425 931 q 492 957 468 957 q 522 951 508 957 q 548 935 536 946 q 568 907 560 924 l 953 104 m 243 239 l 310 382 l 672 382 l 739 239 l 243 239 m 618 1050 q 557 1063 575 1050 q 535 1097 539 1076 q 531 1139 531 1118 q 535 1181 531 1161 q 557 1214 539 1201 q 619 1226 575 1226 q 682 1213 664 1226 q 703 1180 700 1200 q 707 1138 707 1160 q 703 1097 707 1117 q 682 1063 700 1076 q 618 1050 664 1050 m 368 1050 q 306 1063 324 1050 q 283 1097 288 1076 q 279 1139 279 1118 q 284 1181 281 1161 q 306 1214 288 1201 q 368 1226 324 1226 q 431 1213 413 1226 q 452 1180 449 1200 q 456 1138 456 1160 q 452 1097 456 1117 q 431 1063 449 1076 q 368 1050 413 1050 z "},"À":{"ha":981,"x_min":13,"x_max":968,"o":"m 953 104 q 967 58 967 78 q 956 23 968 38 q 914 -7 943 8 q 845 -18 869 -28 q 800 36 821 -8 l 490 690 l 182 36 q 136 -16 161 -7 q 67 -6 111 -25 q 26 24 39 8 q 15 60 13 39 q 32 113 17 82 l 414 908 q 447 944 425 931 q 492 957 468 957 q 522 951 508 957 q 548 935 536 946 q 568 907 560 924 l 953 104 m 243 239 l 310 382 l 672 382 l 739 239 l 243 239 m 528 1025 l 315 1096 q 273 1128 281 1108 q 276 1185 265 1147 q 306 1235 289 1225 q 358 1235 324 1244 l 571 1165 q 613 1133 606 1153 q 608 1075 621 1114 q 579 1026 596 1035 q 528 1025 563 1017 z "},"Å":{"ha":981,"x_min":13,"x_max":968,"o":"m 953 104 q 967 58 967 78 q 956 23 968 38 q 914 -7 943 8 q 845 -18 869 -28 q 800 36 821 -8 l 490 690 l 182 36 q 136 -16 161 -7 q 67 -6 111 -25 q 26 24 39 8 q 15 60 13 39 q 32 113 17 82 l 414 908 q 447 944 425 931 q 492 957 468 957 q 522 951 508 957 q 548 935 536 946 q 568 907 560 924 l 953 104 m 243 239 l 310 382 l 672 382 l 739 239 l 243 239 m 489 1031 q 408 1053 444 1031 q 350 1112 372 1075 q 328 1192 328 1149 q 350 1273 328 1236 q 408 1332 372 1310 q 488 1354 443 1354 q 569 1333 533 1354 q 628 1275 606 1311 q 650 1193 650 1239 q 628 1110 650 1147 q 570 1052 607 1074 q 489 1031 533 1031 m 489 1119 q 540 1141 519 1119 q 561 1194 561 1163 q 541 1245 561 1225 q 488 1265 521 1265 q 437 1244 458 1265 q 415 1193 415 1224 q 437 1140 415 1161 q 489 1119 458 1119 z "},"Ã":{"ha":981,"x_min":13,"x_max":968,"o":"m 953 104 q 967 58 967 78 q 956 23 968 38 q 914 -7 943 8 q 845 -18 869 -28 q 800 36 821 -8 l 490 690 l 182 36 q 136 -16 161 -7 q 67 -6 111 -25 q 26 24 39 8 q 15 60 13 39 q 32 113 17 82 l 414 908 q 447 944 425 931 q 492 957 468 957 q 522 951 508 957 q 548 935 536 946 q 568 907 560 924 l 953 104 m 243 239 l 310 382 l 672 382 l 739 239 l 243 239 m 417 1210 q 474 1193 451 1210 q 513 1160 496 1176 q 547 1144 531 1144 q 574 1156 563 1144 q 598 1179 586 1167 q 625 1197 610 1192 q 649 1203 635 1204 q 678 1193 664 1203 q 714 1157 706 1175 q 710 1115 722 1139 q 678 1064 701 1089 q 623 1024 654 1039 q 558 1010 592 1010 q 505 1026 528 1010 q 463 1058 482 1042 q 425 1075 444 1075 q 381 1063 399 1075 q 354 1036 363 1050 q 331 1017 344 1022 q 290 1031 317 1013 q 257 1071 263 1051 q 268 1115 251 1090 q 307 1162 282 1140 q 361 1197 332 1183 q 417 1210 390 1210 z "},"Æ":{"ha":1539,"x_min":18,"x_max":1488,"o":"m 861 -12 q 819 -1 839 -12 q 788 31 800 11 q 776 74 776 51 l 776 721 l 172 13 q 132 -19 151 -12 q 92 -18 113 -26 q 53 13 72 -10 q 24 58 31 40 q 26 94 18 76 q 54 133 35 111 l 744 932 q 772 952 756 946 q 810 958 788 958 l 1404 958 q 1447 953 1428 958 q 1476 931 1465 949 q 1488 874 1488 913 q 1477 817 1488 835 q 1449 794 1467 799 q 1411 789 1432 789 l 947 789 l 947 558 l 1253 558 q 1295 553 1276 558 q 1325 531 1314 549 q 1336 474 1336 513 q 1325 417 1336 435 q 1294 395 1314 400 q 1251 390 1275 390 l 947 390 l 947 156 l 1413 156 q 1451 151 1433 156 q 1478 128 1468 146 q 1488 71 1488 110 q 1476 15 1488 32 q 1445 -8 1464 -3 q 1403 -12 1426 -12 l 861 -12 m 319 232 l 438 375 l 803 375 l 803 232 l 319 232 z "},"B":{"ha":874,"x_min":65,"x_max":821,"o":"m 147 -12 q 93 0 111 -12 q 70 33 75 13 q 65 79 65 54 l 65 868 q 71 913 65 893 q 94 946 76 933 q 149 958 111 958 l 515 958 q 658 921 596 958 q 754 822 719 883 q 789 686 789 760 q 781 620 789 653 q 758 560 774 588 q 718 510 742 532 q 774 449 750 485 q 809 370 797 413 q 821 282 821 328 q 797 166 819 219 q 735 72 775 113 q 643 10 696 32 q 529 -12 590 -12 l 147 -12 m 233 151 l 515 151 q 587 167 556 151 q 636 214 618 182 q 654 297 654 246 q 644 362 654 338 q 616 400 633 386 q 577 419 599 414 q 535 426 556 425 q 496 426 514 426 l 432 426 q 379 444 396 426 q 363 501 363 461 q 381 555 363 539 q 436 571 399 571 l 499 571 q 538 572 517 571 q 579 583 560 574 q 611 613 599 592 q 624 674 624 633 q 591 765 624 736 q 479 793 558 793 l 233 793 l 233 151 z "},"C":{"ha":910,"x_min":53,"x_max":860,"o":"m 544 -19 q 407 1 476 -19 q 274 62 338 21 q 160 163 210 103 q 82 303 111 224 q 53 481 53 383 q 82 653 53 576 q 160 789 111 731 q 273 886 210 847 q 406 945 336 925 q 546 967 476 965 q 668 951 617 967 q 751 919 719 936 q 794 894 783 901 q 837 863 817 881 q 858 821 857 846 q 854 791 860 804 q 839 764 849 778 q 806 729 822 740 q 772 718 789 718 q 744 726 757 718 q 711 747 731 735 q 681 765 703 753 q 624 786 660 776 q 539 796 589 796 q 422 775 479 796 q 320 713 365 754 q 249 612 275 672 q 222 474 222 551 q 249 335 222 396 q 320 234 275 275 q 422 172 365 193 q 539 151 479 151 q 620 160 586 151 q 678 183 654 169 q 715 203 703 196 q 744 221 731 213 q 774 229 758 229 q 806 218 790 229 q 838 182 822 207 q 853 153 847 167 q 857 124 858 139 q 835 81 856 99 q 793 51 815 64 q 751 27 782 44 q 668 -5 719 10 q 544 -19 617 -19 z "},"Ç":{"ha":910,"x_min":53,"x_max":860,"o":"m 544 -19 q 407 1 476 -19 q 274 62 338 21 q 160 163 210 103 q 82 303 111 224 q 53 481 53 383 q 82 653 53 576 q 160 789 111 731 q 273 886 210 847 q 406 945 336 925 q 546 967 476 965 q 668 951 617 967 q 751 919 719 936 q 794 894 783 901 q 837 863 817 881 q 858 821 857 846 q 854 791 860 804 q 839 764 849 778 q 806 729 822 740 q 772 718 789 718 q 744 726 757 718 q 711 747 731 735 q 681 765 703 753 q 624 786 660 776 q 539 796 589 796 q 422 775 479 796 q 320 713 365 754 q 249 612 275 672 q 222 474 222 551 q 249 335 222 396 q 320 234 275 275 q 422 172 365 193 q 539 151 479 151 q 620 160 586 151 q 678 183 654 169 q 715 203 703 196 q 744 221 731 213 q 774 229 758 229 q 806 218 790 229 q 838 182 822 207 q 853 153 847 167 q 857 124 858 139 q 835 81 856 99 q 793 51 815 64 q 751 27 782 44 q 668 -5 719 10 q 544 -19 617 -19 m 503 -235 q 436 -219 468 -235 q 401 -181 404 -203 q 413 -149 400 -164 q 435 -128 426 -133 q 451 -122 443 -122 q 476 -131 463 -122 q 504 -140 489 -140 q 536 -128 521 -140 q 551 -94 551 -117 q 536 -60 551 -72 q 504 -47 521 -47 q 472 -58 485 -47 q 449 -68 460 -68 q 428 -60 438 -68 q 413 -39 419 -51 q 403 -22 407 -29 q 401 -8 400 -14 q 419 19 403 7 q 458 39 435 32 q 504 46 482 46 q 570 29 538 46 q 624 -19 603 13 q 646 -93 646 -50 q 626 -165 646 -133 q 574 -216 607 -197 q 503 -235 542 -235 z "},"D":{"ha":944,"x_min":74,"x_max":885,"o":"m 157 -12 q 103 -1 121 -12 q 79 31 85 11 q 74 72 74 50 l 74 875 q 78 916 74 897 q 101 947 83 935 q 158 958 119 958 l 419 957 q 606 922 521 957 q 754 824 692 888 q 851 672 817 760 q 885 478 885 583 q 850 279 885 369 q 753 124 815 189 q 605 23 690 58 q 415 -12 519 -12 l 157 -12 m 242 156 l 419 156 q 575 195 508 156 q 678 306 642 235 q 715 471 715 376 q 678 638 715 567 q 574 749 642 710 q 418 789 507 789 l 242 789 l 242 156 z "},"Ð":{"ha":1032,"x_min":32,"x_max":961,"o":"m 235 -12 q 181 -1 199 -12 q 157 31 163 11 q 151 72 151 50 l 151 875 q 156 916 151 897 q 179 947 161 935 q 236 958 197 958 l 497 957 q 684 922 599 957 q 832 824 769 888 q 928 672 894 760 q 963 478 963 583 q 928 279 963 369 q 831 124 893 189 q 683 23 768 58 q 493 -12 597 -12 l 235 -12 m 319 156 l 497 156 q 653 195 586 156 q 756 306 719 235 q 793 471 793 376 q 756 638 793 567 q 652 749 719 710 q 496 789 585 789 l 319 789 l 319 156 m 106 403 q 70 407 88 403 q 42 428 53 411 q 32 482 32 444 q 42 534 32 518 q 70 555 53 550 q 104 560 88 560 l 450 560 q 485 555 468 560 q 512 534 501 550 q 522 481 522 518 q 512 428 522 444 q 485 407 501 411 q 449 403 468 403 l 106 403 z "},"E":{"ha":857,"x_min":89,"x_max":801,"o":"m 172 -14 q 115 -2 133 -14 q 93 29 97 10 q 89 72 89 49 l 89 874 q 108 939 89 921 q 176 957 126 957 l 718 957 q 760 952 742 957 q 790 930 779 947 q 801 872 801 913 q 790 815 801 833 q 759 793 778 797 q 717 789 740 789 l 257 789 l 257 556 l 574 556 q 614 551 597 556 q 640 531 631 546 q 650 479 650 515 q 640 428 650 444 q 613 409 631 413 q 571 406 594 406 l 257 406 l 257 156 l 718 156 q 760 151 742 156 q 790 128 779 146 q 801 71 801 110 q 790 14 801 32 q 759 -9 778 -4 q 717 -14 740 -14 l 172 -14 z "},"É":{"ha":857,"x_min":89,"x_max":801,"o":"m 172 -14 q 115 -2 133 -14 q 93 29 97 10 q 89 72 89 49 l 89 874 q 108 939 89 921 q 176 957 126 957 l 718 957 q 760 952 742 957 q 790 930 779 947 q 801 872 801 913 q 790 815 801 833 q 759 793 778 797 q 717 789 740 789 l 257 789 l 257 556 l 574 556 q 614 551 597 556 q 640 531 631 546 q 650 479 650 515 q 640 428 650 444 q 613 409 631 413 q 571 406 594 406 l 257 406 l 257 156 l 718 156 q 760 151 742 156 q 790 128 779 146 q 801 71 801 110 q 790 14 801 32 q 759 -9 778 -4 q 717 -14 740 -14 l 172 -14 m 390 1019 q 353 1028 368 1015 q 329 1072 339 1040 q 324 1131 317 1111 q 367 1163 332 1151 l 600 1236 q 637 1227 622 1240 q 660 1182 651 1214 q 665 1124 674 1144 q 622 1093 656 1104 l 390 1019 z "},"Ê":{"ha":857,"x_min":89,"x_max":801,"o":"m 172 -14 q 115 -2 133 -14 q 93 29 97 10 q 89 72 89 49 l 89 874 q 108 939 89 921 q 176 957 126 957 l 718 957 q 760 952 742 957 q 790 930 779 947 q 801 872 801 913 q 790 815 801 833 q 759 793 778 797 q 717 789 740 789 l 257 789 l 257 556 l 574 556 q 614 551 597 556 q 640 531 631 546 q 650 479 650 515 q 640 428 650 444 q 613 409 631 413 q 571 406 594 406 l 257 406 l 257 156 l 718 156 q 760 151 742 156 q 790 128 779 146 q 801 71 801 110 q 790 14 801 32 q 759 -9 778 -4 q 717 -14 740 -14 l 172 -14 m 436 1238 q 451 1236 444 1238 q 461 1232 457 1235 l 619 1167 q 662 1131 654 1154 q 653 1075 669 1107 q 620 1033 638 1046 q 585 1028 603 1019 l 436 1096 l 288 1029 q 251 1035 268 1021 q 218 1076 233 1049 q 209 1131 201 1108 q 250 1167 217 1154 l 410 1232 q 421 1236 414 1235 q 436 1238 428 1238 z "},"Ë":{"ha":857,"x_min":89,"x_max":801,"o":"m 172 -14 q 115 -2 133 -14 q 93 29 97 10 q 89 72 89 49 l 89 874 q 108 939 89 921 q 176 957 126 957 l 718 957 q 760 952 742 957 q 790 930 779 947 q 801 872 801 913 q 790 815 801 833 q 759 793 778 797 q 717 789 740 789 l 257 789 l 257 556 l 574 556 q 614 551 597 556 q 640 531 631 546 q 650 479 650 515 q 640 428 650 444 q 613 409 631 413 q 571 406 594 406 l 257 406 l 257 156 l 718 156 q 760 151 742 156 q 790 128 779 146 q 801 71 801 110 q 790 14 801 32 q 759 -9 778 -4 q 717 -14 740 -14 l 172 -14 m 564 1050 q 503 1063 521 1050 q 481 1097 485 1076 q 476 1139 476 1118 q 481 1181 476 1161 q 503 1214 485 1201 q 565 1226 521 1226 q 628 1213 610 1226 q 649 1180 646 1200 q 653 1138 653 1160 q 649 1097 653 1117 q 628 1063 646 1076 q 564 1050 610 1050 m 314 1050 q 251 1063 269 1050 q 229 1097 233 1076 q 225 1139 225 1118 q 230 1181 226 1161 q 251 1214 233 1201 q 314 1226 269 1226 q 376 1213 358 1226 q 398 1180 394 1200 q 401 1138 401 1160 q 398 1097 401 1117 q 376 1063 394 1076 q 314 1050 358 1050 z "},"È":{"ha":857,"x_min":89,"x_max":801,"o":"m 172 -14 q 115 -2 133 -14 q 93 29 97 10 q 89 72 89 49 l 89 874 q 108 939 89 921 q 176 957 126 957 l 718 957 q 760 952 742 957 q 790 930 779 947 q 801 872 801 913 q 790 815 801 833 q 759 793 778 797 q 717 789 740 789 l 257 789 l 257 556 l 574 556 q 614 551 597 556 q 640 531 631 546 q 650 479 650 515 q 640 428 650 444 q 613 409 631 413 q 571 406 594 406 l 257 406 l 257 156 l 718 156 q 760 151 742 156 q 790 128 779 146 q 801 71 801 110 q 790 14 801 32 q 759 -9 778 -4 q 717 -14 740 -14 l 172 -14 m 439 1025 l 226 1096 q 184 1128 192 1108 q 188 1185 176 1147 q 217 1235 200 1225 q 269 1235 235 1244 l 482 1165 q 524 1133 517 1153 q 519 1075 532 1114 q 490 1026 507 1035 q 439 1025 474 1017 z "},"F":{"ha":868,"x_min":89,"x_max":800,"o":"m 172 -14 q 115 -2 133 -14 q 93 29 97 10 q 89 72 89 49 l 89 874 q 108 939 89 921 q 176 957 126 957 l 718 957 q 760 952 742 957 q 789 930 778 947 q 800 872 800 913 q 788 815 800 833 q 758 793 776 797 q 715 789 739 789 l 257 789 l 257 556 l 572 556 q 613 551 596 556 q 640 530 631 546 q 649 478 649 514 q 639 428 649 444 q 612 409 629 413 q 571 406 594 406 l 257 406 l 257 71 q 252 28 257 47 q 229 -2 247 10 q 172 -14 211 -14 z "},"G":{"ha":989,"x_min":68,"x_max":904,"o":"m 544 -19 q 353 17 440 -19 q 201 122 265 54 q 103 283 138 190 q 68 488 68 375 q 104 681 68 593 q 206 833 140 768 q 360 933 271 897 q 557 969 450 969 q 649 962 601 969 q 740 938 696 954 q 818 899 785 922 q 863 865 844 882 q 883 825 882 847 q 879 798 885 813 q 863 768 874 783 q 830 733 847 744 q 796 722 813 722 q 772 730 786 722 q 735 751 758 738 q 688 775 717 764 q 624 793 658 786 q 551 800 589 800 q 388 761 458 800 q 277 651 317 722 q 238 483 238 579 q 278 310 238 385 q 388 192 318 235 q 550 150 458 150 q 615 154 582 150 q 678 167 647 158 q 736 188 710 175 l 736 407 l 539 407 q 503 411 519 407 q 478 431 488 415 q 469 481 469 446 q 479 532 469 517 q 505 551 489 547 q 540 556 521 556 l 824 556 q 876 543 860 556 q 899 512 893 531 q 904 469 904 493 l 904 146 q 877 89 904 118 q 801 35 850 60 q 728 6 769 18 q 641 -12 688 -6 q 544 -19 594 -19 z "},"H":{"ha":938,"x_min":81,"x_max":857,"o":"m 772 -12 q 715 -1 733 -12 q 693 30 697 10 q 689 72 689 50 l 689 874 q 694 915 689 896 q 716 946 699 935 q 774 957 733 957 q 830 946 813 957 q 852 915 847 935 q 857 872 857 896 l 857 71 q 852 29 857 49 q 829 -1 847 10 q 772 -12 811 -12 m 164 -12 q 108 -1 125 -12 q 85 30 90 10 q 81 72 81 50 l 81 874 q 85 915 81 896 q 108 946 90 935 q 165 957 126 957 q 223 946 206 957 q 244 915 240 935 q 249 872 249 896 l 249 71 q 244 29 249 49 q 222 -1 239 10 q 164 -12 204 -12 m 204 406 l 204 556 l 711 556 l 710 406 l 204 406 z "},"I":{"ha":311,"x_min":72,"x_max":240,"o":"m 156 -14 q 99 -2 117 -14 q 76 29 81 10 q 72 72 72 49 l 72 874 q 77 915 72 896 q 99 946 82 935 q 157 957 117 957 q 213 946 196 957 q 235 915 231 935 q 240 872 240 896 l 240 71 q 235 28 240 47 q 213 -2 231 10 q 156 -14 194 -14 z "},"Í":{"ha":311,"x_min":3,"x_max":360,"o":"m 156 -14 q 99 -2 117 -14 q 76 29 81 10 q 72 72 72 49 l 72 874 q 77 915 72 896 q 99 946 82 935 q 157 957 117 957 q 213 946 196 957 q 235 915 231 935 q 240 872 240 896 l 240 71 q 235 28 240 47 q 213 -2 231 10 q 156 -14 194 -14 m 78 1008 q 41 1017 56 1004 q 17 1061 26 1029 q 12 1120 4 1100 q 54 1151 19 1140 l 288 1225 q 324 1216 310 1229 q 347 1171 339 1203 q 352 1113 361 1133 q 310 1082 343 1093 l 78 1008 z "},"Î":{"ha":311,"x_min":-81,"x_max":388,"o":"m 156 -14 q 99 -2 117 -14 q 76 29 81 10 q 72 72 72 49 l 72 874 q 77 915 72 896 q 99 946 82 935 q 157 957 117 957 q 213 946 196 957 q 235 915 231 935 q 240 872 240 896 l 240 71 q 235 28 240 47 q 213 -2 231 10 q 156 -14 194 -14 m 154 1238 q 169 1236 163 1238 q 179 1232 175 1235 l 338 1167 q 380 1131 372 1154 q 371 1075 388 1107 q 338 1033 356 1046 q 303 1028 321 1019 l 154 1096 l 6 1029 q -31 1035 -14 1021 q -64 1076 -49 1049 q -73 1131 -81 1108 q -32 1167 -65 1154 l 128 1232 q 139 1236 132 1235 q 154 1238 146 1238 z "},"Ï":{"ha":311,"x_min":-57,"x_max":371,"o":"m 156 -14 q 99 -2 117 -14 q 76 29 81 10 q 72 72 72 49 l 72 874 q 77 915 72 896 q 99 946 82 935 q 157 957 117 957 q 213 946 196 957 q 235 915 231 935 q 240 872 240 896 l 240 71 q 235 28 240 47 q 213 -2 231 10 q 156 -14 194 -14 m 282 1050 q 221 1063 239 1050 q 199 1097 203 1076 q 194 1139 194 1118 q 199 1181 194 1161 q 221 1214 203 1201 q 283 1226 239 1226 q 346 1213 328 1226 q 367 1180 364 1200 q 371 1138 371 1160 q 367 1097 371 1117 q 346 1063 364 1076 q 282 1050 328 1050 m 32 1050 q -31 1063 -12 1050 q -53 1097 -49 1076 q -57 1139 -57 1118 q -52 1181 -56 1161 q -31 1214 -49 1201 q 32 1226 -12 1226 q 94 1213 76 1226 q 116 1180 113 1200 q 119 1138 119 1160 q 116 1097 119 1117 q 94 1063 113 1076 q 32 1050 76 1050 z "},"Ì":{"ha":311,"x_min":-106,"x_max":249,"o":"m 156 -14 q 99 -2 117 -14 q 76 29 81 10 q 72 72 72 49 l 72 874 q 77 915 72 896 q 99 946 82 935 q 157 957 117 957 q 213 946 196 957 q 235 915 231 935 q 240 872 240 896 l 240 71 q 235 28 240 47 q 213 -2 231 10 q 156 -14 194 -14 m 157 1025 l -56 1096 q -98 1128 -90 1108 q -94 1185 -106 1147 q -65 1235 -82 1225 q -12 1235 -47 1244 l 200 1165 q 242 1133 235 1153 q 238 1075 250 1114 q 208 1026 225 1035 q 157 1025 192 1017 z "},"J":{"ha":750,"x_min":46,"x_max":661,"o":"m 335 -21 q 247 -9 288 -21 q 174 21 206 3 q 119 56 142 39 q 85 85 96 74 q 58 117 69 101 q 46 149 46 132 q 55 180 46 164 q 79 211 64 196 q 111 238 97 231 q 140 246 125 246 q 177 231 161 246 q 215 196 193 217 q 244 176 226 188 q 287 156 263 164 q 340 147 311 147 q 408 160 379 147 q 455 199 436 174 q 483 258 474 224 q 492 332 492 292 l 492 863 q 497 910 492 888 q 521 944 503 932 q 579 957 539 957 q 634 945 617 957 q 656 914 651 933 q 661 871 661 894 l 661 322 q 638 186 661 249 q 573 77 615 124 q 470 5 531 31 q 335 -21 410 -21 z "},"K":{"ha":824,"x_min":83,"x_max":768,"o":"m 167 -14 q 110 -2 128 -14 q 88 29 92 10 q 83 71 83 49 l 83 874 q 88 916 83 897 q 110 946 93 935 q 168 957 128 957 q 224 946 207 957 q 247 915 242 935 q 251 872 251 896 l 251 585 l 606 929 q 646 961 628 953 q 683 963 664 969 q 725 935 703 957 q 761 874 761 900 q 729 815 761 849 l 363 472 l 733 128 q 767 68 768 94 q 729 8 765 42 q 684 -20 703 -14 q 648 -17 665 -26 q 610 15 631 -8 l 251 363 l 251 69 q 247 28 251 47 q 224 -3 242 8 q 167 -14 207 -14 z "},"L":{"ha":781,"x_min":83,"x_max":749,"o":"m 169 -14 q 111 -2 129 -14 q 88 29 93 10 q 83 71 83 49 l 83 872 q 88 915 83 896 q 110 946 93 935 q 168 957 128 957 q 224 946 207 957 q 247 915 242 935 q 251 872 251 896 l 251 136 l 675 136 q 713 133 696 136 q 739 113 729 129 q 749 63 749 97 q 739 12 749 28 q 713 -9 729 -4 q 675 -14 696 -14 l 169 -14 z "},"Ł":{"ha":874,"x_min":17,"x_max":839,"o":"m 111 336 q 57 335 76 325 q 26 382 38 344 q 26 440 17 421 q 71 468 35 458 l 450 586 q 503 585 486 596 q 532 539 521 575 q 531 484 542 503 q 488 454 521 465 l 111 336 m 260 -14 q 201 -2 219 -14 q 178 29 183 10 q 174 71 174 49 l 174 872 q 178 915 174 896 q 201 946 183 935 q 258 957 218 957 q 315 946 297 957 q 337 915 332 935 q 342 872 342 896 l 342 136 l 765 136 q 803 133 786 136 q 829 113 819 129 q 839 63 839 97 q 829 12 839 28 q 803 -9 819 -4 q 765 -14 786 -14 l 260 -14 z "},"M":{"ha":1139,"x_min":78,"x_max":1061,"o":"m 160 -12 q 106 -1 124 -12 q 83 29 88 10 q 78 72 78 49 l 78 874 q 83 915 78 896 q 106 945 88 933 q 163 957 124 957 q 206 953 192 957 q 229 944 221 950 q 246 928 238 938 l 585 454 l 553 454 l 893 929 q 913 946 903 940 q 938 954 922 951 q 978 957 953 957 q 1033 945 1015 957 q 1056 914 1051 933 q 1061 871 1061 894 l 1061 69 q 1056 29 1061 49 q 1033 -1 1051 10 q 976 -12 1015 -12 q 921 -1 939 -12 q 898 31 903 11 q 893 72 893 50 l 893 668 l 640 303 q 628 288 636 297 q 606 272 619 279 q 568 265 592 265 q 532 272 546 265 q 510 288 518 279 q 496 304 503 296 l 244 668 l 244 69 q 240 29 244 49 q 217 -1 235 10 q 160 -12 199 -12 z "},"N":{"ha":965,"x_min":74,"x_max":879,"o":"m 156 -12 q 101 -1 118 -12 q 78 31 83 11 q 74 72 74 50 l 74 878 q 79 917 74 899 q 103 946 85 935 q 160 957 122 957 q 217 948 201 957 q 247 922 233 939 l 711 274 l 711 878 q 717 917 711 899 q 740 946 722 935 q 796 957 758 957 q 852 945 835 957 q 874 914 869 933 q 879 871 879 894 l 879 71 q 873 30 879 49 q 848 -1 867 11 q 790 -12 829 -12 q 742 -7 760 -12 q 711 17 725 -1 l 240 664 l 240 71 q 235 30 240 49 q 213 -1 231 11 q 156 -12 194 -12 z "},"Ñ":{"ha":965,"x_min":74,"x_max":879,"o":"m 156 -12 q 101 -1 118 -12 q 78 31 83 11 q 74 72 74 50 l 74 878 q 79 917 74 899 q 103 946 85 935 q 160 957 122 957 q 217 948 201 957 q 247 922 233 939 l 711 274 l 711 878 q 717 917 711 899 q 740 946 722 935 q 796 957 758 957 q 852 945 835 957 q 874 914 869 933 q 879 871 879 894 l 879 71 q 873 30 879 49 q 848 -1 867 11 q 790 -12 829 -12 q 742 -7 760 -12 q 711 17 725 -1 l 240 664 l 240 71 q 235 30 240 49 q 213 -1 231 11 q 156 -12 194 -12 m 411 1210 q 468 1193 446 1210 q 508 1160 490 1176 q 542 1144 525 1144 q 569 1156 557 1144 q 592 1179 581 1167 q 619 1197 604 1192 q 644 1203 629 1204 q 672 1193 658 1203 q 708 1157 700 1175 q 704 1115 717 1139 q 672 1064 696 1089 q 617 1024 649 1039 q 553 1010 586 1010 q 499 1026 522 1010 q 458 1058 476 1042 q 419 1075 439 1075 q 375 1063 393 1075 q 349 1036 357 1050 q 325 1017 339 1022 q 285 1031 311 1013 q 251 1071 257 1051 q 263 1115 246 1090 q 301 1162 276 1140 q 356 1197 326 1183 q 411 1210 385 1210 z "},"O":{"ha":1011,"x_min":31,"x_max":981,"o":"m 513 -25 q 326 13 413 -25 q 172 119 239 51 q 68 274 106 186 q 31 464 31 363 q 67 659 31 568 q 169 819 104 750 q 318 926 233 888 q 500 965 403 965 q 688 927 601 965 q 840 821 775 889 q 943 663 906 753 q 981 469 981 574 q 944 278 981 368 q 843 120 908 189 q 694 13 778 51 q 513 -25 610 -25 m 506 144 q 625 169 569 144 q 723 239 681 194 q 789 342 765 283 q 813 469 813 401 q 788 597 813 538 q 722 701 764 656 q 624 771 679 746 q 506 796 569 796 q 388 771 443 796 q 290 701 332 746 q 224 596 247 656 q 200 469 200 536 q 224 343 200 403 q 290 239 249 283 q 387 169 332 194 q 506 144 442 144 z "},"Ó":{"ha":1011,"x_min":31,"x_max":981,"o":"m 513 -25 q 326 13 413 -25 q 172 119 239 51 q 68 274 106 186 q 31 464 31 363 q 67 659 31 568 q 169 819 104 750 q 318 926 233 888 q 500 965 403 965 q 688 927 601 965 q 840 821 775 889 q 943 663 906 753 q 981 469 981 574 q 944 278 981 368 q 843 120 908 189 q 694 13 778 51 q 513 -25 610 -25 m 506 144 q 625 169 569 144 q 723 239 681 194 q 789 342 765 283 q 813 469 813 401 q 788 597 813 538 q 722 701 764 656 q 624 771 679 746 q 506 796 569 796 q 388 771 443 796 q 290 701 332 746 q 224 596 247 656 q 200 469 200 536 q 224 343 200 403 q 290 239 249 283 q 387 169 332 194 q 506 144 442 144 m 431 1008 q 394 1017 408 1004 q 369 1061 379 1029 q 365 1120 357 1100 q 407 1151 372 1140 l 640 1225 q 677 1216 663 1229 q 700 1171 692 1203 q 705 1113 714 1133 q 663 1082 696 1093 l 431 1008 z "},"Ô":{"ha":1011,"x_min":31,"x_max":981,"o":"m 513 -25 q 326 13 413 -25 q 172 119 239 51 q 68 274 106 186 q 31 464 31 363 q 67 659 31 568 q 169 819 104 750 q 318 926 233 888 q 500 965 403 965 q 688 927 601 965 q 840 821 775 889 q 943 663 906 753 q 981 469 981 574 q 944 278 981 368 q 843 120 908 189 q 694 13 778 51 q 513 -25 610 -25 m 506 144 q 625 169 569 144 q 723 239 681 194 q 789 342 765 283 q 813 469 813 401 q 788 597 813 538 q 722 701 764 656 q 624 771 679 746 q 506 796 569 796 q 388 771 443 796 q 290 701 332 746 q 224 596 247 656 q 200 469 200 536 q 224 343 200 403 q 290 239 249 283 q 387 169 332 194 q 506 144 442 144 m 508 1238 q 523 1236 517 1238 q 533 1232 529 1235 l 692 1167 q 734 1131 726 1154 q 725 1075 742 1107 q 692 1033 710 1046 q 657 1028 675 1019 l 508 1096 l 360 1029 q 323 1035 340 1021 q 290 1076 306 1049 q 281 1131 274 1108 q 322 1167 289 1154 l 482 1232 q 493 1236 486 1235 q 508 1238 500 1238 z "},"Ö":{"ha":1011,"x_min":31,"x_max":981,"o":"m 513 -25 q 326 13 413 -25 q 172 119 239 51 q 68 274 106 186 q 31 464 31 363 q 67 659 31 568 q 169 819 104 750 q 318 926 233 888 q 500 965 403 965 q 688 927 601 965 q 840 821 775 889 q 943 663 906 753 q 981 469 981 574 q 944 278 981 368 q 843 120 908 189 q 694 13 778 51 q 513 -25 610 -25 m 506 144 q 625 169 569 144 q 723 239 681 194 q 789 342 765 283 q 813 469 813 401 q 788 597 813 538 q 722 701 764 656 q 624 771 679 746 q 506 796 569 796 q 388 771 443 796 q 290 701 332 746 q 224 596 247 656 q 200 469 200 536 q 224 343 200 403 q 290 239 249 283 q 387 169 332 194 q 506 144 442 144 m 636 1050 q 575 1063 593 1050 q 553 1097 557 1076 q 549 1139 549 1118 q 553 1181 549 1161 q 575 1214 557 1201 q 638 1226 593 1226 q 700 1213 682 1226 q 722 1180 718 1200 q 725 1138 725 1160 q 722 1097 725 1117 q 700 1063 718 1076 q 636 1050 682 1050 m 386 1050 q 324 1063 342 1050 q 301 1097 306 1076 q 297 1139 297 1118 q 302 1181 299 1161 q 324 1214 306 1201 q 386 1226 342 1226 q 449 1213 431 1226 q 470 1180 467 1200 q 474 1138 474 1160 q 470 1097 474 1117 q 449 1063 467 1076 q 386 1050 431 1050 z "},"Ò":{"ha":1011,"x_min":31,"x_max":981,"o":"m 513 -25 q 326 13 413 -25 q 172 119 239 51 q 68 274 106 186 q 31 464 31 363 q 67 659 31 568 q 169 819 104 750 q 318 926 233 888 q 500 965 403 965 q 688 927 601 965 q 840 821 775 889 q 943 663 906 753 q 981 469 981 574 q 944 278 981 368 q 843 120 908 189 q 694 13 778 51 q 513 -25 610 -25 m 506 144 q 625 169 569 144 q 723 239 681 194 q 789 342 765 283 q 813 469 813 401 q 788 597 813 538 q 722 701 764 656 q 624 771 679 746 q 506 796 569 796 q 388 771 443 796 q 290 701 332 746 q 224 596 247 656 q 200 469 200 536 q 224 343 200 403 q 290 239 249 283 q 387 169 332 194 q 506 144 442 144 m 510 1025 l 297 1096 q 255 1128 263 1108 q 258 1185 247 1147 q 288 1235 271 1225 q 340 1235 306 1244 l 553 1165 q 595 1133 588 1153 q 590 1075 603 1114 q 561 1026 578 1035 q 510 1025 544 1017 z "},"Ø":{"ha":1026,"x_min":38,"x_max":988,"o":"m 519 -25 q 333 13 419 -25 q 179 119 246 51 q 75 274 113 186 q 38 464 38 363 q 74 659 38 568 q 176 819 111 750 q 325 926 240 888 q 507 965 410 965 q 695 927 608 965 q 847 821 782 889 q 950 663 913 753 q 988 469 988 574 q 951 278 988 368 q 850 120 915 189 q 701 13 785 51 q 519 -25 617 -25 m 513 144 q 632 169 576 144 q 730 239 688 194 q 796 342 772 283 q 819 469 819 401 q 795 597 819 538 q 728 701 771 656 q 631 771 686 746 q 513 796 576 796 q 394 771 450 796 q 297 701 339 746 q 231 596 254 656 q 207 469 207 536 q 231 342 207 401 q 297 239 256 283 q 394 169 339 194 q 513 144 450 144 m 263 -50 q 213 -8 221 -29 q 224 51 206 13 l 653 954 q 695 1001 672 994 q 760 988 718 1008 q 810 945 803 967 q 797 883 817 924 l 368 -15 q 327 -62 350 -56 q 263 -50 304 -69 z "},"Õ":{"ha":1011,"x_min":31,"x_max":981,"o":"m 513 -25 q 326 13 413 -25 q 172 119 239 51 q 68 274 106 186 q 31 464 31 363 q 67 659 31 568 q 169 819 104 750 q 318 926 233 888 q 500 965 403 965 q 688 927 601 965 q 840 821 775 889 q 943 663 906 753 q 981 469 981 574 q 944 278 981 368 q 843 120 908 189 q 694 13 778 51 q 513 -25 610 -25 m 506 144 q 625 169 569 144 q 723 239 681 194 q 789 342 765 283 q 813 469 813 401 q 788 597 813 538 q 722 701 764 656 q 624 771 679 746 q 506 796 569 796 q 388 771 443 796 q 290 701 332 746 q 224 596 247 656 q 200 469 200 536 q 224 343 200 403 q 290 239 249 283 q 387 169 332 194 q 506 144 442 144 m 435 1210 q 492 1193 469 1210 q 531 1160 514 1176 q 565 1144 549 1144 q 592 1156 581 1144 q 616 1179 604 1167 q 643 1197 628 1192 q 667 1203 653 1204 q 696 1193 682 1203 q 732 1157 724 1175 q 728 1115 740 1139 q 696 1064 719 1089 q 641 1024 672 1039 q 576 1010 610 1010 q 523 1026 546 1010 q 481 1058 500 1042 q 443 1075 463 1075 q 399 1063 417 1075 q 372 1036 381 1050 q 349 1017 363 1022 q 308 1031 335 1013 q 275 1071 281 1051 q 286 1115 269 1090 q 325 1162 300 1140 q 379 1197 350 1183 q 435 1210 408 1210 z "},"Œ":{"ha":1454,"x_min":49,"x_max":1407,"o":"m 490 -14 q 314 26 394 -11 q 174 128 233 63 q 81 280 114 193 q 49 468 49 367 q 81 661 49 572 q 174 817 114 750 q 314 920 233 883 q 489 957 394 957 l 1322 957 q 1365 952 1346 957 q 1396 930 1385 947 q 1407 872 1407 913 q 1395 816 1407 833 q 1364 794 1383 799 q 1322 789 1344 789 l 861 789 l 861 558 l 1171 558 q 1213 553 1194 558 q 1243 531 1232 549 q 1254 474 1254 514 q 1243 417 1254 435 q 1213 394 1232 399 q 1168 390 1193 390 l 861 390 l 861 151 l 1322 151 q 1365 149 1346 153 q 1396 127 1385 144 q 1407 69 1407 110 q 1395 13 1407 31 q 1364 -9 1383 -4 q 1322 -14 1344 -14 l 490 -14 m 488 151 l 693 151 l 693 789 l 489 789 q 347 746 408 788 q 251 633 286 704 q 217 472 217 563 q 251 308 217 381 q 347 195 286 236 q 488 151 408 154 z "},"P":{"ha":832,"x_min":81,"x_max":785,"o":"m 164 -12 q 107 -1 125 -12 q 85 30 89 10 q 81 72 81 50 l 81 874 q 85 915 81 896 q 108 945 90 933 q 165 957 126 957 l 460 957 q 579 936 521 957 q 684 874 638 915 q 758 771 731 832 q 785 628 785 710 q 758 487 785 547 q 683 385 731 426 q 578 322 636 343 q 458 301 521 301 l 249 301 l 249 71 q 244 29 249 49 q 222 -1 239 10 q 164 -12 204 -12 m 249 471 l 460 471 q 538 488 503 471 q 596 541 574 506 q 618 631 618 576 q 598 715 618 679 q 542 769 578 750 q 458 789 507 789 l 249 789 l 249 471 z "},"Þ":{"ha":829,"x_min":81,"x_max":785,"o":"m 164 -12 q 107 -1 125 -12 q 85 30 89 10 q 81 72 81 50 l 81 874 q 85 915 81 896 q 108 946 90 935 q 165 957 125 957 q 222 946 204 957 q 244 915 239 935 q 249 872 249 896 l 249 803 l 460 803 q 574 780 517 803 q 678 715 631 757 q 756 611 726 672 q 785 474 785 550 q 756 337 785 397 q 678 234 726 276 q 573 169 631 192 q 458 147 515 147 l 249 147 l 249 71 q 244 29 249 49 q 222 -1 239 10 q 164 -12 204 -12 m 249 315 l 460 315 q 535 335 499 315 q 594 390 571 354 q 618 475 618 425 q 597 556 618 519 q 539 613 575 592 q 458 633 503 633 l 249 633 l 249 315 z "},"Q":{"ha":1113,"x_min":31,"x_max":1085,"o":"m 1036 147 q 1081 96 1076 121 q 1057 31 1085 71 q 1021 -7 1038 3 q 985 -12 1004 -17 q 940 10 967 -7 l 813 96 q 676 8 753 40 q 513 -25 599 -25 q 326 13 413 -25 q 172 119 239 51 q 68 274 106 186 q 31 464 31 363 q 67 659 31 568 q 169 819 104 750 q 319 926 233 888 q 501 965 404 965 q 688 927 601 965 q 841 822 775 889 q 944 664 907 754 q 981 469 981 574 q 965 343 981 404 q 918 228 949 282 l 1036 147 m 506 144 q 625 169 569 144 q 723 239 681 194 q 789 342 765 283 q 813 469 813 401 q 788 597 813 538 q 722 701 764 656 q 624 771 679 746 q 507 796 569 796 q 388 771 443 796 q 290 701 332 746 q 224 597 247 656 q 200 469 200 538 q 224 342 200 401 q 290 239 249 283 q 388 169 332 194 q 506 144 443 144 z "},"R":{"ha":858,"x_min":86,"x_max":811,"o":"m 169 -12 q 113 -1 131 -12 q 91 30 96 10 q 86 72 86 50 l 86 874 q 92 915 86 896 q 115 945 97 933 q 171 957 132 957 l 468 957 q 590 937 532 957 q 693 876 647 917 q 766 773 739 835 q 793 629 793 711 q 776 522 793 575 q 727 423 760 468 q 644 346 694 378 q 526 304 594 314 l 254 304 l 254 71 q 249 29 254 49 q 227 -1 244 10 q 169 -12 210 -12 m 761 8 q 695 -12 721 -19 q 644 32 669 -6 l 411 385 l 599 410 l 783 129 q 807 82 803 101 q 800 46 811 63 q 761 8 789 29 m 254 471 l 489 471 q 538 480 514 471 q 582 509 563 489 q 613 559 601 529 q 625 631 625 589 q 606 716 625 681 q 551 770 586 751 q 465 789 515 789 l 254 789 l 254 471 z "},"S":{"ha":764,"x_min":42,"x_max":719,"o":"m 376 -26 q 263 -11 314 -26 q 174 28 213 4 q 110 76 136 51 q 71 122 83 101 q 47 167 53 147 q 51 205 42 186 q 85 244 60 224 q 131 267 110 267 q 173 254 153 268 q 213 215 193 240 q 288 152 246 171 q 371 133 329 133 q 465 148 425 133 q 528 192 506 163 q 551 267 551 221 q 528 328 551 304 q 468 370 506 353 q 384 402 431 388 q 290 435 338 417 q 224 462 257 446 q 162 499 190 478 q 112 548 133 519 q 78 614 90 576 q 65 701 65 651 q 104 841 65 781 q 213 937 143 901 q 371 972 282 972 q 473 962 428 972 q 551 935 518 951 q 605 903 583 919 q 636 876 626 888 q 672 823 668 844 q 646 765 675 801 q 590 724 617 728 q 529 746 563 721 q 485 784 507 769 q 435 806 463 799 q 369 813 408 813 q 316 805 342 813 q 272 783 290 797 q 244 747 254 768 q 233 700 233 726 q 253 641 233 664 q 308 603 274 618 q 386 576 343 589 q 474 550 429 564 q 564 514 519 535 q 643 462 608 493 q 699 384 678 431 q 719 271 719 338 q 690 138 719 194 q 611 44 661 81 q 500 -9 561 8 q 376 -26 439 -26 z "},"Š":{"ha":764,"x_min":42,"x_max":719,"o":"m 376 -26 q 263 -11 314 -26 q 174 28 213 4 q 110 76 136 51 q 71 122 83 101 q 47 167 53 147 q 51 205 42 186 q 85 244 60 224 q 131 267 110 267 q 173 254 153 268 q 213 215 193 240 q 288 152 246 171 q 371 133 329 133 q 465 148 425 133 q 528 192 506 163 q 551 267 551 221 q 528 328 551 304 q 468 370 506 353 q 384 402 431 388 q 290 435 338 417 q 224 462 257 446 q 162 499 190 478 q 112 548 133 519 q 78 614 90 576 q 65 701 65 651 q 104 841 65 781 q 213 937 143 901 q 371 972 282 972 q 473 962 428 972 q 551 935 518 951 q 605 903 583 919 q 636 876 626 888 q 672 823 668 844 q 646 765 675 801 q 590 724 617 728 q 529 746 563 721 q 485 784 507 769 q 435 806 463 799 q 369 813 408 813 q 316 805 342 813 q 272 783 290 797 q 244 747 254 768 q 233 700 233 726 q 253 641 233 664 q 308 603 274 618 q 386 576 343 589 q 474 550 429 564 q 564 514 519 535 q 643 462 608 493 q 699 384 678 431 q 719 271 719 338 q 690 138 719 194 q 611 44 661 81 q 500 -9 561 8 q 376 -26 439 -26 m 378 1168 l 497 1228 q 528 1238 511 1235 q 562 1231 544 1240 q 596 1189 579 1222 q 604 1133 613 1156 q 563 1097 596 1110 l 404 1032 q 392 1028 399 1031 q 378 1026 386 1026 q 363 1028 369 1026 q 353 1032 357 1031 l 194 1097 q 153 1133 163 1110 q 161 1188 144 1156 q 194 1230 178 1219 q 224 1238 210 1240 q 251 1231 239 1236 l 378 1168 z "},"T":{"ha":911,"x_min":42,"x_max":869,"o":"m 797 958 q 834 954 818 958 q 860 934 850 950 q 869 883 869 918 q 860 833 869 849 q 833 813 850 817 q 796 810 817 810 l 540 810 l 540 69 q 535 27 540 46 q 513 -3 531 8 q 456 -14 496 -14 q 400 -2 418 -14 q 378 28 382 10 q 374 71 374 47 l 374 810 l 115 810 q 79 814 96 810 q 52 833 63 818 q 42 883 42 849 q 51 934 42 918 q 78 954 61 950 q 115 958 96 958 l 797 958 z "},"U":{"ha":974,"x_min":81,"x_max":893,"o":"m 485 -21 q 312 15 388 -21 q 185 113 236 50 q 107 258 133 176 q 81 431 81 339 l 81 874 q 85 916 81 897 q 108 947 90 935 q 165 958 125 958 q 223 947 206 958 q 245 916 240 935 q 250 872 250 897 l 250 431 q 276 290 250 354 q 354 186 301 225 q 489 147 407 147 q 615 182 563 147 q 697 281 668 217 q 725 432 725 344 l 725 881 q 730 919 725 903 q 753 947 735 936 q 810 958 771 958 q 867 947 850 958 q 889 915 885 935 q 893 872 893 896 l 893 428 q 867 255 893 336 q 788 112 840 174 q 659 15 735 50 q 485 -21 583 -21 z "},"Ú":{"ha":974,"x_min":81,"x_max":893,"o":"m 485 -21 q 312 15 388 -21 q 185 113 236 50 q 107 258 133 176 q 81 431 81 339 l 81 874 q 85 916 81 897 q 108 947 90 935 q 165 958 125 958 q 223 947 206 958 q 245 916 240 935 q 250 872 250 897 l 250 431 q 276 290 250 354 q 354 186 301 225 q 489 147 407 147 q 615 182 563 147 q 697 281 668 217 q 725 432 725 344 l 725 881 q 730 919 725 903 q 753 947 735 936 q 810 958 771 958 q 867 947 850 958 q 889 915 885 935 q 893 872 893 896 l 893 428 q 867 255 893 336 q 788 112 840 174 q 659 15 735 50 q 485 -21 583 -21 m 410 1008 q 373 1017 388 1004 q 349 1061 358 1029 q 344 1120 336 1100 q 386 1151 351 1140 l 619 1225 q 656 1216 642 1229 q 679 1171 671 1203 q 684 1113 693 1133 q 642 1082 675 1093 l 410 1008 z "},"Û":{"ha":974,"x_min":81,"x_max":893,"o":"m 485 -21 q 312 15 388 -21 q 185 113 236 50 q 107 258 133 176 q 81 431 81 339 l 81 874 q 85 916 81 897 q 108 947 90 935 q 165 958 125 958 q 223 947 206 958 q 245 916 240 935 q 250 872 250 897 l 250 431 q 276 290 250 354 q 354 186 301 225 q 489 147 407 147 q 615 182 563 147 q 697 281 668 217 q 725 432 725 344 l 725 881 q 730 919 725 903 q 753 947 735 936 q 810 958 771 958 q 867 947 850 958 q 889 915 885 935 q 893 872 893 896 l 893 428 q 867 255 893 336 q 788 112 840 174 q 659 15 735 50 q 485 -21 583 -21 m 488 1238 q 502 1236 496 1238 q 513 1232 508 1235 l 671 1167 q 713 1131 706 1154 q 704 1075 721 1107 q 672 1033 689 1046 q 636 1028 654 1019 l 488 1096 l 339 1029 q 302 1035 319 1021 q 269 1076 285 1049 q 260 1131 253 1108 q 301 1167 268 1154 l 461 1232 q 472 1236 465 1235 q 488 1238 479 1238 z "},"Ü":{"ha":974,"x_min":81,"x_max":893,"o":"m 485 -21 q 312 15 388 -21 q 185 113 236 50 q 107 258 133 176 q 81 431 81 339 l 81 874 q 85 916 81 897 q 108 947 90 935 q 165 958 125 958 q 223 947 206 958 q 245 916 240 935 q 250 872 250 897 l 250 431 q 276 290 250 354 q 354 186 301 225 q 489 147 407 147 q 615 182 563 147 q 697 281 668 217 q 725 432 725 344 l 725 881 q 730 919 725 903 q 753 947 735 936 q 810 958 771 958 q 867 947 850 958 q 889 915 885 935 q 893 872 893 896 l 893 428 q 867 255 893 336 q 788 112 840 174 q 659 15 735 50 q 485 -21 583 -21 m 615 1050 q 554 1063 572 1050 q 532 1097 536 1076 q 528 1139 528 1118 q 532 1181 528 1161 q 554 1214 536 1201 q 617 1226 572 1226 q 679 1213 661 1226 q 701 1180 697 1200 q 704 1138 704 1160 q 701 1097 704 1117 q 679 1063 697 1076 q 615 1050 661 1050 m 365 1050 q 303 1063 321 1050 q 281 1097 285 1076 q 276 1139 276 1118 q 281 1181 278 1161 q 303 1214 285 1201 q 365 1226 321 1226 q 428 1213 410 1226 q 449 1180 446 1200 q 453 1138 453 1160 q 449 1097 453 1117 q 428 1063 446 1076 q 365 1050 410 1050 z "},"Ù":{"ha":974,"x_min":81,"x_max":893,"o":"m 485 -21 q 312 15 388 -21 q 185 113 236 50 q 107 258 133 176 q 81 431 81 339 l 81 874 q 85 916 81 897 q 108 947 90 935 q 165 958 125 958 q 223 947 206 958 q 245 916 240 935 q 250 872 250 897 l 250 431 q 276 290 250 354 q 354 186 301 225 q 489 147 407 147 q 615 182 563 147 q 697 281 668 217 q 725 432 725 344 l 725 881 q 730 919 725 903 q 753 947 735 936 q 810 958 771 958 q 867 947 850 958 q 889 915 885 935 q 893 872 893 896 l 893 428 q 867 255 893 336 q 788 112 840 174 q 659 15 735 50 q 485 -21 583 -21 m 489 1025 l 276 1096 q 234 1128 242 1108 q 238 1185 226 1147 q 267 1235 250 1225 q 319 1235 285 1244 l 532 1165 q 574 1133 567 1153 q 569 1075 582 1114 q 540 1026 557 1035 q 489 1025 524 1017 z "},"V":{"ha":1008,"x_min":57,"x_max":949,"o":"m 506 -12 q 452 -2 474 -12 q 419 33 431 8 l 75 846 q 68 910 57 889 q 119 951 79 931 q 168 967 147 967 q 203 955 189 968 q 229 913 218 942 l 504 224 l 776 906 q 803 949 789 933 q 839 966 817 965 q 892 950 861 967 q 944 901 940 926 q 931 838 949 876 l 589 33 q 557 0 579 13 q 506 -12 535 -12 z "},"W":{"ha":1332,"x_min":29,"x_max":1297,"o":"m 394 -10 q 350 1 367 -10 q 326 25 333 11 q 315 49 318 39 l 43 846 q 39 913 29 890 q 96 951 49 936 q 147 961 128 963 q 180 945 167 960 q 203 900 193 931 l 403 294 l 582 894 q 594 923 586 908 q 618 947 601 938 q 664 957 635 957 q 714 946 697 957 q 738 922 731 935 q 749 897 746 908 l 928 290 l 1129 899 q 1152 946 1139 931 q 1186 963 1165 961 q 1238 954 1207 965 q 1283 930 1269 943 q 1297 897 1297 917 q 1288 846 1297 876 l 1017 47 q 1006 25 1014 39 q 982 1 999 11 q 936 -10 965 -10 q 890 3 907 -10 q 865 31 874 15 q 854 53 857 46 l 665 664 l 476 54 q 466 29 474 44 q 442 2 458 14 q 394 -10 425 -10 z "},"X":{"ha":963,"x_min":61,"x_max":903,"o":"m 864 3 q 820 -25 839 -18 q 784 -22 801 -32 q 746 11 767 -12 l 90 819 q 61 879 61 853 q 97 938 61 906 q 141 966 122 960 q 178 963 160 972 q 215 929 196 954 l 871 119 q 903 59 903 85 q 864 3 903 33 m 99 3 q 61 59 61 33 q 92 119 61 85 l 747 929 q 785 963 768 954 q 822 966 803 972 q 865 938 840 960 q 903 879 903 906 q 872 819 903 853 l 217 11 q 178 -22 196 -12 q 142 -25 161 -32 q 99 3 124 -18 z "},"Y":{"ha":886,"x_min":24,"x_max":863,"o":"m 814 947 q 858 894 854 919 q 839 836 863 869 l 529 368 l 529 69 q 524 27 529 46 q 501 -3 519 8 q 444 -15 483 -15 q 387 -3 404 -15 q 365 28 369 8 q 360 72 360 47 l 360 368 l 49 835 q 30 894 24 869 q 75 946 36 919 q 123 969 103 965 q 160 963 143 974 q 192 926 176 951 l 442 531 l 696 926 q 728 962 713 951 q 765 969 744 972 q 814 947 786 965 z "},"Ý":{"ha":886,"x_min":24,"x_max":863,"o":"m 814 947 q 858 894 854 919 q 839 836 863 869 l 529 368 l 529 69 q 524 27 529 46 q 501 -3 519 8 q 444 -15 483 -15 q 387 -3 404 -15 q 365 28 369 8 q 360 72 360 47 l 360 368 l 49 835 q 30 894 24 869 q 75 946 36 919 q 123 969 103 965 q 160 963 143 974 q 192 926 176 951 l 442 531 l 696 926 q 728 962 713 951 q 765 969 744 972 q 814 947 786 965 m 368 1008 q 331 1017 346 1004 q 307 1061 317 1029 q 302 1120 294 1100 q 344 1151 310 1140 l 578 1225 q 615 1216 600 1229 q 638 1171 629 1203 q 642 1113 651 1133 q 600 1082 633 1093 l 368 1008 z "},"Ÿ":{"ha":886,"x_min":24,"x_max":863,"o":"m 814 947 q 858 894 854 919 q 839 836 863 869 l 529 368 l 529 69 q 524 27 529 46 q 501 -3 519 8 q 444 -15 483 -15 q 387 -3 404 -15 q 365 28 369 8 q 360 72 360 47 l 360 368 l 49 835 q 30 894 24 869 q 75 946 36 919 q 123 969 103 965 q 160 963 143 974 q 192 926 176 951 l 442 531 l 696 926 q 728 962 713 951 q 765 969 744 972 q 814 947 786 965 m 572 1050 q 511 1063 529 1050 q 489 1097 493 1076 q 485 1139 485 1118 q 489 1181 485 1161 q 511 1214 493 1201 q 574 1226 529 1226 q 636 1213 618 1226 q 658 1180 654 1200 q 661 1138 661 1160 q 658 1097 661 1117 q 636 1063 654 1076 q 572 1050 618 1050 m 322 1050 q 260 1063 278 1050 q 238 1097 242 1076 q 233 1139 233 1118 q 238 1181 235 1161 q 260 1214 242 1201 q 322 1226 278 1226 q 385 1213 367 1226 q 406 1180 403 1200 q 410 1138 410 1160 q 406 1097 410 1117 q 385 1063 403 1076 q 322 1050 367 1050 z "},"Z":{"ha":810,"x_min":35,"x_max":775,"o":"m 117 -15 q 58 8 82 -15 q 35 69 35 31 q 38 94 35 82 q 47 114 40 106 l 517 793 l 124 793 q 80 797 100 793 q 47 819 60 801 q 35 872 35 836 q 46 931 35 913 q 77 953 57 949 q 119 958 97 958 l 672 958 q 733 933 710 958 q 756 875 756 908 q 751 844 756 858 q 739 822 747 831 l 275 149 l 693 149 q 734 144 715 149 q 764 122 753 139 q 775 68 775 106 q 764 12 775 29 q 733 -10 753 -6 q 690 -15 714 -15 l 117 -15 z "},"Ž":{"ha":810,"x_min":35,"x_max":775,"o":"m 117 -15 q 58 8 82 -15 q 35 69 35 31 q 38 94 35 82 q 47 114 40 106 l 517 793 l 124 793 q 80 797 100 793 q 47 819 60 801 q 35 872 35 836 q 46 931 35 913 q 77 953 57 949 q 119 958 97 958 l 672 958 q 733 933 710 958 q 756 875 756 908 q 751 844 756 858 q 739 822 747 831 l 275 149 l 693 149 q 734 144 715 149 q 764 122 753 139 q 775 68 775 106 q 764 12 775 29 q 733 -10 753 -6 q 690 -15 714 -15 l 117 -15 m 406 1168 l 525 1228 q 556 1238 539 1235 q 590 1231 572 1240 q 624 1189 607 1222 q 632 1133 640 1156 q 590 1097 624 1110 l 432 1032 q 420 1028 426 1031 q 406 1026 414 1026 q 391 1028 397 1026 q 381 1032 385 1031 l 222 1097 q 181 1133 190 1110 q 189 1188 172 1156 q 222 1230 206 1219 q 252 1238 238 1240 q 279 1231 267 1236 l 406 1168 z "},"a":{"ha":790,"x_min":42,"x_max":724,"o":"m 642 -11 q 582 4 601 -11 q 563 46 563 19 l 572 92 q 535 49 561 74 q 465 6 508 25 q 361 -12 422 -12 q 238 15 296 -12 q 137 90 181 42 q 67 199 93 138 q 42 332 42 261 q 67 460 42 400 q 138 568 93 521 q 240 642 182 615 q 361 669 297 669 q 458 654 418 669 q 525 616 497 639 q 571 568 553 593 l 563 608 q 582 655 563 639 q 643 671 601 671 q 699 659 682 671 q 719 627 715 647 q 724 582 724 607 l 724 74 q 719 31 724 50 q 698 0 715 11 q 642 -11 681 -11 m 386 150 q 471 174 433 150 q 531 238 508 197 q 554 329 554 279 q 531 424 554 383 q 469 487 507 464 q 383 510 431 510 q 292 485 332 510 q 228 420 251 461 q 206 328 206 379 q 229 238 206 278 q 294 174 253 197 q 386 150 335 150 z "},"á":{"ha":790,"x_min":42,"x_max":724,"o":"m 642 -11 q 582 4 601 -11 q 563 46 563 19 l 572 92 q 535 49 561 74 q 465 6 508 25 q 361 -12 422 -12 q 238 15 296 -12 q 137 90 181 42 q 67 199 93 138 q 42 332 42 261 q 67 460 42 400 q 138 568 93 521 q 240 642 182 615 q 361 669 297 669 q 458 654 418 669 q 525 616 497 639 q 571 568 553 593 l 563 608 q 582 655 563 639 q 643 671 601 671 q 699 659 682 671 q 719 627 715 647 q 724 582 724 607 l 724 74 q 719 31 724 50 q 698 0 715 11 q 642 -11 681 -11 m 386 150 q 471 174 433 150 q 531 238 508 197 q 554 329 554 279 q 531 424 554 383 q 469 487 507 464 q 383 510 431 510 q 292 485 332 510 q 228 420 251 461 q 206 328 206 379 q 229 238 206 278 q 294 174 253 197 q 386 150 335 150 m 346 742 q 309 750 324 738 q 285 794 294 763 q 280 853 272 833 q 322 885 288 874 l 556 958 q 592 949 578 963 q 615 904 607 936 q 620 847 629 867 q 578 815 611 826 l 346 742 z "},"â":{"ha":790,"x_min":42,"x_max":724,"o":"m 642 -11 q 582 4 601 -11 q 563 46 563 19 l 572 92 q 535 49 561 74 q 465 6 508 25 q 361 -12 422 -12 q 238 15 296 -12 q 137 90 181 42 q 67 199 93 138 q 42 332 42 261 q 67 460 42 400 q 138 568 93 521 q 240 642 182 615 q 361 669 297 669 q 458 654 418 669 q 525 616 497 639 q 571 568 553 593 l 563 608 q 582 655 563 639 q 643 671 601 671 q 699 659 682 671 q 719 627 715 647 q 724 582 724 607 l 724 74 q 719 31 724 50 q 698 0 715 11 q 642 -11 681 -11 m 386 150 q 471 174 433 150 q 531 238 508 197 q 554 329 554 279 q 531 424 554 383 q 469 487 507 464 q 383 510 431 510 q 292 485 332 510 q 228 420 251 461 q 206 328 206 379 q 229 238 206 278 q 294 174 253 197 q 386 150 335 150 m 390 960 q 405 958 399 960 q 415 954 411 957 l 574 889 q 616 853 608 876 q 607 797 624 829 q 574 755 592 768 q 539 750 557 742 l 390 818 l 242 751 q 205 757 222 743 q 172 799 188 771 q 163 853 156 831 q 204 889 171 876 l 364 954 q 375 958 368 957 q 390 960 382 960 z "},"ä":{"ha":790,"x_min":42,"x_max":724,"o":"m 642 -11 q 582 4 601 -11 q 563 46 563 19 l 572 92 q 535 49 561 74 q 465 6 508 25 q 361 -12 422 -12 q 238 15 296 -12 q 137 90 181 42 q 67 199 93 138 q 42 332 42 261 q 67 460 42 400 q 138 568 93 521 q 240 642 182 615 q 361 669 297 669 q 458 654 418 669 q 525 616 497 639 q 571 568 553 593 l 563 608 q 582 655 563 639 q 643 671 601 671 q 699 659 682 671 q 719 627 715 647 q 724 582 724 607 l 724 74 q 719 31 724 50 q 698 0 715 11 q 642 -11 681 -11 m 386 150 q 471 174 433 150 q 531 238 508 197 q 554 329 554 279 q 531 424 554 383 q 469 487 507 464 q 383 510 431 510 q 292 485 332 510 q 228 420 251 461 q 206 328 206 379 q 229 238 206 278 q 294 174 253 197 q 386 150 335 150 m 519 772 q 458 785 476 772 q 436 819 440 799 q 432 861 432 840 q 436 903 432 883 q 458 936 440 924 q 521 949 476 949 q 583 935 565 949 q 605 902 601 922 q 608 860 608 882 q 605 819 608 839 q 583 785 601 799 q 519 772 565 772 m 269 772 q 207 785 225 772 q 185 819 189 799 q 181 861 181 840 q 185 903 182 883 q 207 936 189 924 q 269 949 225 949 q 332 935 314 949 q 353 902 350 922 q 357 860 357 882 q 353 819 357 839 q 332 785 350 799 q 269 772 314 772 z "},"à":{"ha":790,"x_min":42,"x_max":724,"o":"m 642 -11 q 582 4 601 -11 q 563 46 563 19 l 572 92 q 535 49 561 74 q 465 6 508 25 q 361 -12 422 -12 q 238 15 296 -12 q 137 90 181 42 q 67 199 93 138 q 42 332 42 261 q 67 460 42 400 q 138 568 93 521 q 240 642 182 615 q 361 669 297 669 q 458 654 418 669 q 525 616 497 639 q 571 568 553 593 l 563 608 q 582 655 563 639 q 643 671 601 671 q 699 659 682 671 q 719 627 715 647 q 724 582 724 607 l 724 74 q 719 31 724 50 q 698 0 715 11 q 642 -11 681 -11 m 386 150 q 471 174 433 150 q 531 238 508 197 q 554 329 554 279 q 531 424 554 383 q 469 487 507 464 q 383 510 431 510 q 292 485 332 510 q 228 420 251 461 q 206 328 206 379 q 229 238 206 278 q 294 174 253 197 q 386 150 335 150 m 431 747 l 218 818 q 176 850 183 831 q 179 907 168 869 q 209 957 192 947 q 261 957 226 967 l 474 888 q 516 856 508 875 q 511 797 524 836 q 482 748 499 757 q 431 747 465 739 z "},"å":{"ha":790,"x_min":42,"x_max":724,"o":"m 642 -11 q 582 4 601 -11 q 563 46 563 19 l 572 92 q 535 49 561 74 q 465 6 508 25 q 361 -12 422 -12 q 238 15 296 -12 q 137 90 181 42 q 67 199 93 138 q 42 332 42 261 q 67 460 42 400 q 138 568 93 521 q 240 642 182 615 q 361 669 297 669 q 458 654 418 669 q 525 616 497 639 q 571 568 553 593 l 563 608 q 582 655 563 639 q 643 671 601 671 q 699 659 682 671 q 719 627 715 647 q 724 582 724 607 l 724 74 q 719 31 724 50 q 698 0 715 11 q 642 -11 681 -11 m 386 150 q 471 174 433 150 q 531 238 508 197 q 554 329 554 279 q 531 424 554 383 q 469 487 507 464 q 383 510 431 510 q 292 485 332 510 q 228 420 251 461 q 206 328 206 379 q 229 238 206 278 q 294 174 253 197 q 386 150 335 150 m 389 725 q 308 747 344 725 q 250 806 272 769 q 228 886 228 843 q 250 967 228 931 q 308 1026 272 1004 q 388 1049 343 1049 q 469 1027 433 1049 q 528 969 506 1006 q 550 888 550 933 q 528 805 550 842 q 470 747 507 768 q 389 725 433 725 m 389 814 q 440 835 419 814 q 461 889 461 857 q 441 940 461 919 q 388 960 421 960 q 337 939 358 960 q 315 888 315 918 q 337 835 315 856 q 389 814 358 814 z "},"ã":{"ha":790,"x_min":42,"x_max":724,"o":"m 642 -11 q 582 4 601 -11 q 563 46 563 19 l 572 92 q 535 49 561 74 q 465 6 508 25 q 361 -12 422 -12 q 238 15 296 -12 q 137 90 181 42 q 67 199 93 138 q 42 332 42 261 q 67 460 42 400 q 138 568 93 521 q 240 642 182 615 q 361 669 297 669 q 458 654 418 669 q 525 616 497 639 q 571 568 553 593 l 563 608 q 582 655 563 639 q 643 671 601 671 q 699 659 682 671 q 719 627 715 647 q 724 582 724 607 l 724 74 q 719 31 724 50 q 698 0 715 11 q 642 -11 681 -11 m 386 150 q 471 174 433 150 q 531 238 508 197 q 554 329 554 279 q 531 424 554 383 q 469 487 507 464 q 383 510 431 510 q 292 485 332 510 q 228 420 251 461 q 206 328 206 379 q 229 238 206 278 q 294 174 253 197 q 386 150 335 150 m 311 960 q 368 943 346 960 q 408 910 390 926 q 442 894 425 894 q 469 906 457 894 q 492 929 481 917 q 519 947 504 942 q 544 953 529 954 q 572 943 558 953 q 608 907 600 925 q 604 865 617 889 q 572 814 596 839 q 517 774 549 789 q 453 760 486 760 q 399 776 422 760 q 358 808 376 792 q 319 825 339 825 q 275 813 293 825 q 249 786 257 800 q 225 767 239 772 q 185 781 211 763 q 151 821 157 801 q 163 865 146 840 q 201 912 176 890 q 256 947 226 933 q 311 960 285 960 z "},"æ":{"ha":1211,"x_min":35,"x_max":1176,"o":"m 358 674 q 449 660 404 674 q 531 620 493 647 q 599 551 569 593 q 672 616 629 589 q 765 658 714 643 q 874 672 817 672 q 1002 649 946 672 q 1097 589 1058 626 q 1156 506 1136 551 q 1176 418 1176 461 q 1142 309 1176 344 q 1054 274 1107 274 l 692 274 q 710 213 693 240 q 753 167 726 186 q 814 137 781 147 q 881 126 847 126 q 955 132 925 126 q 1005 146 985 138 q 1040 162 1025 154 q 1072 172 1056 169 q 1103 165 1088 174 q 1128 138 1118 157 q 1139 113 1135 125 q 1143 88 1143 100 q 1105 35 1143 60 q 1006 -5 1067 10 q 876 -19 944 -19 q 759 -3 813 -19 q 662 43 706 13 q 588 115 618 74 q 526 49 564 81 q 428 -1 489 18 q 275 -21 368 -21 q 99 30 163 -21 q 35 174 35 81 q 66 270 35 229 q 157 335 97 311 q 299 358 217 358 q 349 356 324 358 q 397 350 374 354 q 442 340 421 346 q 483 328 464 335 q 517 313 501 321 q 500 426 515 379 q 452 497 485 472 q 363 521 419 521 q 322 517 343 521 q 282 508 301 514 q 246 492 263 501 q 217 469 229 482 q 151 431 182 432 q 92 463 119 431 q 62 526 60 500 q 101 586 64 553 q 169 631 131 611 q 254 663 207 651 q 358 674 301 674 m 692 378 l 972 378 q 1006 384 993 378 q 1018 415 1018 390 q 999 471 1018 446 q 948 511 981 496 q 872 526 915 526 q 785 506 826 526 q 719 452 744 486 q 692 378 693 418 m 314 101 q 380 110 347 101 q 441 133 413 118 q 490 168 469 147 q 521 214 511 189 q 471 233 501 224 q 405 247 440 242 q 332 253 369 253 q 245 244 278 253 q 199 219 213 235 q 185 181 185 203 q 215 122 185 143 q 314 101 246 101 z "},"b":{"ha":796,"x_min":68,"x_max":743,"o":"m 429 -12 q 308 15 361 -12 q 217 89 254 42 q 162 198 181 136 q 143 331 143 260 q 164 463 144 401 q 220 572 183 525 q 310 644 257 618 q 429 671 363 671 q 549 644 493 671 q 649 572 606 618 q 718 463 693 525 q 743 332 743 401 q 718 197 743 260 q 650 87 693 133 q 550 14 607 40 q 429 -12 493 -12 m 407 150 q 494 173 456 150 q 556 236 533 196 q 579 328 579 276 q 556 422 579 381 q 494 485 533 463 q 407 508 456 508 q 321 485 360 508 q 259 421 282 461 q 236 328 236 381 q 259 236 236 276 q 321 173 282 196 q 407 150 360 150 m 150 -14 q 94 -2 113 -14 q 72 28 76 10 q 68 71 68 47 l 68 899 q 72 941 68 922 q 94 971 76 960 q 150 982 113 982 q 206 971 189 982 q 226 940 222 960 q 231 899 231 921 l 231 43 q 208 -1 225 13 q 150 -14 190 -14 z "},"c":{"ha":704,"x_min":49,"x_max":660,"o":"m 403 -17 q 273 6 336 -17 q 159 74 210 29 q 78 183 108 118 q 49 329 49 247 q 78 475 49 411 q 158 583 108 539 q 271 651 208 628 q 400 675 333 675 q 492 661 449 675 q 568 628 536 647 q 614 589 600 608 q 644 557 632 572 q 653 519 657 542 q 640 494 649 506 q 619 469 632 482 q 554 442 586 432 q 518 463 536 451 q 481 484 500 474 q 443 501 463 494 q 400 508 424 508 q 306 485 347 508 q 242 422 265 463 q 219 329 219 382 q 242 235 219 276 q 306 172 265 194 q 397 149 346 149 q 445 155 422 149 q 486 172 468 161 q 515 193 504 182 q 543 211 531 203 q 569 219 556 219 q 602 208 586 219 q 638 171 618 196 q 658 131 656 150 q 649 93 660 111 q 615 60 639 75 q 566 26 599 43 q 491 -4 533 8 q 403 -17 449 -17 z "},"ç":{"ha":703,"x_min":49,"x_max":660,"o":"m 403 -17 q 273 6 336 -17 q 159 74 210 29 q 78 183 108 118 q 49 329 49 247 q 78 475 49 411 q 158 583 108 539 q 271 651 208 628 q 400 675 333 675 q 492 661 449 675 q 568 628 536 647 q 614 589 600 608 q 644 557 632 572 q 653 519 657 542 q 640 494 649 506 q 619 469 632 482 q 554 442 586 432 q 518 463 536 451 q 481 484 500 474 q 443 501 463 494 q 400 508 424 508 q 306 485 347 508 q 242 422 265 463 q 219 329 219 382 q 242 235 219 276 q 306 172 265 194 q 397 149 346 149 q 445 155 422 149 q 486 172 468 161 q 515 193 504 182 q 543 211 531 203 q 569 219 556 219 q 602 208 586 219 q 638 171 618 196 q 658 131 656 150 q 649 93 660 111 q 615 60 639 75 q 566 26 599 43 q 491 -4 533 8 q 403 -17 449 -17 m 381 -253 q 314 -237 346 -253 q 279 -199 282 -221 q 290 -167 278 -182 q 313 -146 304 -151 q 329 -140 321 -140 q 353 -149 340 -140 q 382 -158 367 -158 q 414 -147 399 -158 q 429 -112 429 -135 q 414 -78 429 -90 q 382 -65 399 -65 q 350 -76 363 -65 q 326 -86 338 -86 q 306 -78 315 -86 q 290 -57 297 -69 q 281 -40 285 -47 q 279 -26 278 -32 q 297 1 281 -11 q 336 21 313 14 q 382 28 360 28 q 448 11 415 28 q 502 -37 481 -6 q 524 -111 524 -68 q 504 -183 524 -151 q 452 -234 485 -215 q 381 -253 419 -253 z "},"d":{"ha":799,"x_min":53,"x_max":728,"o":"m 367 -12 q 246 14 303 -12 q 146 87 189 40 q 78 197 103 133 q 53 332 53 260 q 78 463 53 401 q 147 572 103 525 q 247 644 190 618 q 367 671 304 671 q 486 644 433 671 q 576 572 539 618 q 632 463 613 525 q 653 331 651 401 q 634 198 653 260 q 578 89 615 136 q 488 15 542 42 q 367 -12 435 -12 m 389 150 q 476 173 438 150 q 537 236 514 196 q 560 328 560 276 q 537 421 560 381 q 476 485 514 461 q 389 508 438 508 q 301 485 340 508 q 240 422 263 463 q 217 328 217 381 q 240 236 217 276 q 302 173 263 196 q 389 150 342 150 m 646 -12 q 589 1 607 -12 q 565 43 571 14 l 565 899 q 569 941 565 922 q 590 972 572 960 q 644 983 607 983 q 701 972 685 983 q 723 942 718 961 q 728 900 728 924 l 728 72 q 724 29 728 49 q 702 -1 719 10 q 646 -12 685 -12 z "},"ð":{"ha":799,"x_min":53,"x_max":739,"o":"m 493 1021 q 519 997 513 1008 q 522 973 525 985 q 508 944 519 961 l 478 906 q 596 801 546 861 q 678 667 646 742 q 724 506 710 593 q 735 317 739 418 q 706 186 733 247 q 631 78 678 125 q 524 6 585 32 q 392 -19 463 -19 q 265 6 326 -19 q 156 77 204 31 q 81 188 108 124 q 53 328 53 251 q 81 465 53 403 q 155 574 108 528 q 260 644 201 619 q 382 669 319 669 q 487 652 440 669 q 563 607 533 635 q 497 721 538 674 q 397 799 456 768 l 353 738 q 329 715 340 721 q 306 712 318 708 q 279 724 294 715 q 251 749 258 738 q 246 772 243 760 q 261 800 249 785 l 294 843 q 253 863 269 854 q 228 886 238 872 q 219 909 218 894 q 228 943 219 924 q 254 976 239 967 q 292 983 269 985 q 322 977 307 982 q 352 967 338 972 q 379 957 367 963 l 417 1007 q 440 1031 429 1024 q 463 1035 450 1038 q 493 1021 475 1033 m 397 142 q 483 164 443 142 q 548 228 522 186 q 574 328 574 269 q 551 424 574 382 q 488 491 528 467 q 397 515 449 515 q 304 490 346 515 q 239 423 263 465 q 215 326 215 381 q 241 227 215 268 q 309 164 267 186 q 397 142 351 142 z "},"e":{"ha":749,"x_min":42,"x_max":707,"o":"m 403 -22 q 245 7 313 -22 q 133 87 178 36 q 65 201 88 138 q 42 332 42 264 q 88 510 42 432 q 215 632 133 588 q 401 676 296 676 q 533 653 476 676 q 628 591 590 629 q 687 507 667 553 q 707 418 707 461 q 672 311 707 344 q 583 278 636 278 l 217 278 q 247 196 218 231 q 319 142 275 161 q 408 124 363 124 q 470 128 443 124 q 517 138 497 132 q 551 151 536 144 q 578 164 565 158 q 601 171 590 169 q 632 164 617 172 q 657 135 647 156 q 669 109 665 121 q 672 86 672 97 q 639 34 672 58 q 545 -6 606 10 q 403 -22 485 -22 m 217 376 l 501 376 q 538 384 525 376 q 550 417 550 392 q 531 474 550 449 q 478 515 511 500 q 400 529 444 529 q 307 509 349 529 q 241 454 265 489 q 217 376 217 419 z "},"é":{"ha":749,"x_min":42,"x_max":707,"o":"m 403 -22 q 245 7 313 -22 q 133 87 178 36 q 65 201 88 138 q 42 332 42 264 q 88 510 42 432 q 215 632 133 588 q 401 676 296 676 q 533 653 476 676 q 628 591 590 629 q 687 507 667 553 q 707 418 707 461 q 672 311 707 344 q 583 278 636 278 l 217 278 q 247 196 218 231 q 319 142 275 161 q 408 124 363 124 q 470 128 443 124 q 517 138 497 132 q 551 151 536 144 q 578 164 565 158 q 601 171 590 169 q 632 164 617 172 q 657 135 647 156 q 669 109 665 121 q 672 86 672 97 q 639 34 672 58 q 545 -6 606 10 q 403 -22 485 -22 m 217 376 l 501 376 q 538 384 525 376 q 550 417 550 392 q 531 474 550 449 q 478 515 511 500 q 400 529 444 529 q 307 509 349 529 q 241 454 265 489 q 217 376 217 419 m 329 742 q 292 750 307 738 q 268 794 278 763 q 263 853 256 833 q 306 885 271 874 l 539 958 q 576 949 561 963 q 599 904 590 936 q 603 847 613 867 q 561 815 594 826 l 329 742 z "},"ê":{"ha":749,"x_min":42,"x_max":707,"o":"m 403 -22 q 245 7 313 -22 q 133 87 178 36 q 65 201 88 138 q 42 332 42 264 q 88 510 42 432 q 215 632 133 588 q 401 676 296 676 q 533 653 476 676 q 628 591 590 629 q 687 507 667 553 q 707 418 707 461 q 672 311 707 344 q 583 278 636 278 l 217 278 q 247 196 218 231 q 319 142 275 161 q 408 124 363 124 q 470 128 443 124 q 517 138 497 132 q 551 151 536 144 q 578 164 565 158 q 601 171 590 169 q 632 164 617 172 q 657 135 647 156 q 669 109 665 121 q 672 86 672 97 q 639 34 672 58 q 545 -6 606 10 q 403 -22 485 -22 m 217 376 l 501 376 q 538 384 525 376 q 550 417 550 392 q 531 474 550 449 q 478 515 511 500 q 400 529 444 529 q 307 509 349 529 q 241 454 265 489 q 217 376 217 419 m 374 960 q 388 958 382 960 q 399 954 394 957 l 557 889 q 599 853 592 876 q 590 797 607 829 q 558 755 575 768 q 522 750 540 742 l 374 818 l 225 751 q 188 757 206 743 q 156 799 171 771 q 147 853 139 831 q 188 889 154 876 l 347 954 q 358 958 351 957 q 374 960 365 960 z "},"ë":{"ha":749,"x_min":42,"x_max":707,"o":"m 403 -22 q 245 7 313 -22 q 133 87 178 36 q 65 201 88 138 q 42 332 42 264 q 88 510 42 432 q 215 632 133 588 q 401 676 296 676 q 533 653 476 676 q 628 591 590 629 q 687 507 667 553 q 707 418 707 461 q 672 311 707 344 q 583 278 636 278 l 217 278 q 247 196 218 231 q 319 142 275 161 q 408 124 363 124 q 470 128 443 124 q 517 138 497 132 q 551 151 536 144 q 578 164 565 158 q 601 171 590 169 q 632 164 617 172 q 657 135 647 156 q 669 109 665 121 q 672 86 672 97 q 639 34 672 58 q 545 -6 606 10 q 403 -22 485 -22 m 217 376 l 501 376 q 538 384 525 376 q 550 417 550 392 q 531 474 550 449 q 478 515 511 500 q 400 529 444 529 q 307 509 349 529 q 241 454 265 489 q 217 376 217 419 m 504 772 q 443 785 461 772 q 421 819 425 799 q 417 861 417 840 q 421 903 417 883 q 443 936 425 924 q 506 949 461 949 q 568 935 550 949 q 590 902 586 922 q 593 860 593 882 q 590 819 593 839 q 568 785 586 799 q 504 772 550 772 m 254 772 q 192 785 210 772 q 169 819 174 799 q 165 861 165 840 q 170 903 167 883 q 192 936 174 924 q 254 949 210 949 q 317 935 299 949 q 338 902 335 922 q 342 860 342 882 q 338 819 342 839 q 317 785 335 799 q 254 772 299 772 z "},"è":{"ha":749,"x_min":42,"x_max":707,"o":"m 403 -22 q 245 7 313 -22 q 133 87 178 36 q 65 201 88 138 q 42 332 42 264 q 88 510 42 432 q 215 632 133 588 q 401 676 296 676 q 533 653 476 676 q 628 591 590 629 q 687 507 667 553 q 707 418 707 461 q 672 311 707 344 q 583 278 636 278 l 217 278 q 247 196 218 231 q 319 142 275 161 q 408 124 363 124 q 470 128 443 124 q 517 138 497 132 q 551 151 536 144 q 578 164 565 158 q 601 171 590 169 q 632 164 617 172 q 657 135 647 156 q 669 109 665 121 q 672 86 672 97 q 639 34 672 58 q 545 -6 606 10 q 403 -22 485 -22 m 217 376 l 501 376 q 538 384 525 376 q 550 417 550 392 q 531 474 550 449 q 478 515 511 500 q 400 529 444 529 q 307 509 349 529 q 241 454 265 489 q 217 376 217 419 m 414 747 l 201 818 q 159 850 167 831 q 163 907 151 869 q 192 957 175 947 q 244 957 210 967 l 457 888 q 499 856 492 875 q 494 797 507 836 q 465 748 482 757 q 414 747 449 739 z "},"f":{"ha":544,"x_min":31,"x_max":514,"o":"m 233 -14 q 178 -3 196 -14 q 157 28 161 8 q 153 71 153 49 l 153 746 q 167 841 153 797 q 211 917 181 885 q 290 967 242 949 q 408 986 339 986 q 451 981 432 986 q 481 960 469 976 q 493 903 493 943 q 481 847 493 865 q 450 825 469 829 q 407 821 431 821 q 366 819 383 821 q 338 810 349 817 q 323 788 328 803 q 318 749 318 772 l 318 68 q 313 27 318 46 q 290 -3 308 8 q 233 -14 272 -14 m 96 657 l 239 656 l 431 661 q 473 656 454 661 q 503 634 492 651 q 514 578 514 617 q 503 524 514 542 q 474 501 492 506 q 432 496 456 496 l 246 499 l 92 497 q 44 517 57 499 q 31 579 31 536 q 47 638 31 619 q 96 657 63 657 z "},"g":{"ha":776,"x_min":44,"x_max":700,"o":"m 371 -292 q 275 -280 321 -292 q 192 -249 229 -268 q 134 -207 156 -229 q 113 -165 113 -185 q 119 -132 113 -146 q 138 -104 125 -118 q 165 -79 154 -87 q 193 -71 175 -71 q 223 -82 208 -71 q 257 -107 238 -93 q 304 -132 276 -121 q 375 -143 332 -143 q 442 -131 411 -143 q 494 -94 472 -118 q 528 -36 515 -69 q 540 39 540 -3 l 539 614 q 561 659 542 646 q 621 672 581 672 q 675 662 658 672 q 696 633 692 651 q 700 592 700 614 l 700 29 q 674 -107 700 -47 q 601 -208 647 -167 q 497 -270 556 -249 q 371 -292 438 -292 m 356 4 q 234 29 290 4 q 135 100 178 54 q 69 206 93 146 q 44 338 44 267 q 69 467 44 407 q 135 572 93 526 q 234 644 178 618 q 354 669 290 669 q 463 645 417 669 q 540 576 510 621 q 587 471 571 532 q 603 336 603 410 q 575 160 603 235 q 493 44 547 85 q 356 4 439 4 m 371 161 q 455 184 418 161 q 513 247 492 207 q 535 338 535 288 q 513 428 535 389 q 454 490 492 468 q 369 513 417 513 q 285 490 322 513 q 228 428 249 467 q 207 338 207 389 q 228 247 207 286 q 287 184 250 207 q 371 161 324 161 z "},"h":{"ha":757,"x_min":65,"x_max":706,"o":"m 147 -14 q 91 -2 108 -14 q 69 29 74 10 q 65 71 65 49 l 65 900 q 70 942 65 924 q 92 972 75 961 q 149 983 110 983 q 205 972 188 983 q 227 941 222 960 q 232 899 232 922 l 232 585 q 303 644 260 617 q 410 671 347 671 q 561 630 494 671 q 667 517 628 589 q 706 347 706 444 l 706 69 q 701 28 706 47 q 680 -1 697 10 q 624 -12 663 -12 q 567 -1 585 -12 q 544 28 549 10 q 540 72 540 47 l 540 349 q 524 433 540 397 q 474 490 507 469 q 393 510 442 510 q 283 472 328 510 q 232 374 239 433 l 232 69 q 227 28 232 47 q 205 -3 222 8 q 147 -14 188 -14 z "},"i":{"ha":324,"x_min":74,"x_max":251,"o":"m 161 -14 q 106 -2 124 -14 q 83 28 88 10 q 79 71 79 47 l 79 588 q 84 628 79 610 q 106 658 89 647 q 163 669 124 669 q 219 658 201 669 q 240 628 236 647 q 244 585 244 608 l 244 69 q 240 27 244 46 q 219 -3 236 8 q 161 -14 201 -14 m 161 804 q 102 816 121 804 q 78 849 83 828 q 74 894 74 869 q 78 940 74 921 q 103 972 83 960 q 163 983 122 983 q 222 971 204 983 q 246 938 240 958 q 251 892 251 918 q 246 847 251 868 q 222 815 240 826 q 161 804 204 804 z "},"ı":{"ha":294,"x_min":65,"x_max":231,"o":"m 147 -14 q 91 -2 108 -14 q 69 28 74 10 q 65 71 65 47 l 65 588 q 69 628 65 610 q 92 658 74 647 q 149 669 110 669 q 204 658 188 669 q 226 628 221 647 q 231 585 231 608 l 231 69 q 226 27 231 46 q 203 -3 221 8 q 147 -14 186 -14 z "},"í":{"ha":294,"x_min":29,"x_max":386,"o":"m 147 -14 q 91 -2 108 -14 q 69 28 74 10 q 65 71 65 47 l 65 588 q 69 628 65 610 q 92 658 74 647 q 149 669 110 669 q 204 658 188 669 q 226 628 221 647 q 231 585 231 608 l 231 69 q 226 27 231 46 q 203 -3 221 8 q 147 -14 186 -14 m 103 742 q 66 750 81 738 q 42 794 51 763 q 37 853 29 833 q 79 885 44 874 l 313 958 q 349 949 335 963 q 372 904 364 936 q 377 847 386 867 q 335 815 368 826 l 103 742 z "},"î":{"ha":294,"x_min":-87,"x_max":381,"o":"m 147 -14 q 91 -2 108 -14 q 69 28 74 10 q 65 71 65 47 l 65 588 q 69 628 65 610 q 92 658 74 647 q 149 669 110 669 q 204 658 188 669 q 226 628 221 647 q 231 585 231 608 l 231 69 q 226 27 231 46 q 203 -3 221 8 q 147 -14 186 -14 m 147 960 q 162 958 156 960 q 172 954 168 957 l 331 889 q 373 853 365 876 q 364 797 381 829 q 331 755 349 768 q 296 750 314 742 l 147 818 l -1 751 q -38 757 -21 743 q -71 799 -56 771 q -80 853 -87 831 q -39 889 -72 876 l 121 954 q 132 958 125 957 q 147 960 139 960 z "},"ï":{"ha":294,"x_min":-61,"x_max":367,"o":"m 147 -14 q 91 -2 108 -14 q 69 28 74 10 q 65 71 65 47 l 65 588 q 69 628 65 610 q 92 658 74 647 q 149 669 110 669 q 204 658 188 669 q 226 628 221 647 q 231 585 231 608 l 231 69 q 226 27 231 46 q 203 -3 221 8 q 147 -14 186 -14 m 278 772 q 217 785 235 772 q 194 819 199 799 q 190 861 190 840 q 194 903 190 883 q 217 936 199 924 q 279 949 235 949 q 342 935 324 949 q 363 902 360 922 q 367 860 367 882 q 363 819 367 839 q 342 785 360 799 q 278 772 324 772 m 28 772 q -35 785 -17 772 q -57 819 -53 799 q -61 861 -61 840 q -56 903 -60 883 q -35 936 -53 924 q 28 949 -17 949 q 90 935 72 949 q 112 902 108 922 q 115 860 115 882 q 112 819 115 839 q 90 785 108 799 q 28 772 72 772 z "},"ì":{"ha":294,"x_min":-75,"x_max":281,"o":"m 147 -14 q 91 -2 108 -14 q 69 28 74 10 q 65 71 65 47 l 65 588 q 69 628 65 610 q 92 658 74 647 q 149 669 110 669 q 204 658 188 669 q 226 628 221 647 q 231 585 231 608 l 231 69 q 226 27 231 46 q 203 -3 221 8 q 147 -14 186 -14 m 188 747 l -25 818 q -67 850 -60 831 q -64 907 -75 869 q -34 957 -51 947 q 18 957 -17 967 l 231 888 q 273 856 265 875 q 268 797 281 836 q 239 748 256 757 q 188 747 222 739 z "},"j":{"ha":331,"x_min":-140,"x_max":254,"o":"m -58 -290 q -98 -285 -79 -290 q -128 -264 -117 -281 q -140 -208 -140 -247 q -128 -156 -140 -172 q -98 -133 -117 -139 q -56 -128 -79 -128 q -6 -123 -31 -128 q 40 -103 19 -118 q 73 -60 61 -89 q 85 15 85 -32 l 85 596 q 90 634 85 617 q 113 662 94 651 q 168 672 131 672 q 222 661 206 672 q 244 631 239 650 q 249 589 249 611 l 249 13 q 223 -122 249 -64 q 154 -217 197 -179 q 56 -272 111 -254 q -58 -290 1 -290 m 165 806 q 97 825 115 806 q 78 896 78 844 q 97 964 78 946 q 167 982 115 982 q 235 963 217 982 q 254 893 254 944 q 235 824 254 843 q 165 806 217 806 z "},"k":{"ha":690,"x_min":75,"x_max":657,"o":"m 617 136 q 655 79 653 106 q 626 18 657 53 q 585 -17 603 -8 q 549 -17 567 -25 q 506 11 531 -10 l 240 235 l 240 69 q 235 28 240 47 q 213 -3 231 8 q 157 -14 196 -14 q 101 -2 118 -14 q 79 29 83 10 q 75 71 75 49 l 75 900 q 80 942 75 924 q 102 973 85 961 q 158 985 119 985 q 214 973 197 985 q 235 942 231 961 q 240 899 240 924 l 240 443 l 432 629 q 474 658 454 650 q 512 659 493 665 q 551 629 531 653 q 585 567 586 592 q 550 510 583 543 l 363 336 l 617 136 z "},"l":{"ha":404,"x_min":69,"x_max":376,"o":"m 311 -14 q 220 -7 260 -14 q 152 17 181 0 q 106 62 124 33 q 78 132 88 90 q 69 232 69 174 l 69 901 q 74 944 69 925 q 97 974 79 963 q 153 986 114 986 q 209 975 192 986 q 231 945 226 964 q 236 903 236 926 l 236 239 q 240 195 236 213 q 252 167 243 178 q 276 153 261 157 q 311 149 290 149 q 344 144 329 149 q 367 124 358 140 q 376 69 376 107 q 367 13 376 31 q 343 -10 358 -6 q 311 -14 328 -14 z "},"ł":{"ha":528,"x_min":8,"x_max":518,"o":"m 93 375 q 47 377 63 367 q 19 422 31 388 q 19 477 8 458 q 65 506 29 496 l 432 610 q 482 608 465 618 q 508 565 499 599 q 508 510 518 528 q 464 482 497 492 l 93 375 m 404 -14 q 313 -7 353 -14 q 245 17 274 0 q 199 62 217 33 q 172 132 181 90 q 163 232 163 174 l 163 901 q 167 944 163 925 q 190 974 172 963 q 246 986 207 986 q 302 975 285 986 q 324 945 319 964 q 329 903 329 926 l 329 239 q 333 195 329 213 q 345 167 336 178 q 369 153 354 157 q 404 149 383 149 q 437 144 422 149 q 460 124 451 140 q 469 69 469 107 q 460 13 469 31 q 436 -10 451 -6 q 404 -14 421 -14 z "},"m":{"ha":1131,"x_min":72,"x_max":1064,"o":"m 153 -12 q 98 -1 115 -12 q 76 29 81 10 q 72 71 72 49 l 72 590 q 76 631 72 613 q 99 660 81 649 q 156 671 117 671 q 215 654 196 671 q 233 601 233 638 l 221 563 q 244 596 228 578 q 285 632 261 614 q 340 661 310 650 q 404 672 371 672 q 488 657 450 672 q 556 613 526 642 q 608 542 586 583 q 661 608 632 578 q 729 655 690 638 q 817 672 768 672 q 952 632 897 672 q 1035 517 1007 592 q 1064 340 1064 443 l 1064 71 q 1059 28 1064 47 q 1037 -1 1054 10 q 981 -12 1019 -12 q 924 -1 942 -12 q 901 30 906 11 q 897 72 897 49 l 897 342 q 885 431 897 393 q 848 489 872 468 q 785 510 824 510 q 713 490 743 510 q 667 432 683 469 q 650 340 650 394 l 650 69 q 643 26 650 46 q 616 -5 636 6 q 558 -12 596 -15 q 508 1 524 -11 q 488 33 492 14 q 485 72 485 51 l 485 342 q 472 431 485 393 q 435 490 460 469 q 371 510 411 510 q 298 488 328 510 q 253 428 268 465 q 238 342 238 390 l 238 69 q 233 28 238 47 q 210 -2 228 8 q 153 -12 193 -12 z "},"n":{"ha":778,"x_min":74,"x_max":714,"o":"m 154 -12 q 99 -1 117 -12 q 78 30 82 11 q 74 72 74 49 l 74 592 q 78 632 74 614 q 100 660 82 650 q 156 671 118 671 q 206 663 189 671 q 228 642 222 654 q 234 617 233 629 q 236 597 235 604 l 231 553 q 258 596 239 575 q 306 634 278 617 q 366 662 333 651 q 433 672 399 672 q 550 649 499 672 q 638 582 601 625 q 694 480 675 539 q 714 347 714 421 l 714 71 q 709 28 714 47 q 688 -1 704 10 q 631 -12 671 -12 q 574 -1 592 -12 q 551 30 556 11 q 547 72 547 49 l 547 349 q 530 435 547 399 q 480 490 513 471 q 397 510 447 510 q 313 490 349 510 q 257 433 276 469 q 238 349 238 397 l 238 71 q 233 28 238 47 q 212 -1 229 10 q 154 -12 194 -12 z "},"ñ":{"ha":778,"x_min":74,"x_max":714,"o":"m 154 -12 q 99 -1 117 -12 q 78 30 82 11 q 74 72 74 49 l 74 592 q 78 632 74 614 q 100 660 82 650 q 156 671 118 671 q 206 663 189 671 q 228 642 222 654 q 234 617 233 629 q 236 597 235 604 l 231 553 q 258 596 239 575 q 306 634 278 617 q 366 662 333 651 q 433 672 399 672 q 550 649 499 672 q 638 582 601 625 q 694 480 675 539 q 714 347 714 421 l 714 71 q 709 28 714 47 q 688 -1 704 10 q 631 -12 671 -12 q 574 -1 592 -12 q 551 30 556 11 q 547 72 547 49 l 547 349 q 530 435 547 399 q 480 490 513 471 q 397 510 447 510 q 313 490 349 510 q 257 433 276 469 q 238 349 238 397 l 238 71 q 233 28 238 47 q 212 -1 229 10 q 154 -12 194 -12 m 317 960 q 374 943 351 960 q 413 910 396 926 q 447 894 431 894 q 474 906 463 894 q 498 929 486 917 q 525 947 510 942 q 549 953 535 954 q 578 943 564 953 q 614 907 606 925 q 610 865 622 889 q 578 814 601 839 q 523 774 554 789 q 458 760 492 760 q 405 776 428 760 q 363 808 382 792 q 325 825 344 825 q 281 813 299 825 q 254 786 263 800 q 231 767 244 772 q 190 781 217 763 q 157 821 163 801 q 168 865 151 840 q 207 912 182 890 q 261 947 232 933 q 317 960 290 960 z "},"o":{"ha":776,"x_min":38,"x_max":739,"o":"m 392 -22 q 262 3 325 -22 q 148 76 199 29 q 67 188 97 124 q 38 328 38 251 q 65 465 38 401 q 142 578 93 529 q 253 653 190 626 q 389 681 317 681 q 565 634 486 681 q 692 508 644 588 q 739 329 739 429 q 710 185 739 250 q 631 74 681 121 q 519 3 581 28 q 392 -22 457 -22 m 389 142 q 477 165 435 142 q 547 231 519 188 q 574 332 574 274 q 549 428 574 386 q 483 493 525 469 q 388 517 442 517 q 294 492 336 517 q 228 426 253 468 q 204 331 204 383 q 231 230 204 272 q 299 165 257 188 q 389 142 342 142 z "},"ó":{"ha":776,"x_min":38,"x_max":739,"o":"m 392 -22 q 262 3 325 -22 q 148 76 199 29 q 67 188 97 124 q 38 328 38 251 q 65 465 38 401 q 142 578 93 529 q 253 653 190 626 q 389 681 317 681 q 565 634 486 681 q 692 508 644 588 q 739 329 739 429 q 710 185 739 250 q 631 74 681 121 q 519 3 581 28 q 392 -22 457 -22 m 389 142 q 477 165 435 142 q 547 231 519 188 q 574 332 574 274 q 549 428 574 386 q 483 493 525 469 q 388 517 442 517 q 294 492 336 517 q 228 426 253 468 q 204 331 204 383 q 231 230 204 272 q 299 165 257 188 q 389 142 342 142 m 344 742 q 308 750 322 738 q 283 794 293 763 q 278 853 271 833 q 321 885 286 874 l 554 958 q 591 949 576 963 q 614 904 606 936 q 619 847 628 867 q 576 815 610 826 l 344 742 z "},"ô":{"ha":776,"x_min":38,"x_max":739,"o":"m 392 -22 q 262 3 325 -22 q 148 76 199 29 q 67 188 97 124 q 38 328 38 251 q 65 465 38 401 q 142 578 93 529 q 253 653 190 626 q 389 681 317 681 q 565 634 486 681 q 692 508 644 588 q 739 329 739 429 q 710 185 739 250 q 631 74 681 121 q 519 3 581 28 q 392 -22 457 -22 m 389 142 q 477 165 435 142 q 547 231 519 188 q 574 332 574 274 q 549 428 574 386 q 483 493 525 469 q 388 517 442 517 q 294 492 336 517 q 228 426 253 468 q 204 331 204 383 q 231 230 204 272 q 299 165 257 188 q 389 142 342 142 m 389 960 q 403 958 397 960 q 414 954 410 957 l 572 889 q 615 853 607 876 q 606 797 622 829 q 573 755 590 768 q 538 750 556 742 l 389 818 l 240 751 q 203 757 221 743 q 171 799 186 771 q 162 853 154 831 q 203 889 169 876 l 363 954 q 374 958 367 957 q 389 960 381 960 z "},"ö":{"ha":776,"x_min":38,"x_max":739,"o":"m 392 -22 q 262 3 325 -22 q 148 76 199 29 q 67 188 97 124 q 38 328 38 251 q 65 465 38 401 q 142 578 93 529 q 253 653 190 626 q 389 681 317 681 q 565 634 486 681 q 692 508 644 588 q 739 329 739 429 q 710 185 739 250 q 631 74 681 121 q 519 3 581 28 q 392 -22 457 -22 m 389 142 q 477 165 435 142 q 547 231 519 188 q 574 332 574 274 q 549 428 574 386 q 483 493 525 469 q 388 517 442 517 q 294 492 336 517 q 228 426 253 468 q 204 331 204 383 q 231 230 204 272 q 299 165 257 188 q 389 142 342 142 m 518 772 q 457 785 475 772 q 435 819 439 799 q 431 861 431 840 q 435 903 431 883 q 457 936 439 924 q 519 949 475 949 q 582 935 564 949 q 603 902 600 922 q 607 860 607 882 q 603 819 607 839 q 582 785 600 799 q 518 772 564 772 m 268 772 q 206 785 224 772 q 183 819 188 799 q 179 861 179 840 q 184 903 181 883 q 206 936 188 924 q 268 949 224 949 q 331 935 313 949 q 352 902 349 922 q 356 860 356 882 q 352 819 356 839 q 331 785 349 799 q 268 772 313 772 z "},"ò":{"ha":776,"x_min":38,"x_max":739,"o":"m 392 -22 q 262 3 325 -22 q 148 76 199 29 q 67 188 97 124 q 38 328 38 251 q 65 465 38 401 q 142 578 93 529 q 253 653 190 626 q 389 681 317 681 q 565 634 486 681 q 692 508 644 588 q 739 329 739 429 q 710 185 739 250 q 631 74 681 121 q 519 3 581 28 q 392 -22 457 -22 m 389 142 q 477 165 435 142 q 547 231 519 188 q 574 332 574 274 q 549 428 574 386 q 483 493 525 469 q 388 517 442 517 q 294 492 336 517 q 228 426 253 468 q 204 331 204 383 q 231 230 204 272 q 299 165 257 188 q 389 142 342 142 m 429 747 l 217 818 q 174 850 182 831 q 178 907 167 869 q 208 957 190 947 q 260 957 225 967 l 472 888 q 515 856 507 875 q 510 797 522 836 q 481 748 497 757 q 429 747 464 739 z "},"ø":{"ha":776,"x_min":38,"x_max":739,"o":"m 601 575 l 457 644 l 531 790 q 572 835 550 829 q 636 822 593 842 q 676 794 665 808 q 686 763 688 781 q 672 717 685 744 l 601 575 m 147 -160 q 99 -118 110 -140 q 110 -57 89 -96 l 182 89 l 322 13 l 254 -125 q 213 -172 235 -165 q 147 -160 190 -179 m 392 -22 q 262 3 325 -22 q 148 76 199 29 q 67 188 97 124 q 38 328 38 251 q 65 465 38 401 q 142 578 93 529 q 253 653 190 626 q 389 681 317 681 q 565 634 486 681 q 692 508 644 588 q 739 329 739 429 q 710 185 739 250 q 631 74 681 121 q 519 3 581 28 q 392 -22 457 -22 m 389 142 q 477 165 435 142 q 547 231 519 188 q 574 332 574 274 q 549 428 574 386 q 483 493 525 469 q 388 517 442 517 q 294 492 336 517 q 228 426 253 468 q 204 331 204 383 q 231 230 204 272 q 299 165 257 188 q 389 142 342 142 z "},"õ":{"ha":776,"x_min":38,"x_max":739,"o":"m 392 -22 q 262 3 325 -22 q 148 76 199 29 q 67 188 97 124 q 38 328 38 251 q 65 465 38 401 q 142 578 93 529 q 253 653 190 626 q 389 681 317 681 q 565 634 486 681 q 692 508 644 588 q 739 329 739 429 q 710 185 739 250 q 631 74 681 121 q 519 3 581 28 q 392 -22 457 -22 m 389 142 q 477 165 435 142 q 547 231 519 188 q 574 332 574 274 q 549 428 574 386 q 483 493 525 469 q 388 517 442 517 q 294 492 336 517 q 228 426 253 468 q 204 331 204 383 q 231 230 204 272 q 299 165 257 188 q 389 142 342 142 m 310 960 q 367 943 344 960 q 406 910 389 926 q 440 894 424 894 q 467 906 456 894 q 491 929 479 917 q 518 947 503 942 q 542 953 528 954 q 571 943 557 953 q 607 907 599 925 q 603 865 615 889 q 571 814 594 839 q 516 774 547 789 q 451 760 485 760 q 398 776 421 760 q 356 808 375 792 q 318 825 338 825 q 274 813 292 825 q 247 786 256 800 q 224 767 238 772 q 183 781 210 763 q 150 821 156 801 q 161 865 144 840 q 200 912 175 890 q 254 947 225 933 q 310 960 283 960 z "},"œ":{"ha":1265,"x_min":38,"x_max":1238,"o":"m 392 -22 q 262 3 325 -22 q 148 76 199 29 q 67 188 97 124 q 38 328 38 251 q 65 465 38 401 q 142 578 93 529 q 253 653 190 626 q 389 681 317 681 q 565 634 486 681 q 692 508 644 588 q 739 329 739 429 q 710 185 739 250 q 631 74 681 121 q 519 3 581 28 q 392 -22 457 -22 m 389 142 q 477 165 435 142 q 547 231 519 188 q 574 332 574 274 q 549 428 574 386 q 483 493 525 469 q 388 517 442 517 q 294 492 336 517 q 228 426 253 468 q 204 331 204 383 q 231 230 204 272 q 299 165 257 188 q 389 142 342 142 m 935 -24 q 776 6 844 -24 q 664 87 708 36 q 597 201 619 138 q 574 332 574 264 q 619 510 574 432 q 747 632 665 588 q 932 676 828 676 q 1064 653 1007 676 q 1160 591 1121 629 q 1218 507 1199 553 q 1238 418 1238 461 q 1203 308 1238 344 q 1115 272 1168 272 l 750 272 q 781 194 751 228 q 852 143 810 161 q 939 125 894 125 q 1001 129 975 125 q 1048 140 1028 133 q 1083 155 1068 147 q 1111 167 1099 163 q 1136 171 1124 171 q 1167 162 1154 171 q 1190 132 1181 153 q 1201 108 1197 118 q 1204 86 1204 97 q 1170 33 1204 58 q 1076 -8 1136 8 q 935 -24 1015 -24 m 749 378 l 1029 378 q 1065 384 1053 378 q 1076 415 1076 390 q 1058 471 1076 446 q 1008 511 1040 496 q 932 526 975 526 q 844 506 886 526 q 777 452 803 486 q 749 378 751 418 z "},"p":{"ha":782,"x_min":64,"x_max":738,"o":"m 424 -4 q 302 22 356 -4 q 212 94 249 47 q 156 201 175 140 q 138 333 138 263 q 158 466 139 404 q 215 574 178 528 q 304 646 251 619 q 424 672 357 672 q 544 646 488 672 q 644 572 600 619 q 713 463 688 525 q 738 331 738 401 q 713 197 738 258 q 644 91 688 136 q 544 21 601 46 q 424 -4 488 -4 m 146 -293 q 90 -282 108 -293 q 68 -253 72 -271 q 64 -211 64 -235 l 64 588 q 68 629 64 611 q 90 659 72 647 q 144 671 107 671 q 201 660 181 671 q 229 622 222 649 l 229 -210 q 226 -252 231 -233 q 203 -282 221 -271 q 146 -293 185 -293 m 401 151 q 489 174 450 151 q 551 238 528 197 q 574 331 574 279 q 551 424 574 383 q 489 487 528 464 q 401 510 450 510 q 315 486 354 510 q 253 423 276 463 q 231 331 231 383 q 253 238 231 279 q 315 174 276 197 q 401 151 354 151 z "},"þ":{"ha":778,"x_min":65,"x_max":736,"o":"m 422 -4 q 301 22 354 -4 q 210 94 247 47 q 154 201 174 140 q 136 333 135 263 q 156 466 136 404 q 212 574 175 528 q 301 646 249 619 q 422 672 354 672 q 542 646 485 672 q 642 572 599 619 q 711 463 686 525 q 736 331 736 401 q 711 197 736 258 q 642 91 686 136 q 542 21 599 46 q 422 -4 486 -4 m 144 -292 q 90 -281 107 -292 q 69 -251 74 -269 q 65 -208 65 -232 l 65 908 q 69 951 65 932 q 90 981 74 969 q 144 992 107 992 q 197 981 181 992 q 219 951 214 969 q 224 908 224 932 l 224 -210 q 219 -251 224 -232 q 199 -281 215 -269 q 144 -292 182 -292 m 399 151 q 486 174 447 151 q 548 238 525 197 q 571 331 571 279 q 549 424 571 383 q 488 487 526 464 q 400 510 449 510 q 313 486 351 510 q 251 423 274 463 q 229 331 229 383 q 252 238 229 279 q 313 174 275 197 q 399 151 351 151 z "},"q":{"ha":778,"x_min":39,"x_max":713,"o":"m 353 -4 q 232 21 289 -4 q 132 91 175 46 q 64 197 89 136 q 39 331 39 258 q 64 463 39 401 q 133 572 89 525 q 233 646 176 619 q 353 672 290 672 q 472 646 419 672 q 562 574 525 619 q 618 466 599 528 q 639 333 638 404 q 620 201 639 263 q 565 94 601 140 q 474 22 528 47 q 353 -4 421 -4 m 375 151 q 461 174 422 151 q 523 238 500 197 q 546 331 546 279 q 523 423 546 383 q 462 486 500 463 q 375 510 424 510 q 288 487 326 510 q 226 424 249 464 q 203 331 203 383 q 226 238 203 279 q 288 174 249 197 q 375 151 328 151 m 631 -293 q 574 -282 592 -293 q 551 -252 556 -271 q 547 -210 547 -233 l 547 622 q 563 651 553 640 q 591 666 574 661 q 632 671 608 671 q 687 659 669 671 q 708 629 704 647 q 713 588 713 611 l 713 -211 q 708 -253 713 -235 q 687 -282 704 -271 q 631 -293 669 -293 z "},"r":{"ha":576,"x_min":74,"x_max":538,"o":"m 154 -14 q 99 -2 117 -14 q 78 29 82 10 q 74 72 74 49 l 74 588 q 78 631 74 613 q 99 660 82 650 q 156 671 117 671 q 210 661 193 671 q 233 637 228 651 q 238 608 238 622 l 226 583 q 246 610 233 594 q 279 642 258 626 q 329 669 300 658 q 399 679 358 679 q 434 676 415 679 q 472 666 453 672 q 506 650 490 660 q 529 627 521 640 q 538 597 538 614 q 515 522 538 553 q 463 492 493 492 q 432 496 442 492 q 416 506 422 500 q 398 515 410 511 q 361 519 386 519 q 319 513 340 519 q 279 492 297 506 q 250 456 261 478 q 239 407 239 435 l 239 69 q 235 27 239 46 q 213 -3 231 8 q 154 -14 194 -14 z "},"s":{"ha":638,"x_min":51,"x_max":589,"o":"m 310 -22 q 233 -15 274 -22 q 156 8 193 -7 q 91 42 118 22 q 57 88 64 63 q 53 115 51 101 q 61 142 54 128 q 82 172 68 157 q 108 190 94 188 q 142 181 121 192 q 181 163 160 174 q 226 140 203 151 q 273 122 249 129 q 321 115 297 115 q 403 133 372 115 q 433 182 433 150 q 424 214 433 200 q 398 237 414 228 q 360 253 382 246 q 315 267 339 261 q 264 282 290 274 q 194 306 229 292 q 133 342 160 319 q 89 397 106 364 q 72 481 72 431 q 102 587 72 543 q 189 654 132 631 q 326 678 246 678 q 380 674 354 678 q 430 662 406 669 q 477 643 454 654 q 521 618 500 632 q 557 573 556 599 q 538 518 558 547 q 507 491 522 499 q 475 490 492 483 q 427 515 453 501 q 374 538 401 528 q 318 547 347 547 q 268 539 290 547 q 235 515 246 531 q 224 479 224 500 q 235 447 224 460 q 264 426 246 435 q 307 412 282 418 q 360 400 332 406 q 439 379 399 392 q 513 344 479 367 q 568 285 547 322 q 589 190 589 249 q 515 33 589 89 q 310 -22 440 -22 z "},"š":{"ha":638,"x_min":51,"x_max":589,"o":"m 310 -22 q 233 -15 274 -22 q 156 8 193 -7 q 91 42 118 22 q 57 88 64 63 q 53 115 51 101 q 61 142 54 128 q 82 172 68 157 q 108 190 94 188 q 142 181 121 192 q 181 163 160 174 q 226 140 203 151 q 273 122 249 129 q 321 115 297 115 q 403 133 372 115 q 433 182 433 150 q 424 214 433 200 q 398 237 414 228 q 360 253 382 246 q 315 267 339 261 q 264 282 290 274 q 194 306 229 292 q 133 342 160 319 q 89 397 106 364 q 72 481 72 431 q 102 587 72 543 q 189 654 132 631 q 326 678 246 678 q 380 674 354 678 q 430 662 406 669 q 477 643 454 654 q 521 618 500 632 q 557 573 556 599 q 538 518 558 547 q 507 491 522 499 q 475 490 492 483 q 427 515 453 501 q 374 538 401 528 q 318 547 347 547 q 268 539 290 547 q 235 515 246 531 q 224 479 224 500 q 235 447 224 460 q 264 426 246 435 q 307 412 282 418 q 360 400 332 406 q 439 379 399 392 q 513 344 479 367 q 568 285 547 322 q 589 190 589 249 q 515 33 589 89 q 310 -22 440 -22 m 321 888 l 440 947 q 471 957 454 954 q 505 951 488 960 q 539 908 522 942 q 547 852 556 875 q 506 817 539 829 l 347 751 q 335 748 342 750 q 321 746 329 746 q 306 748 313 746 q 296 751 300 750 l 138 817 q 97 852 106 829 q 104 907 88 875 q 137 949 121 939 q 167 958 153 960 q 194 950 182 956 l 321 888 z "},"ß":{"ha":814,"x_min":72,"x_max":765,"o":"m 153 -42 q 98 -31 115 -42 q 76 -1 81 -19 q 72 42 72 18 l 72 660 q 107 830 72 763 q 212 931 142 897 q 389 964 282 964 q 530 938 474 964 q 615 870 586 913 q 643 778 643 828 q 626 682 643 719 q 588 619 610 644 q 550 572 567 593 q 533 528 533 551 q 557 480 533 499 q 615 442 581 461 q 684 398 650 424 q 742 331 718 372 q 765 222 765 289 q 749 125 765 168 q 700 53 732 82 q 624 8 668 24 q 522 -8 579 -8 q 448 0 485 -8 q 379 22 411 8 q 334 46 350 31 q 322 96 318 61 q 333 138 325 118 q 356 170 342 158 q 389 178 371 182 q 426 165 407 175 q 465 148 444 156 q 508 140 486 140 q 558 150 536 140 q 594 181 581 160 q 608 239 608 203 q 585 292 608 271 q 527 333 561 314 q 459 376 493 353 q 401 431 425 399 q 378 510 378 463 q 394 594 378 563 q 430 649 410 626 q 465 694 450 671 q 481 756 481 718 q 471 788 481 774 q 441 810 461 801 q 390 818 421 818 q 315 807 344 818 q 268 776 286 796 q 243 730 250 757 q 236 671 236 703 l 236 39 q 231 -1 236 17 q 209 -31 226 -19 q 153 -42 192 -42 z "},"t":{"ha":547,"x_min":32,"x_max":515,"o":"m 410 -14 q 293 0 342 -14 q 214 43 244 14 q 169 119 183 72 q 154 229 154 165 l 154 818 q 159 861 154 843 q 181 890 164 879 q 236 900 199 900 q 292 889 275 900 q 315 859 310 878 q 319 818 319 840 l 319 235 q 324 188 319 206 q 340 160 329 169 q 367 148 350 151 q 410 144 385 144 q 455 140 436 144 q 483 120 474 136 q 493 68 493 104 q 481 12 493 29 q 451 -10 469 -6 q 410 -14 432 -14 m 97 657 l 240 656 l 432 661 q 474 656 456 661 q 504 634 493 651 q 515 578 515 617 q 504 524 515 542 q 475 501 493 506 q 433 496 457 496 l 247 499 l 93 497 q 45 517 58 499 q 32 579 32 536 q 48 638 32 619 q 97 657 64 657 z "},"u":{"ha":765,"x_min":60,"x_max":700,"o":"m 356 -12 q 238 10 292 -12 q 144 76 185 33 q 82 179 104 119 q 60 311 60 239 l 60 588 q 64 630 60 611 q 86 660 68 649 q 142 671 104 671 q 199 660 182 671 q 221 629 217 649 q 225 586 225 610 l 225 311 q 242 225 225 261 q 293 169 260 189 q 375 149 326 149 q 460 169 425 149 q 515 226 496 189 q 535 311 535 263 l 535 589 q 539 631 535 613 q 561 660 543 650 q 618 671 579 671 q 674 660 657 671 q 695 629 690 649 q 700 588 700 610 l 700 67 q 695 28 700 46 q 673 -1 690 10 q 617 -12 656 -12 q 573 -6 589 -12 q 549 10 557 0 q 540 32 542 21 q 538 54 538 43 l 549 92 q 524 62 540 79 q 483 27 507 44 q 426 -1 458 10 q 356 -12 394 -12 z "},"ú":{"ha":765,"x_min":60,"x_max":700,"o":"m 356 -12 q 238 10 292 -12 q 144 76 185 33 q 82 179 104 119 q 60 311 60 239 l 60 588 q 64 630 60 611 q 86 660 68 649 q 142 671 104 671 q 199 660 182 671 q 221 629 217 649 q 225 586 225 610 l 225 311 q 242 225 225 261 q 293 169 260 189 q 375 149 326 149 q 460 169 425 149 q 515 226 496 189 q 535 311 535 263 l 535 589 q 539 631 535 613 q 561 660 543 650 q 618 671 579 671 q 674 660 657 671 q 695 629 690 649 q 700 588 700 610 l 700 67 q 695 28 700 46 q 673 -1 690 10 q 617 -12 656 -12 q 573 -6 589 -12 q 549 10 557 0 q 540 32 542 21 q 538 54 538 43 l 549 92 q 524 62 540 79 q 483 27 507 44 q 426 -1 458 10 q 356 -12 394 -12 m 338 742 q 301 750 315 738 q 276 794 286 763 q 272 853 264 833 q 314 885 279 874 l 547 958 q 584 949 569 963 q 607 904 599 936 q 612 847 621 867 q 569 815 603 826 l 338 742 z "},"û":{"ha":765,"x_min":60,"x_max":700,"o":"m 356 -12 q 238 10 292 -12 q 144 76 185 33 q 82 179 104 119 q 60 311 60 239 l 60 588 q 64 630 60 611 q 86 660 68 649 q 142 671 104 671 q 199 660 182 671 q 221 629 217 649 q 225 586 225 610 l 225 311 q 242 225 225 261 q 293 169 260 189 q 375 149 326 149 q 460 169 425 149 q 515 226 496 189 q 535 311 535 263 l 535 589 q 539 631 535 613 q 561 660 543 650 q 618 671 579 671 q 674 660 657 671 q 695 629 690 649 q 700 588 700 610 l 700 67 q 695 28 700 46 q 673 -1 690 10 q 617 -12 656 -12 q 573 -6 589 -12 q 549 10 557 0 q 540 32 542 21 q 538 54 538 43 l 549 92 q 524 62 540 79 q 483 27 507 44 q 426 -1 458 10 q 356 -12 394 -12 m 382 960 q 397 958 390 960 q 407 954 403 957 l 565 889 q 608 853 600 876 q 599 797 615 829 q 566 755 583 768 q 531 750 549 742 l 382 818 l 233 751 q 197 757 214 743 q 164 799 179 771 q 155 853 147 831 q 196 889 163 876 l 356 954 q 367 958 360 957 q 382 960 374 960 z "},"ü":{"ha":765,"x_min":60,"x_max":700,"o":"m 356 -12 q 238 10 292 -12 q 144 76 185 33 q 82 179 104 119 q 60 311 60 239 l 60 588 q 64 630 60 611 q 86 660 68 649 q 142 671 104 671 q 199 660 182 671 q 221 629 217 649 q 225 586 225 610 l 225 311 q 242 225 225 261 q 293 169 260 189 q 375 149 326 149 q 460 169 425 149 q 515 226 496 189 q 535 311 535 263 l 535 589 q 539 631 535 613 q 561 660 543 650 q 618 671 579 671 q 674 660 657 671 q 695 629 690 649 q 700 588 700 610 l 700 67 q 695 28 700 46 q 673 -1 690 10 q 617 -12 656 -12 q 573 -6 589 -12 q 549 10 557 0 q 540 32 542 21 q 538 54 538 43 l 549 92 q 524 62 540 79 q 483 27 507 44 q 426 -1 458 10 q 356 -12 394 -12 m 513 772 q 451 785 469 772 q 429 819 433 799 q 425 861 425 840 q 429 903 425 883 q 451 936 433 924 q 514 949 469 949 q 576 935 558 949 q 598 902 594 922 q 601 860 601 882 q 598 819 601 839 q 576 785 594 799 q 513 772 558 772 m 263 772 q 200 785 218 772 q 178 819 182 799 q 174 861 174 840 q 178 903 175 883 q 200 936 182 924 q 263 949 218 949 q 325 935 307 949 q 347 902 343 922 q 350 860 350 882 q 347 819 350 839 q 325 785 343 799 q 263 772 307 772 z "},"ù":{"ha":765,"x_min":60,"x_max":700,"o":"m 356 -12 q 238 10 292 -12 q 144 76 185 33 q 82 179 104 119 q 60 311 60 239 l 60 588 q 64 630 60 611 q 86 660 68 649 q 142 671 104 671 q 199 660 182 671 q 221 629 217 649 q 225 586 225 610 l 225 311 q 242 225 225 261 q 293 169 260 189 q 375 149 326 149 q 460 169 425 149 q 515 226 496 189 q 535 311 535 263 l 535 589 q 539 631 535 613 q 561 660 543 650 q 618 671 579 671 q 674 660 657 671 q 695 629 690 649 q 700 588 700 610 l 700 67 q 695 28 700 46 q 673 -1 690 10 q 617 -12 656 -12 q 573 -6 589 -12 q 549 10 557 0 q 540 32 542 21 q 538 54 538 43 l 549 92 q 524 62 540 79 q 483 27 507 44 q 426 -1 458 10 q 356 -12 394 -12 m 422 747 l 210 818 q 167 850 175 831 q 171 907 160 869 q 201 957 183 947 q 253 957 218 967 l 465 888 q 508 856 500 875 q 503 797 515 836 q 474 748 490 757 q 422 747 457 739 z "},"v":{"ha":765,"x_min":29,"x_max":731,"o":"m 382 -17 q 333 -7 353 -17 q 303 25 314 3 l 50 554 q 39 621 29 596 q 89 665 49 646 q 156 679 131 686 q 200 628 181 672 l 382 201 l 561 619 q 606 677 581 665 q 678 665 631 689 q 728 613 725 642 q 713 549 731 585 l 461 25 q 431 -6 450 4 q 382 -17 411 -17 z "},"w":{"ha":1049,"x_min":29,"x_max":1029,"o":"m 322 -12 q 278 -2 294 -12 q 255 24 263 8 q 242 51 247 39 l 38 568 q 30 613 29 594 q 44 644 31 631 q 83 667 57 657 q 153 676 128 685 q 192 629 179 668 l 324 279 l 443 614 q 456 640 447 626 q 480 665 464 654 q 524 675 496 675 q 569 665 553 675 q 595 640 586 654 q 607 614 604 626 l 726 276 l 853 617 q 894 674 869 660 q 963 671 919 688 q 1015 630 1001 654 q 1013 567 1029 606 l 807 51 q 794 23 801 38 q 770 -2 786 8 q 728 -12 754 -12 q 684 -3 700 -12 q 660 21 668 6 q 646 53 651 36 l 525 396 l 404 53 q 389 18 396 33 q 367 -5 382 3 q 322 -12 351 -12 z "},"x":{"ha":707,"x_min":35,"x_max":672,"o":"m 631 651 q 665 610 657 628 q 665 573 672 592 q 633 528 657 554 l 193 18 q 151 -16 169 -7 q 116 -18 133 -25 q 75 8 99 -11 q 43 49 51 32 q 44 86 35 67 q 75 131 53 106 l 515 640 q 573 681 550 678 q 631 651 596 683 m 76 651 q 117 678 100 672 q 152 674 135 683 q 192 640 169 665 l 632 131 q 664 86 656 106 q 665 49 672 67 q 632 8 658 32 q 591 -19 608 -12 q 556 -16 574 -25 q 514 18 539 -7 l 74 528 q 43 572 51 553 q 43 610 35 592 q 76 651 51 629 z "},"y":{"ha":754,"x_min":28,"x_max":732,"o":"m 244 -287 q 193 -244 200 -268 q 206 -179 186 -219 l 564 624 q 606 677 583 668 q 674 667 628 686 q 724 624 717 647 q 714 560 732 600 l 353 -247 q 313 -299 335 -292 q 244 -287 290 -307 m 374 53 l 53 546 q 33 608 28 583 q 76 657 38 633 q 144 678 119 683 q 193 633 168 672 l 447 238 l 374 53 z "},"ý":{"ha":754,"x_min":28,"x_max":732,"o":"m 244 -287 q 193 -244 200 -268 q 206 -179 186 -219 l 564 624 q 606 677 583 668 q 674 667 628 686 q 724 624 717 647 q 714 560 732 600 l 353 -247 q 313 -299 335 -292 q 244 -287 290 -307 m 374 53 l 53 546 q 33 608 28 583 q 76 657 38 633 q 144 678 119 683 q 193 633 168 672 l 447 238 l 374 53 m 338 742 q 301 750 315 738 q 276 794 286 763 q 272 853 264 833 q 314 885 279 874 l 547 958 q 584 949 569 963 q 607 904 599 936 q 612 847 621 867 q 569 815 603 826 l 338 742 z "},"ÿ":{"ha":754,"x_min":28,"x_max":732,"o":"m 244 -287 q 193 -244 200 -268 q 206 -179 186 -219 l 564 624 q 606 677 583 668 q 674 667 628 686 q 724 624 717 647 q 714 560 732 600 l 353 -247 q 313 -299 335 -292 q 244 -287 290 -307 m 374 53 l 53 546 q 33 608 28 583 q 76 657 38 633 q 144 678 119 683 q 193 633 168 672 l 447 238 l 374 53 m 513 772 q 451 785 469 772 q 429 819 433 799 q 425 861 425 840 q 429 903 425 883 q 451 936 433 924 q 514 949 469 949 q 576 935 558 949 q 598 902 594 922 q 601 860 601 882 q 598 819 601 839 q 576 785 594 799 q 513 772 558 772 m 263 772 q 200 785 218 772 q 178 819 182 799 q 174 861 174 840 q 178 903 175 883 q 200 936 182 924 q 263 949 218 949 q 325 935 307 949 q 347 902 343 922 q 350 860 350 882 q 347 819 350 839 q 325 785 343 799 q 263 772 307 772 z "},"z":{"ha":744,"x_min":42,"x_max":704,"o":"m 124 -14 q 64 9 86 -14 q 42 68 42 32 q 48 103 42 88 q 67 131 54 118 l 429 504 l 156 504 q 114 509 133 504 q 83 531 94 514 q 71 588 71 549 q 83 644 71 626 q 114 666 94 661 q 156 671 133 671 l 604 671 q 663 649 640 671 q 686 590 686 626 q 680 556 686 572 q 664 531 674 540 l 306 153 l 621 153 q 663 148 644 153 q 693 125 682 143 q 704 68 704 107 q 692 13 704 31 q 662 -10 681 -6 q 619 -14 643 -14 l 124 -14 z "},"ž":{"ha":744,"x_min":42,"x_max":704,"o":"m 124 -14 q 64 9 86 -14 q 42 68 42 32 q 48 103 42 88 q 67 131 54 118 l 429 504 l 156 504 q 114 509 133 504 q 83 531 94 514 q 71 588 71 549 q 83 644 71 626 q 114 666 94 661 q 156 671 133 671 l 604 671 q 663 649 640 671 q 686 590 686 626 q 680 556 686 572 q 664 531 674 540 l 306 153 l 621 153 q 663 148 644 153 q 693 125 682 143 q 704 68 704 107 q 692 13 704 31 q 662 -10 681 -6 q 619 -14 643 -14 l 124 -14 m 371 888 l 490 947 q 521 957 504 954 q 555 951 538 960 q 589 908 572 942 q 597 852 606 875 q 556 817 589 829 l 397 751 q 385 748 392 750 q 371 746 379 746 q 356 748 363 746 q 346 751 350 750 l 188 817 q 147 852 156 829 q 154 907 138 875 q 187 949 171 939 q 217 958 203 960 q 244 950 232 956 l 371 888 z "},"ﬁ":{"ha":858,"x_min":31,"x_max":779,"o":"m 233 -14 q 178 -3 196 -14 q 157 28 161 8 q 153 71 153 49 l 153 746 q 167 841 153 797 q 211 917 181 885 q 290 967 242 949 q 408 986 339 986 q 451 981 432 986 q 481 960 469 976 q 493 903 493 943 q 481 847 493 865 q 450 825 469 829 q 407 821 431 821 q 366 819 383 821 q 338 810 349 817 q 323 788 328 803 q 318 749 318 772 l 318 68 q 313 27 318 46 q 290 -3 308 8 q 233 -14 272 -14 m 96 657 l 239 656 l 431 661 q 473 656 454 661 q 503 634 492 651 q 514 578 514 617 q 503 524 514 542 q 474 501 492 506 q 432 496 456 496 l 246 499 l 92 497 q 44 517 57 499 q 31 579 31 536 q 47 638 31 619 q 96 657 63 657 m 689 -14 q 633 -2 651 -14 q 611 28 615 10 q 607 71 607 47 l 607 588 q 612 628 607 610 q 634 658 617 647 q 690 669 651 669 q 747 658 729 669 q 768 628 764 647 q 772 585 772 608 l 772 69 q 768 27 772 46 q 747 -3 764 8 q 689 -14 729 -14 m 689 804 q 630 816 649 804 q 606 849 611 828 q 601 894 601 869 q 606 940 601 921 q 631 972 611 960 q 690 983 650 983 q 750 971 732 983 q 774 938 768 958 q 779 892 779 918 q 774 847 779 868 q 750 815 768 826 q 689 804 732 804 z "},"ﬂ":{"ha":953,"x_min":31,"x_max":910,"o":"m 233 -14 q 178 -3 196 -14 q 157 28 161 8 q 153 71 153 49 l 153 746 q 167 841 153 797 q 211 917 181 885 q 290 967 242 949 q 408 986 339 986 q 451 981 432 986 q 481 960 469 976 q 493 903 493 943 q 481 847 493 865 q 450 825 469 829 q 407 821 431 821 q 366 819 383 821 q 338 810 349 817 q 323 788 328 803 q 318 749 318 772 l 318 68 q 313 27 318 46 q 290 -3 308 8 q 233 -14 272 -14 m 96 657 l 239 656 l 431 661 q 473 656 454 661 q 503 634 492 651 q 514 578 514 617 q 503 524 514 542 q 474 501 492 506 q 432 496 456 496 l 246 499 l 92 497 q 44 517 57 499 q 31 579 31 536 q 47 638 31 619 q 96 657 63 657 m 844 -14 q 753 -7 793 -14 q 685 17 714 0 q 639 62 657 33 q 612 132 621 90 q 603 232 603 174 l 603 901 q 608 944 603 925 q 630 974 613 963 q 686 986 647 986 q 742 975 725 986 q 765 945 760 964 q 769 903 769 926 l 769 239 q 773 195 769 213 q 785 167 776 178 q 809 153 794 157 q 844 149 824 149 q 877 144 863 149 q 901 124 892 140 q 910 69 910 107 q 901 13 910 31 q 876 -10 892 -6 q 844 -14 861 -14 z "},"ª":{"ha":597,"x_min":28,"x_max":543,"o":"m 478 944 q 522 935 508 944 q 539 909 535 925 q 543 872 543 893 l 543 497 q 539 462 543 478 q 521 437 535 446 q 476 428 507 428 q 428 442 443 428 q 411 489 413 456 l 425 510 q 390 467 414 486 q 336 437 367 447 q 268 426 306 426 q 148 462 203 426 q 60 556 93 497 q 28 689 28 615 q 61 818 28 760 q 149 910 94 876 q 268 944 203 944 q 335 933 306 944 q 387 906 365 922 q 422 869 408 889 l 410 879 q 426 929 411 914 q 478 944 442 944 m 289 557 q 349 574 324 557 q 390 619 375 590 q 406 686 406 649 q 390 754 406 725 q 348 800 375 783 q 286 817 321 817 q 195 779 231 817 q 160 683 160 742 q 176 619 160 647 q 222 574 193 590 q 289 557 251 557 z "},"º":{"ha":589,"x_min":46,"x_max":560,"o":"m 306 418 q 173 452 232 418 q 80 545 114 486 q 46 678 46 604 q 80 813 46 754 q 172 906 114 872 q 304 940 231 940 q 435 907 378 940 q 526 815 493 874 q 560 679 560 756 q 526 544 560 604 q 436 451 493 485 q 306 418 379 418 m 304 549 q 392 585 358 549 q 426 682 426 622 q 393 775 426 740 q 303 810 360 810 q 214 774 249 810 q 179 681 179 738 q 214 585 179 622 q 304 549 249 549 z "},"א":{"ha":890,"x_min":51,"x_max":836,"o":"m 792 1 q 739 -23 760 -22 q 703 -11 718 -24 q 674 18 689 1 l 143 656 q 115 698 126 678 q 110 740 104 718 q 150 786 115 761 q 203 810 182 811 q 241 794 224 810 q 276 754 258 778 l 807 117 q 828 82 821 100 q 829 44 836 64 q 792 1 822 25 m 115 -10 q 65 16 78 -1 q 52 56 51 33 q 60 103 53 78 l 213 619 l 351 556 l 221 61 q 204 13 214 32 q 175 -13 194 -7 q 115 -10 156 -19 m 617 235 l 551 308 l 664 731 q 681 775 671 756 q 712 802 690 794 q 774 797 733 810 q 823 768 811 786 q 831 728 835 750 q 821 681 828 707 l 738 374 q 713 323 728 344 q 674 282 697 301 q 617 235 651 263 z "},"אַ":{"ha":890,"x_min":51,"x_max":836,"o":"m 792 1 q 739 -23 760 -22 q 703 -11 718 -24 q 674 18 689 1 l 143 656 q 115 698 126 678 q 110 740 104 718 q 150 786 115 761 q 203 810 182 811 q 241 794 224 810 q 276 754 258 778 l 807 117 q 828 82 821 100 q 829 44 836 64 q 792 1 822 25 m 115 -10 q 65 16 78 -1 q 52 56 51 33 q 60 103 53 78 l 213 619 l 351 556 l 221 61 q 204 13 214 32 q 175 -13 194 -7 q 115 -10 156 -19 m 617 235 l 551 308 l 664 731 q 681 775 671 756 q 712 802 690 794 q 774 797 733 810 q 823 768 811 786 q 831 728 835 750 q 821 681 828 707 l 738 374 q 713 323 728 344 q 674 282 697 301 q 617 235 651 263 m 382 -165 q 342 -125 342 -165 l 342 -119 q 352 -90 342 -101 q 382 -79 363 -79 l 538 -79 q 576 -119 576 -79 l 576 -125 q 538 -165 576 -165 l 382 -165 z "},"אָ":{"ha":890,"x_min":51,"x_max":836,"o":"m 792 1 q 739 -23 760 -22 q 703 -11 718 -24 q 674 18 689 1 l 143 656 q 115 698 126 678 q 110 740 104 718 q 150 786 115 761 q 203 810 182 811 q 241 794 224 810 q 276 754 258 778 l 807 117 q 828 82 821 100 q 829 44 836 64 q 792 1 822 25 m 115 -10 q 65 16 78 -1 q 52 56 51 33 q 60 103 53 78 l 213 619 l 351 556 l 221 61 q 204 13 214 32 q 175 -13 194 -7 q 115 -10 156 -19 m 617 235 l 551 308 l 664 731 q 681 775 671 756 q 712 802 690 794 q 774 797 733 810 q 823 768 811 786 q 831 728 835 750 q 821 681 828 707 l 738 374 q 713 323 728 344 q 674 282 697 301 q 617 235 651 263 m 457 -312 q 426 -301 436 -312 q 418 -269 417 -289 l 432 -165 l 368 -165 q 328 -125 328 -165 l 328 -119 q 339 -90 328 -101 q 368 -79 350 -79 l 550 -79 q 580 -90 569 -79 q 590 -119 590 -101 l 590 -125 q 550 -165 590 -165 l 486 -165 l 497 -271 q 490 -301 500 -289 q 461 -312 481 -312 l 457 -312 z "},"אּ":{"ha":890,"x_min":51,"x_max":836,"o":"m 792 1 q 739 -23 760 -22 q 703 -11 718 -24 q 674 18 689 1 l 143 656 q 115 698 126 678 q 110 740 104 718 q 150 786 115 761 q 203 810 182 811 q 241 794 224 810 q 276 754 258 778 l 807 117 q 828 82 821 100 q 829 44 836 64 q 792 1 822 25 m 115 -10 q 65 16 78 -1 q 52 56 51 33 q 60 103 53 78 l 213 619 l 351 556 l 221 61 q 204 13 214 32 q 175 -13 194 -7 q 115 -10 156 -19 m 617 235 l 551 308 l 664 731 q 681 775 671 756 q 712 802 690 794 q 774 797 733 810 q 823 768 811 786 q 831 728 835 750 q 821 681 828 707 l 738 374 q 713 323 728 344 q 674 282 697 301 q 617 235 651 263 m 401 82 q 365 99 379 82 q 350 139 350 115 q 366 177 350 161 q 401 193 382 193 q 438 177 422 193 q 454 139 454 161 q 440 99 454 115 q 401 82 425 82 z "},"ב":{"ha":874,"x_min":68,"x_max":819,"o":"m 619 -14 q 565 -3 583 -14 q 542 25 547 7 q 536 63 536 43 l 536 367 q 522 488 536 436 q 478 574 507 539 q 408 625 450 608 q 307 642 365 642 l 168 642 q 125 647 144 642 q 94 671 106 653 q 82 726 82 689 q 94 783 82 765 q 125 805 106 800 q 167 810 144 810 l 303 810 q 478 783 403 810 q 603 701 553 756 q 678 563 653 646 q 703 371 703 481 l 703 72 q 698 29 703 49 q 676 -2 693 10 q 619 -14 658 -14 m 154 -14 q 111 -8 131 -14 q 80 15 92 -3 q 68 71 68 33 q 80 127 68 110 q 111 149 92 144 q 153 154 131 154 l 735 154 q 777 149 758 154 q 808 127 796 144 q 819 71 819 110 q 808 15 819 33 q 776 -8 796 -3 q 733 -14 757 -14 l 154 -14 z "},"בּ":{"ha":874,"x_min":68,"x_max":819,"o":"m 619 -14 q 565 -3 583 -14 q 542 25 547 7 q 536 63 536 43 l 536 367 q 522 488 536 436 q 478 574 507 539 q 408 625 450 608 q 307 642 365 642 l 168 642 q 125 647 144 642 q 94 671 106 653 q 82 726 82 689 q 94 783 82 765 q 125 805 106 800 q 167 810 144 810 l 303 810 q 478 783 403 810 q 603 701 553 756 q 678 563 653 646 q 703 371 703 481 l 703 72 q 698 29 703 49 q 676 -2 693 10 q 619 -14 658 -14 m 154 -14 q 111 -8 131 -14 q 80 15 92 -3 q 68 71 68 33 q 80 127 68 110 q 111 149 92 144 q 153 154 131 154 l 735 154 q 777 149 758 154 q 808 127 796 144 q 819 71 819 110 q 808 15 819 33 q 776 -8 796 -3 q 733 -14 757 -14 l 154 -14 m 285 360 q 248 376 263 360 q 233 417 233 393 q 249 455 233 439 q 285 471 265 471 q 322 455 306 471 q 338 417 338 439 q 323 376 338 393 q 285 360 308 360 z "},"ג":{"ha":621,"x_min":38,"x_max":568,"o":"m 476 -12 q 423 -2 440 -12 q 401 26 406 8 q 393 64 396 43 l 346 432 q 336 516 340 478 q 323 583 332 554 q 297 629 314 613 q 244 647 279 646 q 191 650 213 649 q 156 657 169 651 q 135 679 142 665 q 129 715 129 693 l 132 758 q 149 801 135 788 q 207 813 164 814 q 229 812 211 813 q 265 810 247 811 q 376 781 333 806 q 442 713 418 756 q 478 611 465 669 q 503 481 492 553 l 561 71 q 547 8 568 29 q 476 -12 526 -12 m 138 -8 q 88 -8 110 -11 q 53 10 65 -6 q 39 58 40 25 q 51 128 38 110 q 103 149 64 147 q 172 158 138 150 q 239 179 206 165 q 306 213 272 193 q 373 256 339 232 q 442 307 407 281 l 443 201 q 390 140 417 169 q 336 86 364 111 q 277 42 308 61 q 212 9 246 22 q 138 -8 178 -4 z "},"גּ":{"ha":621,"x_min":38,"x_max":568,"o":"m 476 -12 q 423 -2 440 -12 q 401 26 406 8 q 393 64 396 43 l 346 432 q 336 516 340 478 q 323 583 332 554 q 297 629 314 613 q 244 647 279 646 q 191 650 213 649 q 156 657 169 651 q 135 679 142 665 q 129 715 129 693 l 132 758 q 149 801 135 788 q 207 813 164 814 q 229 812 211 813 q 265 810 247 811 q 376 781 333 806 q 442 713 418 756 q 478 611 465 669 q 503 481 492 553 l 561 71 q 547 8 568 29 q 476 -12 526 -12 m 138 -8 q 88 -8 110 -11 q 53 10 65 -6 q 39 58 40 25 q 51 128 38 110 q 103 149 64 147 q 172 158 138 150 q 239 179 206 165 q 306 213 272 193 q 373 256 339 232 q 442 307 407 281 l 443 201 q 390 140 417 169 q 336 86 364 111 q 277 42 308 61 q 212 9 246 22 q 138 -8 178 -4 m 179 365 q 142 382 157 365 q 128 422 128 399 q 144 460 128 444 q 179 476 160 476 q 216 460 200 476 q 232 422 232 444 q 217 382 232 399 q 179 365 203 365 z "},"ד":{"ha":838,"x_min":54,"x_max":776,"o":"m 140 642 q 97 647 117 642 q 66 671 78 653 q 54 726 54 689 q 66 783 54 765 q 97 805 78 800 q 139 810 117 810 l 692 810 q 734 805 715 810 q 765 783 753 800 q 776 726 776 765 q 765 671 776 689 q 733 647 753 653 q 690 642 714 642 l 140 642 m 540 -12 q 485 -1 503 -12 q 463 31 468 11 q 458 72 458 50 l 458 676 l 625 665 l 625 63 q 619 26 625 43 q 597 -2 614 8 q 540 -12 579 -12 z "},"דּ":{"ha":838,"x_min":54,"x_max":776,"o":"m 140 642 q 97 647 117 642 q 66 671 78 653 q 54 726 54 689 q 66 783 54 765 q 97 805 78 800 q 139 810 117 810 l 692 810 q 734 805 715 810 q 765 783 753 800 q 776 726 776 765 q 765 671 776 689 q 733 647 753 653 q 690 642 714 642 l 140 642 m 540 -12 q 485 -1 503 -12 q 463 31 468 11 q 458 72 458 50 l 458 676 l 625 665 l 625 63 q 619 26 625 43 q 597 -2 614 8 q 540 -12 579 -12 m 240 356 q 203 372 218 356 q 189 413 189 389 q 205 451 189 435 q 240 467 221 467 q 277 451 261 467 q 293 413 293 435 q 278 372 293 389 q 240 356 264 356 z "},"ה":{"ha":838,"x_min":61,"x_max":783,"o":"m 700 -12 q 645 -2 663 -12 q 622 26 628 8 q 617 63 617 43 l 617 367 q 592 521 617 460 q 516 612 567 582 q 388 642 465 642 l 147 642 q 104 647 124 642 q 73 671 85 653 q 61 726 61 689 q 73 783 61 765 q 104 805 85 800 q 146 810 124 810 l 383 810 q 606 761 517 810 q 739 615 694 713 q 783 371 783 518 l 783 72 q 778 31 783 50 q 756 -1 774 11 q 700 -12 739 -12 m 158 -12 q 103 -1 121 -12 q 81 31 86 11 q 75 71 75 50 l 75 369 q 81 410 75 390 q 103 440 86 429 q 160 451 121 451 q 215 440 197 451 q 237 409 232 428 q 242 368 242 390 l 242 69 q 237 30 242 49 q 215 -1 232 11 q 158 -12 197 -12 z "},"הּ":{"ha":838,"x_min":61,"x_max":783,"o":"m 700 -12 q 645 -2 663 -12 q 622 26 628 8 q 617 63 617 43 l 617 367 q 592 521 617 460 q 516 612 567 582 q 388 642 465 642 l 147 642 q 104 647 124 642 q 73 671 85 653 q 61 726 61 689 q 73 783 61 765 q 104 805 85 800 q 146 810 124 810 l 383 810 q 606 761 517 810 q 739 615 694 713 q 783 371 783 518 l 783 72 q 778 31 783 50 q 756 -1 774 11 q 700 -12 739 -12 m 158 -12 q 103 -1 121 -12 q 81 31 86 11 q 75 71 75 50 l 75 369 q 81 410 75 390 q 103 440 86 429 q 160 451 121 451 q 215 440 197 451 q 237 409 232 428 q 242 368 242 390 l 242 69 q 237 30 242 49 q 215 -1 232 11 q 158 -12 197 -12 m 407 356 q 370 372 385 356 q 356 413 356 389 q 372 451 356 435 q 407 467 388 467 q 444 451 428 467 q 460 413 460 435 q 445 372 460 389 q 407 356 431 356 z "},"ו":{"ha":344,"x_min":89,"x_max":256,"o":"m 172 -12 q 117 -1 135 -12 q 94 31 100 11 q 89 71 89 50 l 89 728 q 94 768 89 749 q 117 799 100 788 q 174 810 135 810 q 228 798 211 810 q 251 767 246 786 q 256 726 256 749 l 256 69 q 251 30 256 49 q 228 -1 246 11 q 172 -12 211 -12 z "},"וּ":{"ha":457,"x_min":32,"x_max":372,"o":"m 289 -12 q 234 -1 251 -12 q 211 31 217 11 q 206 71 206 50 l 206 728 q 211 768 206 749 q 234 799 217 788 q 290 810 251 810 q 345 798 328 810 q 367 767 363 786 q 372 726 372 749 l 372 69 q 367 30 372 49 q 345 -1 363 11 q 289 -12 328 -12 m 83 382 q 47 399 61 382 q 32 439 32 415 q 48 477 32 461 q 83 493 64 493 q 120 477 104 493 q 136 439 136 461 q 122 399 136 415 q 83 382 107 382 z "},"וֹ":{"ha":344,"x_min":-32,"x_max":256,"o":"m 172 -12 q 117 -1 135 -12 q 94 31 100 11 q 89 71 89 50 l 89 728 q 94 768 89 749 q 117 799 100 788 q 174 810 135 810 q 228 798 211 810 q 251 767 246 786 q 256 726 256 749 l 256 69 q 251 30 256 49 q 228 -1 246 11 q 172 -12 211 -12 m 26 919 q -15 938 1 919 q -32 983 -32 957 q -14 1026 -32 1008 q 26 1044 4 1044 q 68 1026 50 1044 q 86 983 86 1008 q 69 938 86 957 q 26 919 53 919 z "},"ז":{"ha":610,"x_min":50,"x_max":543,"o":"m 328 -12 q 281 -6 297 -12 q 257 15 264 1 q 247 44 250 28 q 242 79 244 61 l 206 333 q 192 462 196 400 q 199 576 189 524 q 239 668 210 629 l 383 658 q 360 617 368 643 q 352 558 353 592 q 354 487 351 525 q 362 409 357 449 q 372 332 367 369 l 407 79 q 397 9 414 31 q 328 -12 379 -12 m 135 642 q 93 647 113 642 q 62 671 74 653 q 50 726 50 689 q 62 783 50 765 q 92 805 74 800 q 133 810 111 810 l 458 810 q 501 805 482 810 q 531 783 519 800 q 543 726 543 765 q 531 671 543 689 q 500 647 519 653 q 457 642 481 642 l 135 642 z "},"זּ":{"ha":624,"x_min":18,"x_max":567,"o":"m 351 -12 q 304 -6 321 -12 q 281 15 288 1 q 271 44 274 28 q 265 79 268 61 l 229 333 q 216 462 219 400 q 223 576 213 524 q 263 668 233 629 l 407 658 q 384 617 392 643 q 376 558 376 592 q 378 487 375 525 q 385 409 381 449 q 396 332 390 369 l 431 79 q 420 9 438 31 q 351 -12 403 -12 m 158 642 q 117 647 136 642 q 85 671 97 653 q 74 726 74 689 q 85 783 74 765 q 116 805 97 800 q 157 810 135 810 l 482 810 q 524 805 506 810 q 555 783 543 800 q 567 726 567 765 q 555 671 567 689 q 524 647 543 653 q 481 642 504 642 l 158 642 m 69 382 q 33 399 47 382 q 18 439 18 415 q 34 477 18 461 q 69 493 50 493 q 106 477 90 493 q 122 439 122 461 q 108 399 122 415 q 69 382 93 382 z "},"ח":{"ha":894,"x_min":85,"x_max":825,"o":"m 168 -12 q 113 -1 131 -12 q 90 30 94 11 q 85 71 85 49 l 85 726 q 90 766 85 747 q 113 797 94 785 q 168 808 131 808 l 425 810 q 601 783 526 810 q 726 702 676 757 q 800 565 775 647 q 825 371 825 482 l 825 72 q 820 31 825 50 q 798 -1 815 11 q 743 -12 781 -12 q 688 -2 706 -12 q 664 26 669 8 q 658 63 658 43 l 658 367 q 644 488 658 436 q 602 574 631 539 q 531 625 574 608 q 429 642 488 642 l 253 642 l 253 72 q 247 30 253 49 q 224 -1 242 11 q 168 -12 207 -12 z "},"ט":{"ha":889,"x_min":61,"x_max":833,"o":"m 443 -22 q 277 15 349 -22 q 158 118 206 53 q 85 269 110 183 q 61 451 61 354 l 61 726 q 67 767 61 749 q 90 798 72 786 q 146 810 107 810 q 201 798 183 810 q 224 767 219 786 q 229 725 229 749 l 229 451 q 285 224 229 303 q 447 146 342 146 q 611 217 557 146 q 663 426 665 289 q 615 585 661 528 q 494 642 569 642 l 444 642 q 408 647 425 642 q 383 671 392 653 q 374 726 374 689 q 385 782 374 764 q 416 805 397 800 q 457 810 435 810 l 500 810 q 676 760 600 810 q 792 618 751 710 q 829 401 833 526 q 801 229 829 307 q 722 95 774 151 q 600 8 671 39 q 443 -22 529 -22 z "},"טּ":{"ha":889,"x_min":61,"x_max":833,"o":"m 443 -22 q 277 15 349 -22 q 158 118 206 53 q 85 269 110 183 q 61 451 61 354 l 61 726 q 67 767 61 749 q 90 798 72 786 q 146 810 107 810 q 201 798 183 810 q 224 767 219 786 q 229 725 229 749 l 229 451 q 285 224 229 303 q 447 146 342 146 q 611 217 557 146 q 663 426 665 289 q 615 585 661 528 q 494 642 569 642 l 444 642 q 408 647 425 642 q 383 671 392 653 q 374 726 374 689 q 385 782 374 764 q 416 805 397 800 q 457 810 435 810 l 500 810 q 676 760 600 810 q 792 618 751 710 q 829 401 833 526 q 801 229 829 307 q 722 95 774 151 q 600 8 671 39 q 443 -22 529 -22 m 446 369 q 409 386 424 369 q 394 426 394 403 q 410 465 394 449 q 446 481 426 481 q 483 465 467 481 q 499 426 499 449 q 484 386 499 403 q 446 369 469 369 z "},"י":{"ha":344,"x_min":89,"x_max":256,"o":"m 172 357 q 117 369 135 357 q 94 400 100 381 q 89 440 89 419 l 89 728 q 94 768 89 749 q 117 799 100 788 q 174 810 135 810 q 228 798 211 810 q 251 767 246 786 q 256 726 256 749 l 256 439 q 251 399 256 418 q 228 369 246 381 q 172 357 211 357 z "},"יּ":{"ha":426,"x_min":-8,"x_max":331,"o":"m 247 357 q 192 369 210 357 q 169 400 175 381 q 164 440 164 419 l 164 728 q 169 768 164 749 q 192 799 175 788 q 249 810 210 810 q 303 798 286 810 q 326 767 321 786 q 331 726 331 749 l 331 439 q 326 399 331 418 q 303 369 321 381 q 247 357 286 357 m 43 531 q 6 547 21 531 q -8 588 -8 564 q 8 626 -8 610 q 43 642 24 642 q 80 626 64 642 q 96 588 96 610 q 81 547 96 564 q 43 531 67 531 z "},"ך":{"ha":771,"x_min":54,"x_max":710,"o":"m 626 -207 q 572 -197 589 -207 q 549 -168 554 -186 q 543 -131 543 -150 l 543 367 q 528 488 543 436 q 485 574 514 539 q 414 625 457 608 q 313 642 371 642 l 140 642 q 97 647 117 642 q 66 671 78 653 q 54 726 54 689 q 66 783 54 765 q 97 805 78 800 q 139 810 117 810 l 308 810 q 485 783 410 810 q 610 701 560 756 q 685 563 660 646 q 710 371 710 481 l 710 -122 q 705 -164 710 -144 q 683 -195 700 -183 q 626 -207 665 -207 z "},"ךּ":{"ha":771,"x_min":54,"x_max":710,"o":"m 626 -207 q 572 -197 589 -207 q 549 -168 554 -186 q 543 -131 543 -150 l 543 367 q 528 488 543 436 q 485 574 514 539 q 414 625 457 608 q 313 642 371 642 l 140 642 q 97 647 117 642 q 66 671 78 653 q 54 726 54 689 q 66 783 54 765 q 97 805 78 800 q 139 810 117 810 l 308 810 q 485 783 410 810 q 610 701 560 756 q 685 563 660 646 q 710 371 710 481 l 710 -122 q 705 -164 710 -144 q 683 -195 700 -183 q 626 -207 665 -207 m 281 328 q 244 344 258 328 q 229 385 229 361 q 245 423 229 407 q 281 439 261 439 q 317 423 301 439 q 333 385 333 407 q 319 344 333 361 q 281 328 304 328 z "},"כ":{"ha":785,"x_min":49,"x_max":729,"o":"m 346 -24 q 210 -5 269 -24 q 111 38 151 14 q 67 72 83 53 q 50 111 51 92 q 54 139 49 122 q 69 171 60 156 q 97 206 83 194 q 128 217 111 217 q 155 209 142 217 q 179 192 168 201 q 253 156 214 169 q 340 143 292 143 q 458 174 408 143 q 536 262 508 206 q 564 396 564 318 q 510 574 564 507 q 360 642 456 642 l 168 642 q 132 647 149 642 q 106 671 115 653 q 96 726 96 689 q 108 782 96 764 q 140 805 119 800 q 181 810 160 810 l 378 810 q 560 757 481 810 q 684 610 639 704 q 729 396 729 517 q 698 218 729 296 q 613 86 667 140 q 490 4 560 32 q 346 -24 421 -24 z "},"כּ":{"ha":785,"x_min":49,"x_max":729,"o":"m 346 -24 q 210 -5 269 -24 q 111 38 151 14 q 67 72 83 53 q 50 111 51 92 q 54 139 49 122 q 69 171 60 156 q 97 206 83 194 q 128 217 111 217 q 155 209 142 217 q 179 192 168 201 q 253 156 214 169 q 340 143 292 143 q 458 174 408 143 q 536 262 508 206 q 564 396 564 318 q 510 574 564 507 q 360 642 456 642 l 168 642 q 132 647 149 642 q 106 671 115 653 q 96 726 96 689 q 108 782 96 764 q 140 805 119 800 q 181 810 160 810 l 378 810 q 560 757 481 810 q 684 610 639 704 q 729 396 729 517 q 698 218 729 296 q 613 86 667 140 q 490 4 560 32 q 346 -24 421 -24 m 325 368 q 288 385 303 368 q 274 425 274 401 q 290 463 274 447 q 325 479 306 479 q 362 463 346 479 q 378 425 378 447 q 363 385 378 401 q 325 368 349 368 z "},"ל":{"ha":726,"x_min":54,"x_max":688,"o":"m 269 -8 q 214 43 225 15 q 228 106 203 71 q 332 269 285 192 q 418 421 379 347 q 488 567 457 494 q 546 715 519 640 l 671 615 q 594 424 638 517 q 499 237 551 332 q 381 31 446 142 q 354 -3 368 13 q 320 -21 340 -18 q 269 -8 300 -24 m 667 606 l 556 642 l 158 642 q 89 661 110 642 q 65 728 68 681 l 56 942 q 60 982 54 964 q 85 1012 65 1000 q 143 1024 104 1024 q 197 1011 181 1024 q 217 979 213 999 q 222 938 221 960 l 229 810 l 549 810 q 638 783 604 810 q 679 710 671 756 q 667 606 688 664 z "},"לּ":{"ha":726,"x_min":54,"x_max":688,"o":"m 269 -8 q 214 43 225 15 q 228 106 203 71 q 332 269 285 192 q 418 421 379 347 q 488 567 457 494 q 546 715 519 640 l 671 615 q 594 424 638 517 q 499 237 551 332 q 381 31 446 142 q 354 -3 368 13 q 320 -21 340 -18 q 269 -8 300 -24 m 667 606 l 556 642 l 158 642 q 89 661 110 642 q 65 728 68 681 l 56 942 q 60 982 54 964 q 85 1012 65 1000 q 143 1024 104 1024 q 197 1011 181 1024 q 217 979 213 999 q 222 938 221 960 l 229 810 l 549 810 q 638 783 604 810 q 679 710 671 756 q 667 606 688 664 m 207 378 q 170 394 185 378 q 156 435 156 411 q 172 473 156 457 q 207 489 188 489 q 244 473 228 489 q 260 435 260 457 q 245 394 260 411 q 207 378 231 378 z "},"ם":{"ha":853,"x_min":68,"x_max":797,"o":"m 153 -12 q 97 -1 114 -12 q 74 30 79 11 q 68 71 68 49 l 68 717 q 92 788 68 765 q 167 810 117 810 l 424 810 q 626 763 543 810 q 753 626 710 715 q 797 411 797 538 l 797 72 q 792 31 797 50 q 770 -1 788 11 q 715 -12 753 -12 q 660 -2 678 -12 q 636 26 642 8 q 631 63 631 43 l 631 407 q 609 538 631 486 q 542 616 588 590 q 428 642 497 642 l 236 642 l 236 72 q 231 30 236 49 q 209 -1 226 11 q 153 -12 192 -12 m 146 -12 l 147 156 l 719 156 l 721 -12 l 146 -12 z "},"מ":{"ha":924,"x_min":61,"x_max":840,"o":"m 840 406 l 840 71 q 835 15 840 33 q 812 -8 829 -3 q 757 -12 794 -12 l 456 -12 q 415 -8 435 -12 q 384 15 396 -3 q 372 71 372 33 q 384 127 372 110 q 415 150 396 144 q 457 156 435 156 l 674 156 l 674 401 q 655 543 674 489 q 599 624 636 597 q 508 650 563 650 q 426 630 460 650 q 367 574 392 610 q 327 493 343 539 q 300 396 311 447 l 238 74 q 228 31 233 51 q 206 -1 222 11 q 151 -12 189 -12 q 81 8 100 -12 q 69 72 61 29 l 156 522 l 215 468 q 251 572 233 521 q 290 667 268 622 q 344 745 313 711 q 424 799 376 779 q 539 818 471 818 q 702 771 635 818 q 805 633 769 724 q 840 406 840 542 m 165 344 l 71 704 q 65 747 65 726 q 78 784 64 768 q 132 808 93 800 q 194 809 174 818 q 222 782 214 800 q 233 746 229 764 l 296 481 l 165 344 z "},"מּ":{"ha":924,"x_min":61,"x_max":840,"o":"m 840 406 l 840 71 q 835 15 840 33 q 812 -8 829 -3 q 757 -12 794 -12 l 456 -12 q 415 -8 435 -12 q 384 15 396 -3 q 372 71 372 33 q 384 127 372 110 q 415 150 396 144 q 457 156 435 156 l 674 156 l 674 401 q 655 543 674 489 q 599 624 636 597 q 508 650 563 650 q 426 630 460 650 q 367 574 392 610 q 327 493 343 539 q 300 396 311 447 l 238 74 q 228 31 233 51 q 206 -1 222 11 q 151 -12 189 -12 q 81 8 100 -12 q 69 72 61 29 l 156 522 l 215 468 q 251 572 233 521 q 290 667 268 622 q 344 745 313 711 q 424 799 376 779 q 539 818 471 818 q 702 771 635 818 q 805 633 769 724 q 840 406 840 542 m 165 344 l 71 704 q 65 747 65 726 q 78 784 64 768 q 132 808 93 800 q 194 809 174 818 q 222 782 214 800 q 233 746 229 764 l 296 481 l 165 344 m 490 356 q 453 372 468 356 q 439 413 439 389 q 455 451 439 435 q 490 467 471 467 q 527 451 511 467 q 543 413 543 435 q 528 372 543 389 q 490 356 514 356 z "},"ן":{"ha":344,"x_min":89,"x_max":256,"o":"m 172 -207 q 117 -195 135 -207 q 94 -164 100 -183 q 89 -124 89 -144 l 89 728 q 94 768 89 749 q 117 799 100 788 q 174 810 135 810 q 228 798 211 810 q 251 767 246 786 q 256 726 256 749 l 256 -125 q 251 -165 256 -146 q 228 -195 246 -183 q 172 -207 211 -207 z "},"נ":{"ha":610,"x_min":69,"x_max":549,"o":"m 465 -12 q 411 -2 429 -12 q 388 26 393 8 q 382 63 382 43 l 382 407 q 364 538 382 486 q 310 616 346 590 q 219 642 274 642 l 181 642 q 139 647 158 642 q 108 671 119 653 q 96 726 96 689 q 108 783 96 765 q 139 805 119 800 q 179 810 158 810 l 215 810 q 401 766 328 810 q 512 633 475 722 q 549 411 549 544 l 549 72 q 544 31 549 50 q 522 -1 539 11 q 465 -12 504 -12 m 154 -12 q 113 -8 132 -12 q 81 15 93 -3 q 69 71 69 33 q 81 127 69 110 q 112 150 93 144 q 153 156 131 156 l 474 156 l 472 -12 l 154 -12 z "},"נּ":{"ha":610,"x_min":69,"x_max":549,"o":"m 465 -12 q 411 -2 429 -12 q 388 26 393 8 q 382 63 382 43 l 382 407 q 364 538 382 486 q 310 616 346 590 q 219 642 274 642 l 181 642 q 139 647 158 642 q 108 671 119 653 q 96 726 96 689 q 108 783 96 765 q 139 805 119 800 q 179 810 158 810 l 215 810 q 401 766 328 810 q 512 633 475 722 q 549 411 549 544 l 549 72 q 544 31 549 50 q 522 -1 539 11 q 465 -12 504 -12 m 154 -12 q 113 -8 132 -12 q 81 15 93 -3 q 69 71 69 33 q 81 127 69 110 q 112 150 93 144 q 153 156 131 156 l 474 156 l 472 -12 l 154 -12 m 196 356 q 159 372 174 356 q 144 413 144 389 q 160 451 144 435 q 196 467 176 467 q 233 451 217 467 q 249 413 249 435 q 234 372 249 389 q 196 356 219 356 z "},"ס":{"ha":901,"x_min":68,"x_max":847,"o":"m 464 -22 q 254 28 343 -22 q 117 173 165 79 q 68 394 68 267 l 68 717 q 94 784 68 758 q 161 810 119 810 l 453 810 q 663 760 575 810 q 799 617 751 710 q 847 396 847 524 q 800 174 847 268 q 667 29 753 81 q 464 -22 581 -22 m 457 147 q 620 214 561 147 q 679 396 679 281 q 653 528 679 474 q 577 613 626 583 q 458 642 528 642 l 236 642 l 236 396 q 295 214 236 281 q 457 147 354 147 z "},"סּ":{"ha":901,"x_min":68,"x_max":847,"o":"m 464 -22 q 254 28 343 -22 q 117 173 165 79 q 68 394 68 267 l 68 717 q 94 784 68 758 q 161 810 119 810 l 453 810 q 663 760 575 810 q 799 617 751 710 q 847 396 847 524 q 800 174 847 268 q 667 29 753 81 q 464 -22 581 -22 m 457 147 q 620 214 561 147 q 679 396 679 281 q 653 528 679 474 q 577 613 626 583 q 458 642 528 642 l 236 642 l 236 396 q 295 214 236 281 q 457 147 354 147 m 450 365 q 413 382 428 365 q 399 422 399 399 q 415 460 399 444 q 450 476 431 476 q 487 460 471 476 q 503 422 503 444 q 488 382 503 399 q 450 365 474 365 z "},"ע":{"ha":819,"x_min":49,"x_max":739,"o":"m 163 -53 q 119 -58 139 -58 q 83 -43 99 -58 q 58 10 68 -28 q 57 64 49 44 q 85 94 65 83 q 131 111 106 104 l 407 186 q 505 239 469 207 q 555 317 540 271 q 569 428 569 364 l 569 733 q 574 772 569 754 q 597 799 579 789 q 651 810 614 810 q 709 798 690 810 q 733 767 728 786 q 739 725 739 747 l 738 474 q 718 306 738 379 q 660 180 699 233 q 563 88 622 126 q 421 22 504 49 l 163 -53 m 304 131 q 258 163 281 143 q 222 226 236 183 l 76 699 q 67 742 69 722 q 78 778 65 761 q 131 804 92 794 q 190 806 169 815 q 222 778 211 797 q 239 735 232 758 l 410 163 l 304 131 z "},"ף":{"ha":790,"x_min":39,"x_max":736,"o":"m 651 -207 q 597 -195 614 -207 q 574 -164 579 -183 q 569 -124 569 -144 l 569 413 q 547 542 569 490 q 483 621 525 594 q 381 647 442 647 l 322 647 q 249 626 281 647 q 203 576 217 606 q 199 514 189 546 q 215 468 204 489 q 240 430 225 447 q 279 399 256 413 q 306 360 303 382 q 295 315 310 338 q 247 274 281 293 q 188 269 222 257 q 119 313 153 281 q 64 397 86 346 q 40 511 42 449 q 62 631 39 575 q 128 727 85 686 q 228 792 171 768 q 356 815 286 815 l 376 815 q 571 769 490 815 q 694 633 651 722 q 736 417 736 544 l 736 -125 q 731 -165 736 -146 q 709 -195 726 -183 q 651 -207 692 -207 z "},"ףּ":{"ha":790,"x_min":39,"x_max":736,"o":"m 651 -207 q 597 -195 614 -207 q 574 -164 579 -183 q 569 -124 569 -144 l 569 413 q 547 542 569 490 q 483 621 525 594 q 381 647 442 647 l 322 647 q 249 626 281 647 q 203 576 217 606 q 199 514 189 546 q 215 468 204 489 q 240 430 225 447 q 279 399 256 413 q 306 360 303 382 q 295 315 310 338 q 247 274 281 293 q 188 269 222 257 q 119 313 153 281 q 64 397 86 346 q 40 511 42 449 q 62 631 39 575 q 128 727 85 686 q 228 792 171 768 q 356 815 286 815 l 376 815 q 571 769 490 815 q 694 633 651 722 q 736 417 736 544 l 736 -125 q 731 -165 736 -146 q 709 -195 726 -183 q 651 -207 692 -207 m 408 304 q 372 321 386 304 q 357 361 357 338 q 373 399 357 383 q 408 415 389 415 q 445 399 429 415 q 461 361 461 383 q 447 321 461 338 q 408 304 432 304 z "},"פ":{"ha":811,"x_min":53,"x_max":757,"o":"m 161 -12 q 121 -8 140 -12 q 90 15 101 -3 q 78 71 78 33 q 90 127 78 110 q 121 150 101 144 q 163 156 140 156 l 376 156 q 489 183 442 156 q 563 263 536 210 q 589 396 589 317 l 589 413 q 538 587 589 526 q 396 647 488 647 l 346 647 q 274 628 306 647 q 226 580 242 608 q 218 521 210 551 q 237 464 222 488 q 279 424 251 440 q 301 392 299 411 q 294 355 303 374 q 272 321 285 336 q 247 301 258 306 q 194 296 225 286 q 131 333 163 306 q 79 406 100 361 q 56 506 58 450 q 74 627 53 571 q 138 726 96 683 q 238 792 181 768 q 364 815 296 815 l 392 815 q 588 768 506 815 q 713 632 669 721 q 757 417 757 543 l 757 392 q 708 172 757 263 q 572 35 660 82 q 365 -12 483 -12 l 161 -12 z "},"פּ":{"ha":811,"x_min":53,"x_max":757,"o":"m 161 -12 q 121 -8 140 -12 q 90 15 101 -3 q 78 71 78 33 q 90 127 78 110 q 121 150 101 144 q 163 156 140 156 l 376 156 q 489 183 442 156 q 563 263 536 210 q 589 396 589 317 l 589 413 q 538 587 589 526 q 396 647 488 647 l 346 647 q 274 628 306 647 q 226 580 242 608 q 218 521 210 551 q 237 464 222 488 q 279 424 251 440 q 301 392 299 411 q 294 355 303 374 q 272 321 285 336 q 247 301 258 306 q 194 296 225 286 q 131 333 163 306 q 79 406 100 361 q 56 506 58 450 q 74 627 53 571 q 138 726 96 683 q 238 792 181 768 q 364 815 296 815 l 392 815 q 588 768 506 815 q 713 632 669 721 q 757 417 757 543 l 757 392 q 708 172 757 263 q 572 35 660 82 q 365 -12 483 -12 l 161 -12 m 406 343 q 369 360 383 343 q 354 400 354 376 q 370 438 354 422 q 406 454 386 454 q 442 438 426 454 q 458 400 458 422 q 444 360 458 376 q 406 343 429 343 z "},"ץ":{"ha":790,"x_min":72,"x_max":729,"o":"m 550 -207 q 491 -207 511 -214 q 461 -184 471 -200 q 447 -149 451 -168 q 395 65 428 -42 q 319 274 363 172 q 224 467 275 375 q 118 638 174 558 q 94 673 106 656 q 77 708 82 690 q 79 743 72 726 q 111 775 86 760 q 160 801 139 797 q 201 795 182 806 q 236 761 219 785 q 358 575 300 679 q 464 357 415 471 q 548 130 513 243 q 601 -85 583 17 q 606 -124 604 -104 q 605 -160 608 -143 q 589 -190 601 -178 q 550 -207 576 -203 m 467 244 l 354 343 l 565 761 q 594 795 579 782 q 631 808 610 808 q 683 785 653 807 q 722 746 715 765 q 722 707 729 726 q 701 667 714 688 l 467 244 z "},"צ":{"ha":808,"x_min":56,"x_max":744,"o":"m 617 -12 l 499 136 l 94 681 q 78 740 71 714 q 119 789 86 765 q 172 813 151 813 q 209 801 193 814 q 238 769 225 789 l 635 219 q 664 179 651 197 q 685 146 676 161 q 698 97 697 125 q 689 43 699 68 q 660 2 679 18 q 617 -12 642 -14 m 140 -12 q 99 -8 118 -12 q 67 15 79 -3 q 56 71 56 33 q 67 127 56 110 q 98 150 79 144 q 139 156 117 156 l 622 156 l 626 -12 l 140 -12 m 517 279 l 403 372 l 582 769 q 606 799 593 788 q 641 812 619 811 q 696 793 663 813 q 736 756 728 775 q 738 717 744 736 q 721 676 732 697 l 517 279 z "},"צּ":{"ha":808,"x_min":56,"x_max":744,"o":"m 617 -12 l 499 136 l 94 681 q 78 740 71 714 q 119 789 86 765 q 172 813 151 813 q 209 801 193 814 q 238 769 225 789 l 635 219 q 664 179 651 197 q 685 146 676 161 q 698 97 697 125 q 689 43 699 68 q 660 2 679 18 q 617 -12 642 -14 m 140 -12 q 99 -8 118 -12 q 67 15 79 -3 q 56 71 56 33 q 67 127 56 110 q 98 150 79 144 q 139 156 117 156 l 622 156 l 626 -12 l 140 -12 m 517 279 l 403 372 l 582 769 q 606 799 593 788 q 641 812 619 811 q 696 793 663 813 q 736 756 728 775 q 738 717 744 736 q 721 676 732 697 l 517 279 m 214 231 q 177 247 192 231 q 163 288 163 264 q 178 326 163 310 q 214 342 194 342 q 251 326 235 342 q 267 288 267 310 q 252 247 267 264 q 214 231 238 231 z "},"ק":{"ha":836,"x_min":68,"x_max":793,"o":"m 479 -12 q 415 28 431 4 q 414 90 399 53 q 455 201 432 140 q 502 330 478 263 q 551 467 526 397 q 597 601 575 536 q 635 721 618 665 l 776 624 q 742 510 763 571 q 701 385 722 449 q 659 259 681 321 q 618 143 638 197 q 582 49 599 89 q 562 10 574 28 q 531 -15 550 -8 q 479 -12 511 -22 m 171 -239 q 116 -227 133 -239 q 93 -196 99 -215 q 88 -156 88 -176 l 88 401 q 93 442 88 424 q 116 473 99 461 q 172 485 133 485 q 227 473 210 485 q 249 442 244 461 q 254 400 254 424 l 254 -157 q 249 -197 254 -178 q 227 -227 244 -215 q 171 -239 210 -239 m 772 607 l 635 643 l 529 643 l 154 643 q 111 648 131 643 q 80 672 92 653 q 68 728 68 690 q 80 784 68 767 q 111 806 92 801 q 153 811 131 811 l 635 810 q 735 783 697 810 q 783 711 772 757 q 772 607 793 665 z "},"קּ":{"ha":836,"x_min":68,"x_max":793,"o":"m 479 -12 q 415 28 431 4 q 414 90 399 53 q 455 201 432 140 q 502 330 478 263 q 551 467 526 397 q 597 601 575 536 q 635 721 618 665 l 776 624 q 742 510 763 571 q 701 385 722 449 q 659 259 681 321 q 618 143 638 197 q 582 49 599 89 q 562 10 574 28 q 531 -15 550 -8 q 479 -12 511 -22 m 171 -239 q 116 -227 133 -239 q 93 -196 99 -215 q 88 -156 88 -176 l 88 401 q 93 442 88 424 q 116 473 99 461 q 172 485 133 485 q 227 473 210 485 q 249 442 244 461 q 254 400 254 424 l 254 -157 q 249 -197 254 -178 q 227 -227 244 -215 q 171 -239 210 -239 m 772 607 l 635 643 l 529 643 l 154 643 q 111 648 131 643 q 80 672 92 653 q 68 728 68 690 q 80 784 68 767 q 111 806 92 801 q 153 811 131 811 l 635 810 q 735 783 697 810 q 783 711 772 757 q 772 607 793 665 m 399 415 q 362 432 376 415 q 347 472 347 449 q 363 510 347 494 q 399 526 379 526 q 435 510 419 526 q 451 472 451 494 q 437 432 451 449 q 399 415 422 415 z "},"ר":{"ha":750,"x_min":35,"x_max":668,"o":"m 586 -12 q 531 -2 549 -12 q 507 26 513 8 q 501 63 501 43 l 501 367 q 488 488 501 436 q 444 574 474 539 q 373 625 415 608 q 272 642 331 642 l 119 642 q 78 647 97 642 q 47 671 58 653 q 35 726 35 689 q 47 783 35 765 q 77 805 58 800 q 118 810 96 810 l 268 810 q 444 783 369 810 q 569 701 519 756 q 643 563 618 646 q 668 371 668 481 l 668 72 q 663 31 668 50 q 641 -1 658 11 q 586 -12 624 -12 z "},"רּ":{"ha":750,"x_min":35,"x_max":668,"o":"m 586 -12 q 531 -2 549 -12 q 507 26 513 8 q 501 63 501 43 l 501 367 q 488 488 501 436 q 444 574 474 539 q 373 625 415 608 q 272 642 331 642 l 119 642 q 78 647 97 642 q 47 671 58 653 q 35 726 35 689 q 47 783 35 765 q 77 805 58 800 q 118 810 96 810 l 268 810 q 444 783 369 810 q 569 701 519 756 q 643 563 618 646 q 668 371 668 481 l 668 72 q 663 31 668 50 q 641 -1 658 11 q 586 -12 624 -12 m 228 315 q 191 332 206 315 q 176 372 176 349 q 192 410 176 394 q 228 426 208 426 q 265 410 249 426 q 281 372 281 394 q 266 332 281 349 q 228 315 251 315 z "},"ש":{"ha":1006,"x_min":68,"x_max":938,"o":"m 497 -22 q 313 14 393 -22 q 178 113 232 50 q 96 256 124 175 q 68 426 68 338 l 68 726 q 74 767 68 749 q 97 798 79 786 q 153 810 114 810 q 208 798 190 810 q 231 767 226 786 q 236 725 236 749 l 236 426 q 267 276 236 339 q 358 179 299 214 q 501 144 417 144 q 653 182 593 144 q 741 283 713 219 q 769 428 769 347 l 769 733 q 775 771 769 754 q 799 799 781 788 q 854 810 817 810 q 910 798 892 810 q 933 767 928 786 q 938 725 938 747 l 938 424 q 909 254 938 335 q 825 112 881 174 q 688 14 769 50 q 497 -22 606 -22 m 231 178 l 217 290 l 263 290 q 320 313 293 290 q 368 377 347 336 q 401 472 389 418 q 415 589 414 526 l 421 732 q 428 771 422 753 q 451 799 433 789 q 506 810 468 810 q 563 799 544 810 q 585 769 581 788 q 589 728 590 750 l 582 589 q 556 423 576 499 q 498 292 535 347 q 408 208 461 238 q 285 178 356 178 l 231 178 z "},"שׁ":{"ha":1006,"x_min":68,"x_max":938,"o":"m 497 -22 q 313 14 393 -22 q 178 113 232 50 q 96 256 124 175 q 68 426 68 338 l 68 726 q 74 767 68 749 q 97 798 79 786 q 153 810 114 810 q 208 798 190 810 q 231 767 226 786 q 236 725 236 749 l 236 426 q 267 276 236 339 q 358 179 299 214 q 501 144 417 144 q 653 182 593 144 q 741 283 713 219 q 769 428 769 347 l 769 733 q 775 771 769 754 q 799 799 781 788 q 854 810 817 810 q 910 798 892 810 q 933 767 928 786 q 938 725 938 747 l 938 424 q 909 254 938 335 q 825 112 881 174 q 688 14 769 50 q 497 -22 606 -22 m 231 178 l 217 290 l 263 290 q 320 313 293 290 q 368 377 347 336 q 401 472 389 418 q 415 589 414 526 l 421 732 q 428 771 422 753 q 451 799 433 789 q 506 810 468 810 q 563 799 544 810 q 585 769 581 788 q 589 728 590 750 l 582 589 q 556 423 576 499 q 498 292 535 347 q 408 208 461 238 q 285 178 356 178 l 231 178 m 844 914 q 803 933 821 914 q 786 978 786 951 q 804 1021 786 1003 q 844 1039 822 1039 q 886 1021 868 1039 q 904 978 904 1003 q 887 933 904 951 q 844 914 869 914 z "},"שׂ":{"ha":1006,"x_min":68,"x_max":938,"o":"m 497 -22 q 313 14 393 -22 q 178 113 232 50 q 96 256 124 175 q 68 426 68 338 l 68 726 q 74 767 68 749 q 97 798 79 786 q 153 810 114 810 q 208 798 190 810 q 231 767 226 786 q 236 725 236 749 l 236 426 q 267 276 236 339 q 358 179 299 214 q 501 144 417 144 q 653 182 593 144 q 741 283 713 219 q 769 428 769 347 l 769 733 q 775 771 769 754 q 799 799 781 788 q 854 810 817 810 q 910 798 892 810 q 933 767 928 786 q 938 725 938 747 l 938 424 q 909 254 938 335 q 825 112 881 174 q 688 14 769 50 q 497 -22 606 -22 m 231 178 l 217 290 l 263 290 q 320 313 293 290 q 368 377 347 336 q 401 472 389 418 q 415 589 414 526 l 421 732 q 428 771 422 753 q 451 799 433 789 q 506 810 468 810 q 563 799 544 810 q 585 769 581 788 q 589 728 590 750 l 582 589 q 556 423 576 499 q 498 292 535 347 q 408 208 461 238 q 285 178 356 178 l 231 178 m 161 914 q 120 933 138 914 q 103 978 103 951 q 121 1021 103 1003 q 161 1039 139 1039 q 203 1021 185 1039 q 221 978 221 1003 q 203 933 221 951 q 161 914 186 914 z "},"שּׁ":{"ha":1006,"x_min":68,"x_max":938,"o":"m 497 -22 q 313 14 393 -22 q 178 113 232 50 q 96 256 124 175 q 68 426 68 338 l 68 726 q 74 767 68 749 q 97 798 79 786 q 153 810 114 810 q 208 798 190 810 q 231 767 226 786 q 236 725 236 749 l 236 426 q 267 276 236 339 q 358 179 299 214 q 501 144 417 144 q 653 182 593 144 q 741 283 713 219 q 769 428 769 347 l 769 733 q 775 771 769 754 q 799 799 781 788 q 854 810 817 810 q 910 798 892 810 q 933 767 928 786 q 938 725 938 747 l 938 424 q 909 254 938 335 q 825 112 881 174 q 688 14 769 50 q 497 -22 606 -22 m 231 178 l 217 290 l 263 290 q 320 313 293 290 q 368 377 347 336 q 401 472 389 418 q 415 589 414 526 l 421 732 q 428 771 422 753 q 451 799 433 789 q 506 810 468 810 q 563 799 544 810 q 585 769 581 788 q 589 728 590 750 l 582 589 q 556 423 576 499 q 498 292 535 347 q 408 208 461 238 q 285 178 356 178 l 231 178 m 642 322 q 605 339 619 322 q 590 379 590 356 q 606 417 590 401 q 642 433 622 433 q 678 417 663 433 q 694 379 694 401 q 680 339 694 356 q 642 322 665 322 m 844 914 q 803 933 821 914 q 786 978 786 951 q 804 1021 786 1003 q 844 1039 822 1039 q 886 1021 868 1039 q 904 978 904 1003 q 887 933 904 951 q 844 914 869 914 z "},"שּׂ":{"ha":1006,"x_min":68,"x_max":938,"o":"m 497 -22 q 313 14 393 -22 q 178 113 232 50 q 96 256 124 175 q 68 426 68 338 l 68 726 q 74 767 68 749 q 97 798 79 786 q 153 810 114 810 q 208 798 190 810 q 231 767 226 786 q 236 725 236 749 l 236 426 q 267 276 236 339 q 358 179 299 214 q 501 144 417 144 q 653 182 593 144 q 741 283 713 219 q 769 428 769 347 l 769 733 q 775 771 769 754 q 799 799 781 788 q 854 810 817 810 q 910 798 892 810 q 933 767 928 786 q 938 725 938 747 l 938 424 q 909 254 938 335 q 825 112 881 174 q 688 14 769 50 q 497 -22 606 -22 m 231 178 l 217 290 l 263 290 q 320 313 293 290 q 368 377 347 336 q 401 472 389 418 q 415 589 414 526 l 421 732 q 428 771 422 753 q 451 799 433 789 q 506 810 468 810 q 563 799 544 810 q 585 769 581 788 q 589 728 590 750 l 582 589 q 556 423 576 499 q 498 292 535 347 q 408 208 461 238 q 285 178 356 178 l 231 178 m 642 322 q 605 339 619 322 q 590 379 590 356 q 606 417 590 401 q 642 433 622 433 q 678 417 663 433 q 694 379 694 401 q 680 339 694 356 q 642 322 665 322 m 161 914 q 120 933 138 914 q 103 978 103 951 q 121 1021 103 1003 q 161 1039 139 1039 q 203 1021 185 1039 q 221 978 221 1003 q 203 933 221 951 q 161 914 186 914 z "},"שּ":{"ha":1006,"x_min":68,"x_max":938,"o":"m 497 -22 q 313 14 393 -22 q 178 113 232 50 q 96 256 124 175 q 68 426 68 338 l 68 726 q 74 767 68 749 q 97 798 79 786 q 153 810 114 810 q 208 798 190 810 q 231 767 226 786 q 236 725 236 749 l 236 426 q 267 276 236 339 q 358 179 299 214 q 501 144 417 144 q 653 182 593 144 q 741 283 713 219 q 769 428 769 347 l 769 733 q 775 771 769 754 q 799 799 781 788 q 854 810 817 810 q 910 798 892 810 q 933 767 928 786 q 938 725 938 747 l 938 424 q 909 254 938 335 q 825 112 881 174 q 688 14 769 50 q 497 -22 606 -22 m 231 178 l 217 290 l 263 290 q 320 313 293 290 q 368 377 347 336 q 401 472 389 418 q 415 589 414 526 l 421 732 q 428 771 422 753 q 451 799 433 789 q 506 810 468 810 q 563 799 544 810 q 585 769 581 788 q 589 728 590 750 l 582 589 q 556 423 576 499 q 498 292 535 347 q 408 208 461 238 q 285 178 356 178 l 231 178 m 642 322 q 605 339 619 322 q 590 379 590 356 q 606 417 590 401 q 642 433 622 433 q 678 417 663 433 q 694 379 694 401 q 680 339 694 356 q 642 322 665 322 z "},"ת":{"ha":975,"x_min":61,"x_max":900,"o":"m 147 -12 q 104 -8 124 -12 q 73 15 85 -3 q 61 71 61 33 q 73 127 61 110 q 104 150 85 144 q 146 156 124 156 l 232 156 l 232 696 l 324 642 q 245 636 281 638 q 185 640 210 635 q 147 662 160 646 q 133 708 133 678 q 158 785 133 763 q 249 807 183 807 l 488 810 q 717 763 625 811 q 854 616 808 714 q 900 371 900 518 l 900 72 q 895 31 900 50 q 873 -1 890 11 q 818 -12 856 -12 q 763 -2 781 -12 q 739 26 744 8 q 733 63 733 43 l 733 367 q 708 521 733 460 q 633 612 683 582 q 504 642 582 642 l 401 642 l 401 97 q 380 16 401 44 q 317 -12 358 -12 l 147 -12 z "},"תּ":{"ha":975,"x_min":61,"x_max":900,"o":"m 147 -12 q 104 -8 124 -12 q 73 15 85 -3 q 61 71 61 33 q 73 127 61 110 q 104 150 85 144 q 146 156 124 156 l 232 156 l 232 696 l 324 642 q 245 636 281 638 q 185 640 210 635 q 147 662 160 646 q 133 708 133 678 q 158 785 133 763 q 249 807 183 807 l 488 810 q 717 763 625 811 q 854 616 808 714 q 900 371 900 518 l 900 72 q 895 31 900 50 q 873 -1 890 11 q 818 -12 856 -12 q 763 -2 781 -12 q 739 26 744 8 q 733 63 733 43 l 733 367 q 708 521 733 460 q 633 612 683 582 q 504 642 582 642 l 401 642 l 401 97 q 380 16 401 44 q 317 -12 358 -12 l 147 -12 m 551 356 q 515 372 529 356 q 500 413 500 389 q 516 451 500 435 q 551 467 532 467 q 588 451 572 467 q 604 413 604 435 q 590 372 604 389 q 551 356 575 356 z "},"¹":{"ha":431,"x_min":32,"x_max":349,"o":"m 274 265 q 224 275 240 265 q 205 300 208 285 q 201 331 201 315 l 201 739 q 163 714 182 725 q 124 692 143 703 q 89 691 106 685 q 57 715 72 697 q 35 767 32 744 q 64 814 39 790 l 218 942 q 245 959 231 953 q 275 965 260 965 q 331 949 313 965 q 349 897 349 932 l 349 329 q 344 298 349 313 q 324 274 340 283 q 274 265 308 265 z "},"²":{"ha":610,"x_min":32,"x_max":571,"o":"m 113 268 q 71 278 89 268 q 43 306 53 289 q 33 346 33 324 q 38 388 33 368 q 55 426 42 408 q 90 461 68 444 q 203 535 149 501 q 300 599 257 568 q 369 666 343 631 q 394 743 394 701 q 383 788 394 767 q 348 822 371 808 q 288 835 325 835 q 225 818 249 835 q 191 776 201 801 q 181 722 181 750 q 175 685 181 701 q 153 659 169 669 q 103 649 138 649 q 52 662 67 649 q 35 693 38 675 q 32 726 32 711 q 65 859 32 801 q 155 949 97 917 q 288 982 213 982 q 421 951 364 982 q 510 863 478 919 q 543 731 543 806 q 532 661 543 694 q 500 598 521 628 q 449 540 479 568 q 383 483 419 511 q 301 426 346 454 l 253 415 l 506 415 q 537 411 522 415 q 561 391 551 407 q 571 340 571 375 q 561 292 571 308 q 537 272 551 276 q 506 268 522 268 l 113 268 z "},"³":{"ha":613,"x_min":31,"x_max":557,"o":"m 292 254 q 163 283 221 254 q 69 361 104 313 q 31 468 33 410 q 40 500 31 486 q 68 521 50 514 q 110 528 86 528 q 153 515 142 528 q 172 479 165 501 q 193 441 178 461 q 233 407 208 421 q 294 393 258 393 q 358 406 332 393 q 396 441 383 419 q 408 485 408 463 q 382 547 408 525 q 303 568 356 568 q 269 572 283 568 q 247 591 254 576 q 240 635 240 606 q 248 672 240 660 q 269 688 256 683 q 300 692 283 692 q 364 710 342 692 q 386 761 386 728 q 361 817 386 794 q 296 839 336 839 q 249 830 268 839 q 219 807 231 821 q 197 775 207 793 q 180 752 192 763 q 146 742 168 742 q 117 747 131 742 q 88 765 104 753 q 63 819 58 790 q 88 869 69 842 q 137 922 107 897 q 208 963 167 947 q 299 979 249 979 q 420 951 367 979 q 506 876 474 924 q 538 771 538 829 q 520 698 538 732 q 472 640 503 664 q 517 599 497 624 q 547 546 536 574 q 557 488 557 518 q 522 368 557 421 q 428 285 488 315 q 292 254 368 254 z "},"⁄":{"ha":678,"x_min":25,"x_max":651,"o":"m 61 -37 q 31 -12 38 -25 q 30 15 25 0 q 43 44 35 29 l 539 982 q 558 1009 549 999 q 581 1022 567 1019 q 617 1011 596 1024 q 646 986 640 999 q 647 960 651 974 q 633 929 642 947 l 136 -8 q 119 -35 129 -24 q 97 -47 110 -46 q 61 -37 83 -49 z "},"½":{"ha":1078,"x_min":90,"x_max":1022,"o":"m 203 -37 q 177 -16 185 -26 q 172 8 169 -6 q 183 42 174 22 l 681 982 q 703 1013 692 1003 q 728 1022 714 1022 q 758 1011 742 1021 q 783 991 776 1001 q 789 967 790 981 q 776 933 788 953 l 276 -10 q 257 -37 268 -28 q 233 -47 246 -47 q 203 -37 219 -46 m 283 456 q 242 464 256 456 q 225 485 229 472 q 221 513 221 499 l 221 804 q 195 788 208 796 q 169 772 182 779 q 140 769 153 765 q 113 788 126 772 q 90 833 90 811 q 117 876 90 854 l 233 979 q 258 997 246 992 q 285 1001 269 1001 q 332 987 317 1001 q 347 942 347 972 l 347 511 q 344 484 347 497 q 326 463 340 471 q 283 456 313 456 m 649 -12 q 615 -4 629 -12 q 592 20 600 4 q 583 54 583 36 q 589 92 583 75 q 607 124 594 108 q 642 153 619 139 q 731 208 689 182 q 805 258 772 233 q 856 312 838 283 q 875 376 875 340 q 867 408 875 393 q 840 431 858 422 q 792 440 822 440 q 742 428 761 440 q 715 395 724 415 q 707 351 707 375 q 703 322 707 335 q 685 300 699 308 q 640 292 671 292 q 599 302 611 292 q 584 328 586 313 q 582 356 582 343 q 608 465 582 417 q 683 539 635 513 q 792 565 731 565 q 900 540 853 565 q 974 469 947 514 q 1001 365 1001 424 q 987 295 1001 328 q 944 233 972 263 q 880 175 917 203 q 796 118 843 147 l 776 113 l 969 113 q 994 108 982 113 q 1014 90 1006 104 q 1022 47 1022 76 q 1015 8 1022 21 q 995 -9 1007 -6 q 968 -12 983 -12 l 649 -12 z "},"¼":{"ha":1054,"x_min":69,"x_max":968,"o":"m 197 -37 q 172 -16 179 -26 q 166 8 164 -6 q 179 42 168 22 l 676 982 q 699 1013 688 1003 q 724 1022 710 1022 q 754 1011 738 1021 q 778 991 771 1001 q 784 967 786 981 q 772 933 782 953 l 272 -10 q 251 -37 263 -28 q 228 -47 240 -47 q 197 -37 215 -46 m 903 -12 q 860 -4 874 -12 q 843 17 847 4 q 839 46 839 31 l 839 142 l 622 142 q 580 158 594 142 q 565 201 565 174 q 567 221 565 211 q 571 242 568 231 l 649 517 q 674 565 658 556 q 724 567 690 574 q 760 551 747 561 q 775 524 772 540 q 772 485 778 508 l 708 263 l 839 263 l 839 508 q 843 536 839 524 q 861 556 847 549 q 904 564 875 564 q 947 556 933 564 q 965 533 961 547 q 968 503 968 519 l 968 43 q 964 17 968 31 q 947 -4 960 4 q 903 -12 933 -12 m 263 456 q 222 464 235 456 q 204 485 208 472 q 200 513 200 499 l 200 804 q 174 788 188 796 q 149 772 161 779 q 119 768 132 764 q 92 788 106 772 q 69 833 69 811 q 96 876 69 854 l 213 979 q 237 997 225 992 q 264 1001 249 1001 q 311 987 296 1001 q 326 942 326 972 l 326 511 q 323 484 326 497 q 306 463 319 471 q 263 456 292 456 z "},"¾":{"ha":1104,"x_min":76,"x_max":1031,"o":"m 271 -37 q 244 -16 253 -26 q 238 9 236 -6 q 251 42 240 24 l 749 982 q 772 1012 761 1003 q 797 1021 783 1021 q 826 1011 810 1021 q 851 991 844 1001 q 857 967 858 981 q 844 933 856 953 l 344 -10 q 324 -37 335 -28 q 301 -46 314 -46 q 271 -37 288 -46 m 269 453 q 174 475 218 453 q 105 533 131 497 q 76 613 79 569 q 87 640 76 631 q 111 652 97 649 q 135 656 125 656 q 172 644 163 656 q 183 621 181 633 q 199 592 189 608 q 227 565 208 576 q 272 554 246 554 q 333 574 307 554 q 358 625 358 593 q 340 669 358 651 q 274 688 321 688 q 243 697 254 688 q 232 736 232 706 q 244 769 232 763 q 274 776 256 776 q 325 791 307 776 q 343 831 343 806 q 323 874 343 858 q 274 889 303 889 q 239 884 253 889 q 216 870 225 879 q 200 847 207 861 q 188 826 194 836 q 161 817 181 817 q 118 835 139 817 q 100 875 97 853 q 129 926 107 899 q 189 972 151 953 q 275 992 226 992 q 369 970 329 992 q 431 914 408 949 q 453 839 453 879 q 438 777 453 801 q 404 740 422 753 q 451 691 433 722 q 468 626 468 660 q 444 541 468 581 q 376 477 421 501 q 269 453 332 453 m 965 -12 q 923 -4 936 -12 q 906 17 910 4 q 901 46 901 31 l 901 142 l 685 142 q 642 158 657 142 q 628 201 628 174 q 629 221 628 211 q 633 242 631 231 l 711 517 q 737 565 721 556 q 786 567 753 575 q 822 551 810 561 q 838 524 835 540 q 835 485 840 508 l 771 263 l 901 263 l 901 508 q 906 536 901 524 q 924 556 910 549 q 967 564 938 564 q 1010 556 996 564 q 1027 533 1024 547 q 1031 503 1031 519 l 1031 43 q 1026 17 1031 31 q 1009 -4 1022 4 q 965 -12 996 -12 z "},".":{"ha":297,"x_min":56,"x_max":243,"o":"m 149 -14 q 76 6 97 -14 q 56 78 56 26 q 65 134 56 114 q 94 164 74 154 q 150 174 115 174 q 222 153 201 174 q 243 79 243 132 q 234 24 243 44 q 205 -6 225 3 q 149 -14 185 -14 z "},",":{"ha":313,"x_min":61,"x_max":249,"o":"m 85 -156 q 79 -154 85 -156 q 68 -144 74 -153 q 63 -115 63 -135 q 71 -81 63 -89 q 82 -72 79 -72 q 101 -56 83 -71 q 122 -7 119 -42 q 98 1 108 -4 q 79 14 88 6 q 64 47 67 26 q 61 86 61 67 q 66 129 63 108 q 90 164 69 150 q 156 178 110 178 q 231 156 208 178 q 246 123 243 143 q 249 83 249 103 q 248 64 249 74 q 246 46 247 54 q 217 -56 240 -10 q 160 -128 194 -101 q 85 -156 126 -156 z "},":":{"ha":319,"x_min":60,"x_max":247,"o":"m 154 447 q 81 468 101 447 q 60 539 60 489 q 69 596 60 575 q 99 626 78 617 q 154 635 119 635 q 227 614 207 635 q 247 540 247 593 q 239 486 247 507 q 210 456 231 465 q 154 447 189 447 m 153 -14 q 81 6 101 -14 q 60 78 60 26 q 69 134 60 114 q 99 164 78 154 q 154 174 119 174 q 226 153 206 174 q 247 79 247 132 q 238 24 247 44 q 209 -6 229 3 q 153 -14 189 -14 z "},";":{"ha":300,"x_min":56,"x_max":243,"o":"m 81 -157 q 75 -155 81 -157 q 64 -144 69 -153 q 58 -115 58 -135 q 67 -81 58 -89 q 78 -72 75 -74 q 97 -56 79 -71 q 118 -7 115 -42 q 94 1 104 -4 q 76 13 83 6 q 60 45 63 26 q 57 83 57 64 q 64 136 57 115 q 91 167 71 157 q 151 178 111 178 q 226 156 204 178 q 241 124 239 143 q 243 85 243 104 q 243 62 243 71 q 242 46 243 53 q 213 -56 236 -10 q 156 -129 190 -101 q 81 -157 122 -157 m 149 446 q 76 467 96 446 q 56 538 56 489 q 63 594 56 574 q 92 624 71 615 q 150 633 114 633 q 224 613 204 633 q 243 539 243 592 q 238 492 243 514 q 213 458 232 471 q 149 446 193 446 z "},"…":{"ha":939,"x_min":63,"x_max":876,"o":"m 469 -14 q 397 6 418 -14 q 376 78 376 26 q 385 134 376 114 q 415 164 394 154 q 471 174 436 174 q 543 153 522 174 q 564 79 564 132 q 555 24 564 44 q 526 -6 546 3 q 469 -14 506 -14 m 782 -14 q 710 6 731 -14 q 689 78 689 26 q 698 134 689 114 q 728 164 707 154 q 783 174 749 174 q 856 153 835 174 q 876 79 876 132 q 867 24 876 44 q 838 -6 858 3 q 782 -14 818 -14 m 157 -14 q 85 6 106 -14 q 64 78 64 26 q 73 134 64 114 q 103 164 82 154 q 158 174 124 174 q 231 153 210 174 q 251 79 251 132 q 242 24 251 44 q 213 -6 233 3 q 157 -14 193 -14 z "},"!":{"ha":329,"x_min":72,"x_max":257,"o":"m 165 282 q 108 292 126 282 q 86 320 90 303 q 82 358 82 338 l 82 882 q 86 921 82 903 q 108 949 90 939 q 165 960 126 960 q 222 949 204 960 q 244 921 239 939 q 249 882 249 903 l 249 360 q 244 320 249 338 q 222 292 239 303 q 165 282 204 282 m 165 -14 q 91 7 110 -14 q 72 79 72 28 q 78 126 72 104 q 103 160 83 147 q 165 172 122 172 q 239 151 221 172 q 257 79 257 131 q 252 33 257 54 q 228 -1 247 11 q 165 -14 208 -14 z "},"¡":{"ha":329,"x_min":72,"x_max":257,"o":"m 165 392 q 222 381 204 392 q 244 353 239 371 q 249 314 249 336 l 249 -208 q 244 -247 249 -229 q 222 -276 239 -265 q 165 -286 204 -286 q 108 -276 126 -286 q 86 -247 90 -265 q 82 -208 82 -229 l 82 315 q 86 353 82 336 q 108 381 90 371 q 165 392 126 392 m 165 688 q 228 675 208 688 q 252 642 247 663 q 257 594 257 621 q 239 522 257 543 q 165 501 221 501 q 103 514 122 501 q 78 548 83 526 q 72 594 72 569 q 91 667 72 646 q 165 688 110 688 z "},"?":{"ha":675,"x_min":44,"x_max":628,"o":"m 339 281 q 286 290 303 281 q 266 317 269 300 q 263 356 263 335 l 263 446 q 278 499 263 479 q 317 531 293 518 q 369 556 342 544 q 420 584 396 568 q 460 626 444 600 q 475 696 475 653 q 440 794 475 760 q 332 828 404 828 q 272 817 299 828 q 228 790 246 807 q 203 749 211 772 q 183 708 194 722 q 153 692 171 694 q 106 699 136 689 q 63 722 76 711 q 47 750 49 733 q 53 793 44 767 q 69 835 57 811 q 103 884 82 858 q 158 931 125 910 q 233 966 190 953 q 332 979 276 979 q 488 944 421 979 q 591 845 554 908 q 628 699 628 782 q 614 608 628 649 q 576 538 600 568 q 522 485 551 507 q 464 449 493 463 q 410 428 435 435 l 418 443 l 418 350 q 414 315 418 331 q 393 290 410 299 q 339 281 376 281 m 338 -14 q 263 8 281 -14 q 244 81 244 31 q 249 123 244 101 q 272 159 253 144 q 339 174 292 174 q 415 151 397 174 q 432 79 432 129 q 428 35 432 57 q 405 0 425 14 q 338 -14 385 -14 z "},"¿":{"ha":660,"x_min":42,"x_max":625,"o":"m 332 388 q 384 378 368 388 q 404 351 400 368 q 408 314 408 335 l 408 222 q 393 169 408 189 q 353 137 378 150 q 302 113 329 124 q 251 85 275 101 q 211 42 226 68 q 196 -26 196 17 q 231 -125 196 -92 q 338 -158 267 -158 q 398 -148 372 -158 q 442 -119 424 -137 q 468 -79 460 -101 q 488 -40 478 -54 q 517 -22 499 -25 q 564 -31 536 -19 q 608 -53 594 -40 q 624 -81 622 -65 q 618 -124 625 -97 q 601 -166 614 -142 q 566 -215 588 -190 q 513 -262 544 -240 q 438 -297 481 -283 q 338 -311 394 -311 q 183 -275 250 -311 q 78 -176 115 -239 q 42 -31 42 -112 q 56 61 42 21 q 94 132 71 101 q 147 184 118 163 q 206 219 176 206 q 261 240 235 233 l 251 225 l 251 319 q 256 355 251 339 q 278 379 261 371 q 332 388 296 388 m 332 683 q 408 661 390 683 q 425 589 425 639 q 422 545 425 567 q 399 510 418 524 q 332 496 379 496 q 256 518 274 496 q 238 590 238 540 q 242 633 238 613 q 266 669 246 654 q 332 683 286 683 z "},"·":{"ha":269,"x_min":42,"x_max":229,"o":"m 136 306 q 61 327 81 306 q 42 399 42 349 q 60 469 42 446 q 136 493 78 493 q 210 472 190 493 q 229 399 229 450 q 211 328 229 351 q 136 306 193 306 z "},"•":{"ha":365,"x_min":42,"x_max":325,"o":"m 183 267 q 105 283 136 267 q 58 330 74 299 q 42 408 42 361 q 58 487 42 456 q 105 534 74 518 q 183 550 136 550 q 262 534 231 550 q 309 487 293 518 q 325 408 325 456 q 309 331 325 363 q 262 283 293 299 q 183 267 231 267 z "},"*":{"ha":675,"x_min":39,"x_max":611,"o":"m 325 931 q 383 914 367 931 q 400 857 400 897 l 400 754 l 521 793 q 568 790 550 801 q 597 742 586 778 q 601 682 611 703 q 551 649 590 661 l 443 615 l 521 507 q 531 460 538 481 q 493 418 525 440 q 438 398 461 394 q 394 433 415 401 l 325 528 l 251 426 q 210 399 232 400 q 154 422 188 399 q 119 465 124 444 q 136 517 115 486 l 206 615 l 90 650 q 48 678 57 658 q 51 738 39 699 q 84 790 65 778 q 135 790 103 801 l 253 753 l 253 860 q 269 915 253 899 q 325 931 286 931 z "},"#":{"ha":1060,"x_min":51,"x_max":1008,"o":"m 257 -15 q 210 -1 224 -15 q 201 47 196 14 l 229 218 l 104 218 q 63 233 74 218 q 57 282 51 247 q 72 330 61 315 q 100 349 83 344 q 138 354 117 354 l 250 354 l 285 563 l 160 563 q 119 576 131 563 q 114 625 108 590 q 129 672 118 657 q 157 692 140 688 q 193 696 174 696 l 307 696 l 336 876 q 349 926 342 907 q 374 956 356 946 q 433 967 393 967 q 483 950 469 967 q 492 896 497 933 l 458 696 l 701 696 l 729 872 q 741 924 735 903 q 765 956 747 944 q 824 967 783 967 q 876 951 861 967 q 885 901 890 936 l 853 696 l 956 696 q 999 681 989 696 q 1001 629 1008 665 q 983 583 994 597 q 956 566 971 569 q 924 563 940 563 l 829 563 l 797 354 l 899 354 q 941 338 931 354 q 944 292 951 321 q 926 242 938 257 q 900 222 915 226 q 867 218 885 218 l 772 218 l 749 71 q 738 26 746 46 q 709 -4 729 7 q 650 -15 689 -15 q 604 -1 619 -15 q 594 47 589 14 l 621 218 l 379 218 l 356 72 q 343 26 351 46 q 315 -4 335 7 q 257 -15 296 -15 m 401 354 l 646 354 l 678 563 l 438 563 l 401 354 z "},"/":{"ha":706,"x_min":19,"x_max":660,"o":"m 74 -67 q 26 -23 33 -46 q 42 44 19 0 l 497 949 q 527 992 513 979 q 562 1005 542 1006 q 608 990 582 1004 q 649 962 638 976 q 657 927 660 947 q 639 876 654 907 l 182 -24 q 138 -77 161 -69 q 74 -67 115 -85 z "},"\\":{"ha":708,"x_min":25,"x_max":651,"o":"m 599 -65 q 553 -78 572 -78 q 518 -63 533 -78 q 490 -22 503 -49 l 46 890 q 33 956 25 932 q 81 1000 42 981 q 145 1010 121 1019 q 190 957 169 1000 l 631 50 q 644 -22 651 3 q 599 -65 638 -46 z "},"(":{"ha":515,"x_min":60,"x_max":464,"o":"m 393 -232 q 274 -197 328 -232 q 181 -100 221 -162 q 114 44 142 -37 q 73 222 86 126 q 60 415 60 317 q 73 609 60 514 q 113 788 86 704 q 180 934 140 871 q 274 1033 219 997 q 394 1069 328 1069 q 431 1065 415 1069 q 455 1045 446 1060 q 464 1000 464 1031 q 456 953 464 968 q 433 935 447 939 q 400 931 418 931 l 393 931 q 307 872 349 931 q 240 701 265 814 q 214 418 214 588 q 227 210 214 304 q 265 49 240 117 q 322 -57 289 -19 q 394 -94 356 -94 q 431 -99 415 -94 q 455 -117 446 -103 q 464 -164 464 -132 q 454 -210 464 -196 q 428 -228 444 -225 q 393 -232 413 -232 z "},")":{"ha":515,"x_min":50,"x_max":454,"o":"m 119 -232 q 84 -228 100 -232 q 59 -210 68 -225 q 50 -164 50 -196 q 59 -117 50 -132 q 84 -99 68 -103 q 118 -94 100 -94 q 191 -57 158 -94 q 248 49 224 -19 q 286 210 272 117 q 300 418 300 304 q 274 701 300 588 q 206 872 247 814 q 119 931 165 931 l 113 931 q 81 935 96 931 q 58 953 67 939 q 50 1000 50 968 q 59 1045 50 1031 q 84 1065 68 1060 q 118 1069 100 1069 q 240 1033 186 1069 q 333 934 293 997 q 401 788 374 871 q 441 609 428 704 q 454 415 454 514 q 440 222 454 317 q 399 44 426 126 q 332 -100 372 -37 q 239 -197 292 -162 q 119 -232 186 -232 z "},"{":{"ha":511,"x_min":26,"x_max":454,"o":"m 379 -228 q 297 -215 333 -228 q 238 -174 261 -201 q 201 -108 214 -147 q 189 -17 189 -68 l 188 263 q 181 303 188 288 q 160 327 174 318 q 129 340 147 336 q 89 344 111 344 l 75 344 q 38 362 49 344 q 26 417 26 379 q 34 467 26 451 q 53 487 42 482 q 74 492 64 492 l 85 492 q 126 495 107 492 q 158 508 144 499 q 180 533 172 517 q 188 574 188 549 l 189 858 q 201 947 189 908 q 238 1012 214 986 q 297 1051 261 1038 q 378 1065 332 1065 q 417 1061 400 1065 q 444 1041 433 1057 q 454 992 454 1025 q 444 944 454 960 q 417 923 433 928 q 379 918 400 918 q 353 912 363 918 q 339 890 343 906 q 335 847 335 875 l 335 607 q 330 535 335 567 q 314 481 325 504 q 283 440 303 457 q 238 411 264 422 q 283 381 264 400 q 314 337 303 363 q 330 279 325 311 q 335 210 335 247 l 335 -31 q 339 -60 335 -49 q 352 -77 343 -72 q 378 -82 361 -82 q 417 -86 400 -82 q 444 -106 433 -90 q 454 -156 454 -121 q 444 -205 454 -189 q 417 -224 433 -221 q 379 -228 400 -228 z "},"}":{"ha":511,"x_min":26,"x_max":454,"o":"m 100 -228 q 64 -224 81 -228 q 37 -205 47 -221 q 26 -156 26 -189 q 37 -106 26 -121 q 65 -86 47 -90 q 101 -82 82 -82 q 128 -77 118 -82 q 142 -60 138 -72 q 146 -31 146 -49 l 146 210 q 151 279 146 247 q 167 337 156 311 q 197 381 178 363 q 243 411 215 400 q 197 440 215 422 q 167 481 178 457 q 151 535 156 504 q 146 607 146 567 l 146 847 q 141 890 146 875 q 127 912 136 906 q 101 918 118 918 q 63 923 81 918 q 36 944 46 928 q 26 992 26 960 q 36 1041 26 1025 q 63 1061 46 1057 q 101 1065 81 1065 q 183 1051 149 1065 q 242 1012 218 1038 q 279 947 267 986 q 292 858 292 908 l 293 574 q 300 533 293 549 q 321 508 307 517 q 353 495 335 499 q 394 492 372 492 l 406 492 q 428 487 417 492 q 447 467 439 482 q 454 417 454 451 q 443 362 454 379 q 404 344 432 344 l 390 344 q 350 340 368 344 q 319 327 332 336 q 299 302 306 318 q 292 263 292 286 l 292 -17 q 279 -108 292 -68 q 242 -174 267 -147 q 183 -215 218 -201 q 100 -228 147 -228 z "},"[":{"ha":467,"x_min":54,"x_max":418,"o":"m 135 -228 q 80 -217 97 -228 q 58 -186 63 -206 q 54 -144 54 -167 l 54 981 q 58 1023 54 1004 q 80 1053 63 1042 q 135 1064 97 1064 l 356 1064 q 388 1060 374 1064 q 410 1041 401 1057 q 418 990 418 1025 q 410 940 418 956 q 387 921 401 925 q 354 917 372 917 l 213 917 l 213 -81 l 354 -81 q 387 -85 372 -81 q 410 -105 401 -89 q 418 -156 418 -121 q 410 -205 418 -189 q 388 -224 401 -221 q 356 -228 374 -228 l 135 -228 z "},"]":{"ha":467,"x_min":38,"x_max":403,"o":"m 101 -228 q 69 -224 85 -228 q 46 -205 54 -221 q 38 -156 38 -189 q 47 -105 38 -121 q 70 -85 56 -89 q 101 -81 85 -81 l 243 -81 l 243 917 l 103 917 q 70 921 85 917 q 47 940 56 925 q 38 990 38 956 q 46 1041 38 1025 q 69 1060 54 1057 q 100 1064 83 1064 l 321 1064 q 376 1053 358 1064 q 398 1023 393 1042 q 403 981 403 1004 l 403 -144 q 398 -186 403 -167 q 376 -217 393 -206 q 321 -228 360 -228 l 101 -228 z "},"-":{"ha":581,"x_min":14,"x_max":504,"o":"m 88 278 q 52 282 69 278 q 24 303 35 286 q 14 357 14 319 q 24 409 14 393 q 52 430 35 425 q 86 435 69 435 l 432 435 q 467 430 450 435 q 494 409 483 425 q 504 356 504 393 q 494 303 504 319 q 467 282 483 286 q 431 278 450 278 l 88 278 z "},"–":{"ha":767,"x_min":14,"x_max":704,"o":"m 88 275 q 53 280 69 275 q 25 301 36 285 q 14 356 14 318 q 25 409 14 393 q 53 430 36 425 q 89 435 71 435 l 631 435 q 667 430 650 435 q 694 408 683 425 q 704 354 704 392 q 694 301 704 318 q 667 280 683 285 q 628 275 650 275 l 88 275 z "},"—":{"ha":943,"x_min":14,"x_max":881,"o":"m 88 275 q 53 280 69 275 q 25 301 36 285 q 14 356 14 318 q 25 409 14 393 q 53 430 36 425 q 89 435 71 435 l 807 435 q 843 430 826 435 q 870 408 860 425 q 881 354 881 392 q 870 301 881 318 q 843 280 860 285 q 804 275 826 275 l 88 275 z "},"_":{"ha":1107,"x_min":44,"x_max":1065,"o":"m 111 -235 q 78 -231 93 -235 q 53 -211 63 -226 q 44 -164 44 -196 q 53 -114 44 -129 q 78 -94 63 -99 q 110 -90 93 -90 l 1000 -90 q 1033 -94 1018 -90 q 1057 -114 1049 -99 q 1065 -164 1065 -129 q 1056 -212 1065 -197 q 1032 -231 1047 -226 q 999 -235 1017 -235 l 111 -235 z "},"‚":{"ha":258,"x_min":35,"x_max":221,"o":"m 58 -156 q 53 -154 58 -156 q 42 -144 47 -153 q 36 -115 36 -135 q 44 -81 36 -89 q 56 -72 53 -72 q 75 -56 57 -71 q 96 -7 93 -42 q 72 1 82 -4 q 53 14 61 6 q 38 47 40 26 q 35 86 35 67 q 40 129 36 108 q 63 164 43 150 q 129 178 83 178 q 204 156 182 178 q 219 123 217 143 q 222 83 222 103 q 222 64 222 74 q 219 46 221 54 q 191 -56 214 -10 q 134 -128 168 -101 q 58 -156 100 -156 z "},"„":{"ha":479,"x_min":44,"x_max":442,"o":"m 68 -156 q 63 -154 68 -156 q 51 -144 57 -153 q 46 -115 46 -135 q 54 -81 46 -89 q 65 -72 63 -72 q 85 -56 67 -71 q 106 -7 103 -42 q 81 1 92 -4 q 63 14 71 6 q 47 47 50 26 q 44 86 44 67 q 49 129 46 108 q 73 164 53 150 q 139 178 93 178 q 214 156 192 178 q 229 123 226 143 q 232 83 232 103 q 231 64 232 74 q 229 46 231 54 q 201 -56 224 -10 q 144 -128 178 -101 q 68 -156 110 -156 m 279 -156 q 274 -154 279 -156 q 263 -144 268 -153 q 257 -115 257 -135 q 265 -81 257 -89 q 276 -72 274 -72 q 296 -56 278 -71 q 317 -7 314 -42 q 292 1 303 -4 q 274 14 282 6 q 258 47 261 26 q 256 86 256 67 q 260 129 257 108 q 284 164 264 150 q 350 178 304 178 q 425 156 403 178 q 440 123 438 143 q 443 83 443 103 q 442 64 443 74 q 440 46 442 54 q 412 -56 435 -10 q 355 -128 389 -101 q 279 -156 321 -156 z "},"“":{"ha":479,"x_min":40,"x_max":433,"o":"m 410 958 q 415 957 410 958 q 426 947 421 956 q 432 918 432 939 q 424 884 432 892 q 413 875 415 876 q 394 860 411 874 q 372 810 376 846 q 397 802 386 807 q 415 789 407 797 q 431 756 428 776 q 433 717 433 736 q 429 674 433 694 q 406 639 425 653 q 339 625 386 625 q 264 647 286 625 q 249 680 251 660 q 246 719 246 700 q 247 739 246 729 q 249 757 247 749 q 277 858 254 813 q 335 931 300 904 q 410 958 369 958 m 203 958 q 209 957 203 958 q 221 947 215 956 q 226 918 226 939 q 218 884 226 892 q 206 875 210 876 q 188 860 204 874 q 165 810 171 846 q 190 802 179 807 q 208 789 200 797 q 224 756 222 776 q 226 717 226 736 q 222 674 226 694 q 199 639 218 653 q 132 625 179 625 q 58 647 79 625 q 42 680 44 660 q 40 719 40 700 q 41 739 40 729 q 43 757 42 749 q 71 858 49 813 q 128 931 93 904 q 203 958 163 958 z "},"”":{"ha":479,"x_min":39,"x_max":438,"o":"m 63 626 q 57 628 63 626 q 46 638 51 629 q 40 667 40 647 q 49 701 40 693 q 60 710 57 710 q 79 726 61 711 q 100 775 97 740 q 76 783 86 778 q 57 796 65 788 q 42 828 44 808 q 39 868 39 849 q 44 911 40 890 q 67 946 47 932 q 133 960 88 960 q 208 938 186 960 q 224 905 221 925 q 226 865 226 885 q 226 846 226 856 q 224 828 225 836 q 195 726 218 772 q 138 653 172 681 q 63 626 104 626 m 275 626 q 269 628 275 626 q 258 638 264 629 q 253 667 253 647 q 261 701 253 693 q 272 710 269 710 q 292 726 274 711 q 313 775 310 740 q 288 783 299 778 q 269 796 278 788 q 254 828 257 808 q 251 868 251 849 q 256 911 253 890 q 280 946 260 932 q 346 960 300 960 q 421 938 399 960 q 436 905 433 925 q 439 865 439 885 q 438 846 439 856 q 436 828 438 836 q 408 726 431 772 q 351 653 385 681 q 275 626 317 626 z "},"‘":{"ha":256,"x_min":31,"x_max":218,"o":"m 194 958 q 200 957 194 958 q 211 947 206 956 q 217 918 217 939 q 208 884 217 892 q 197 875 200 876 q 178 860 196 874 q 157 810 161 846 q 181 802 171 807 q 200 789 192 797 q 215 756 213 776 q 218 717 218 736 q 214 674 218 694 q 190 639 210 653 q 124 625 171 625 q 49 647 71 625 q 33 680 36 660 q 31 719 31 700 q 31 739 31 729 q 33 757 32 749 q 62 858 39 813 q 119 931 85 904 q 194 958 154 958 z "},"’":{"ha":247,"x_min":32,"x_max":219,"o":"m 56 557 q 50 558 56 557 q 39 569 44 560 q 33 597 33 578 q 42 632 33 624 q 53 640 50 640 q 72 656 54 642 q 93 706 90 671 q 69 713 79 708 q 50 726 58 718 q 35 759 38 739 q 32 799 32 779 q 37 842 33 821 q 60 876 40 863 q 126 890 81 890 q 201 868 179 890 q 217 835 214 856 q 219 796 219 815 q 219 776 219 786 q 217 758 218 767 q 188 657 211 703 q 131 584 165 611 q 56 557 97 557 z "},"«":{"ha":801,"x_min":21,"x_max":783,"o":"m 419 11 q 381 -19 399 -11 q 347 -19 364 -26 q 310 7 331 -12 l 49 267 q 28 294 35 281 q 22 322 22 308 q 28 351 22 338 q 49 378 35 364 l 311 639 q 349 665 332 660 q 382 663 365 671 q 419 635 399 656 q 447 595 443 613 q 440 562 450 578 q 410 525 431 546 l 207 322 l 410 119 q 441 83 431 99 q 447 50 451 67 q 419 11 442 33 m 753 11 q 715 -19 732 -11 q 681 -19 697 -26 q 643 7 664 -12 l 382 267 q 362 294 368 281 q 356 322 356 308 q 362 351 356 338 q 382 378 368 364 l 644 639 q 682 665 665 660 q 715 663 699 671 q 753 635 732 656 q 780 595 776 613 q 774 562 783 578 q 743 525 764 546 l 540 322 l 743 119 q 774 83 764 99 q 780 50 785 67 q 753 11 775 33 z "},"»":{"ha":790,"x_min":8,"x_max":769,"o":"m 40 11 q 13 50 18 33 q 19 83 8 67 q 50 119 29 99 l 253 322 l 50 525 q 20 562 31 546 q 14 595 10 578 q 40 635 18 613 q 78 663 61 656 q 112 665 94 671 q 149 639 129 660 l 411 378 q 431 351 425 364 q 438 322 438 338 q 431 294 438 308 q 411 267 425 281 l 150 7 q 114 -19 131 -12 q 80 -19 97 -26 q 40 11 63 -11 m 372 11 q 345 50 350 33 q 351 83 340 67 q 382 119 361 99 l 585 322 l 382 525 q 352 562 363 546 q 346 595 342 578 q 372 635 350 613 q 410 663 393 656 q 444 665 426 671 q 481 639 461 660 l 743 378 q 763 351 757 364 q 769 322 769 338 q 763 294 769 308 q 743 267 757 281 l 482 7 q 446 -19 463 -12 q 412 -19 429 -26 q 372 11 394 -11 z "},"‹":{"ha":490,"x_min":33,"x_max":463,"o":"m 431 11 q 392 -19 410 -11 q 358 -19 375 -26 q 321 7 342 -12 l 60 267 q 40 294 46 281 q 33 322 33 308 q 40 351 33 338 q 60 378 46 364 l 322 639 q 360 665 343 660 q 393 663 376 671 q 431 635 410 656 q 458 595 454 613 q 451 562 461 578 q 421 525 442 546 l 218 322 l 421 119 q 452 83 442 99 q 458 50 463 67 q 431 11 453 33 z "},"›":{"ha":474,"x_min":21,"x_max":450,"o":"m 53 11 q 26 50 31 33 q 31 83 21 67 q 63 119 42 99 l 265 322 l 63 525 q 33 562 43 546 q 26 595 22 578 q 53 635 31 613 q 90 663 74 656 q 124 665 107 671 q 161 639 142 660 l 424 378 q 444 351 438 364 q 450 322 450 338 q 444 294 450 308 q 424 267 438 281 l 163 7 q 126 -19 143 -12 q 92 -19 110 -26 q 53 11 75 -11 z "},"\"":{"ha":494,"x_min":56,"x_max":439,"o":"m 357 571 q 328 590 340 571 q 306 639 315 608 q 290 708 296 669 q 280 784 283 746 q 276 854 276 822 q 280 900 276 878 q 301 937 283 922 q 360 951 318 951 q 416 936 400 951 q 435 899 432 921 q 439 854 439 876 q 436 784 439 822 q 427 708 433 746 q 411 639 421 669 q 388 590 401 608 q 357 571 375 571 m 136 571 q 106 590 119 571 q 84 639 93 608 q 68 708 75 669 q 58 784 61 746 q 56 854 56 822 q 59 900 56 878 q 79 937 63 922 q 138 951 96 951 q 194 936 178 951 q 213 899 210 921 q 217 854 217 876 q 214 784 217 822 q 205 708 211 746 q 189 639 199 669 q 166 590 179 608 q 136 571 153 571 z "},"'":{"ha":257,"x_min":49,"x_max":210,"o":"m 128 571 q 98 590 111 571 q 76 639 85 608 q 60 708 67 669 q 51 784 54 746 q 49 854 49 822 q 52 900 49 878 q 72 937 56 922 q 129 951 89 951 q 186 936 169 951 q 206 899 203 921 q 210 854 210 876 q 207 784 210 822 q 197 708 204 746 q 181 639 190 669 q 158 590 171 608 q 128 571 144 571 z "},"׳":{"ha":256,"x_min":32,"x_max":219,"o":"m 56 626 q 50 628 56 626 q 39 638 44 629 q 33 667 33 647 q 42 701 33 693 q 53 710 50 710 q 72 726 54 711 q 93 775 90 740 q 69 783 79 778 q 50 796 58 788 q 35 828 38 808 q 32 868 32 849 q 37 911 33 890 q 60 946 40 932 q 126 960 81 960 q 201 938 179 960 q 217 905 214 925 q 219 865 219 885 q 219 846 219 856 q 217 828 218 836 q 188 726 211 772 q 131 653 165 681 q 56 626 97 626 z "},"״":{"ha":479,"x_min":39,"x_max":438,"o":"m 63 626 q 57 628 63 626 q 46 638 51 629 q 40 667 40 647 q 49 701 40 693 q 60 710 57 710 q 79 726 61 711 q 100 775 97 740 q 76 783 86 778 q 57 796 65 788 q 42 828 44 808 q 39 868 39 849 q 44 911 40 890 q 67 946 47 932 q 133 960 88 960 q 208 938 186 960 q 224 905 221 925 q 226 865 226 885 q 226 846 226 856 q 224 828 225 836 q 195 726 218 772 q 138 653 172 681 q 63 626 104 626 m 275 626 q 269 628 275 626 q 258 638 264 629 q 253 667 253 647 q 261 701 253 693 q 272 710 269 710 q 292 726 274 711 q 313 775 310 740 q 288 783 299 778 q 269 796 278 788 q 254 828 257 808 q 251 868 251 849 q 256 911 253 890 q 280 946 260 932 q 346 960 300 960 q 421 938 399 960 q 436 905 433 925 q 439 865 439 885 q 438 846 439 856 q 436 828 438 836 q 408 726 431 772 q 351 653 385 681 q 275 626 317 626 z "},"־":{"ha":419,"x_min":40,"x_max":379,"o":"m 126 624 q 83 628 103 624 q 52 651 64 633 q 40 708 40 669 q 51 766 40 749 q 82 788 63 783 q 124 793 101 793 l 296 793 q 338 788 319 793 q 368 766 357 783 q 379 708 379 749 q 368 651 379 669 q 338 628 357 633 q 294 624 318 624 l 126 624 z "}," ":{"ha":344,"x_min":0,"x_max":0,"o":""},"€":{"ha":807,"x_min":42,"x_max":758,"o":"m 525 -12 q 410 3 463 -12 q 314 50 357 19 q 239 124 271 81 q 188 224 207 168 q 163 344 168 279 q 158 444 160 394 q 158 544 157 494 q 160 640 158 593 q 190 770 167 713 q 248 869 213 828 q 327 939 283 911 q 422 981 371 967 q 525 994 472 994 l 682 994 q 720 990 703 994 q 748 967 738 985 q 758 911 758 950 q 747 856 758 874 q 717 833 736 838 q 675 829 699 829 l 525 829 q 467 823 494 829 q 415 803 439 817 q 372 768 390 789 q 342 719 354 747 q 328 653 331 690 q 322 551 324 603 q 322 449 321 500 q 328 350 324 399 q 343 278 332 310 q 371 222 354 246 q 410 183 388 199 q 462 159 433 167 q 525 151 490 151 l 676 151 q 719 147 700 151 q 748 124 738 142 q 758 68 758 107 q 749 15 758 32 q 722 -8 739 -3 q 685 -12 704 -12 l 525 -12 m 103 326 q 72 330 86 326 q 50 347 58 333 q 42 389 42 360 q 50 429 42 417 q 72 445 58 442 q 101 449 86 449 l 628 449 q 658 445 644 449 q 679 428 671 442 q 688 388 688 415 q 680 347 688 360 q 658 330 672 333 q 626 326 644 326 l 103 326 m 103 544 q 72 548 86 544 q 50 565 58 551 q 42 606 42 578 q 50 647 42 633 q 72 663 58 660 q 101 667 86 667 l 628 667 q 658 663 644 667 q 679 647 671 660 q 688 604 688 633 q 680 564 688 576 q 658 548 672 551 q 626 544 644 544 l 103 544 z "},"¢":{"ha":582,"x_min":25,"x_max":553,"o":"m 321 -108 q 278 -98 292 -108 q 260 -70 264 -87 q 257 -33 257 -53 l 257 72 q 133 126 185 85 q 53 228 81 167 q 25 365 25 290 q 53 501 25 440 q 133 603 81 563 q 257 656 185 643 l 257 772 q 260 811 257 794 q 278 838 264 828 q 321 847 292 847 q 365 837 351 847 q 381 810 378 826 q 385 771 385 793 l 385 656 q 440 642 415 651 q 485 619 465 632 q 515 592 504 606 q 542 563 532 578 q 547 529 551 549 q 535 507 543 518 q 517 486 526 496 q 458 464 488 454 q 417 490 438 476 q 376 511 397 503 q 325 519 354 519 q 244 499 278 519 q 192 442 210 478 q 175 364 175 407 q 192 285 175 321 q 243 229 210 250 q 322 208 276 208 q 373 215 350 208 q 417 233 396 222 q 457 256 438 244 q 487 256 472 260 q 519 236 501 253 q 538 217 531 228 q 550 193 546 206 q 545 160 553 178 q 515 128 538 143 q 476 99 497 111 q 432 79 454 86 q 385 69 410 72 l 385 -33 q 381 -72 385 -54 q 364 -99 378 -89 q 321 -108 350 -108 z "},"¤":{"ha":908,"x_min":42,"x_max":860,"o":"m 85 0 q 47 39 51 18 q 56 86 42 60 q 87 140 67 114 q 133 187 107 165 q 185 219 158 208 q 132 277 158 240 q 88 366 106 314 q 71 482 71 418 q 101 638 71 564 q 189 763 131 713 q 110 815 143 782 q 61 882 78 847 q 50 937 46 915 q 85 978 54 958 q 138 991 118 999 q 178 951 158 983 q 192 928 185 939 q 208 907 200 918 q 262 873 222 885 q 351 857 301 861 q 447 853 401 853 l 465 853 q 567 858 518 853 q 651 874 615 863 q 699 907 686 886 q 713 928 706 918 q 726 950 719 939 q 766 987 747 982 q 818 975 785 992 q 857 935 854 956 q 843 882 860 915 q 794 814 826 846 q 707 760 761 782 q 800 644 769 717 q 831 486 831 571 q 817 384 831 435 q 778 290 803 333 q 719 218 754 247 q 769 187 744 208 q 815 141 794 165 q 843 93 835 117 q 856 42 860 61 q 818 1 851 22 q 765 -12 785 -19 q 728 28 746 -6 q 713 53 719 42 q 697 76 706 64 q 656 103 688 93 q 574 119 625 114 q 457 125 524 125 l 428 125 q 340 122 378 125 q 277 112 303 118 q 235 97 251 106 q 208 76 218 88 q 188 47 194 60 q 176 24 182 35 q 138 -14 157 -10 q 85 0 119 -18 m 444 260 q 574 286 521 260 q 656 363 628 313 q 683 488 683 414 q 656 610 683 560 q 578 687 629 660 q 451 714 526 714 q 328 688 379 714 q 249 611 276 661 q 222 489 222 561 q 249 366 222 417 q 325 288 275 315 q 444 260 375 260 z "},"$":{"ha":638,"x_min":36,"x_max":581,"o":"m 581 293 q 565 206 581 244 q 522 137 550 167 q 455 88 494 107 q 367 61 415 69 l 367 -33 q 363 -72 367 -54 q 346 -99 360 -89 q 301 -108 332 -108 q 260 -98 274 -108 q 242 -70 246 -87 q 239 -33 239 -53 l 239 61 q 167 84 201 68 q 104 122 132 100 q 57 172 76 144 q 36 226 36 204 q 68 276 36 249 q 110 296 90 294 q 146 285 129 297 q 176 254 163 274 q 231 206 200 222 q 299 190 261 190 q 374 202 343 190 q 419 236 404 214 q 435 290 435 258 q 404 348 435 328 q 326 383 374 368 q 231 418 279 397 q 164 448 196 431 q 107 490 132 465 q 67 550 82 515 q 51 633 51 585 q 65 712 51 676 q 102 774 78 747 q 161 819 126 801 q 239 846 196 838 l 239 932 q 242 969 239 953 q 260 996 246 986 q 303 1006 274 1006 q 346 996 332 1006 q 363 969 360 986 q 367 932 367 953 l 367 847 q 448 821 413 840 q 510 775 483 801 q 540 732 538 750 q 518 682 542 714 q 488 652 504 661 q 454 647 471 643 q 418 665 438 651 q 387 690 404 679 q 348 708 369 701 q 297 715 326 715 q 256 709 275 715 q 224 692 238 703 q 203 665 211 681 q 196 632 196 650 q 219 581 196 600 q 279 549 242 561 q 360 525 317 538 q 438 497 399 513 q 509 456 476 482 q 561 392 542 431 q 581 293 581 353 z "},"ƒ":{"ha":671,"x_min":-4,"x_max":622,"o":"m 76 -290 q 35 -287 54 -290 q 6 -273 17 -285 q -4 -236 -4 -261 q -3 -221 -4 -228 q -1 -210 -3 -214 q 22 -152 1 -171 q 93 -133 42 -133 q 138 -124 118 -133 q 172 -99 158 -115 q 186 -62 185 -83 l 243 479 l 172 478 q 138 482 154 478 q 113 500 122 486 q 103 540 103 514 q 103 553 103 549 q 103 563 103 558 q 120 618 107 601 q 154 639 133 635 q 199 643 175 643 l 258 638 l 274 750 q 299 831 278 792 q 357 903 321 871 q 442 953 393 935 q 551 972 492 972 q 587 969 571 972 q 613 952 603 965 q 622 910 622 939 q 622 899 622 904 q 621 886 622 893 q 603 833 617 850 q 572 813 590 817 q 529 808 553 808 q 492 804 508 808 q 463 792 475 800 q 444 771 451 783 q 435 743 436 758 l 424 635 l 553 643 q 587 640 571 643 q 613 624 603 636 q 622 586 622 611 q 622 572 622 578 q 621 558 622 565 q 605 503 618 519 q 572 482 592 486 q 528 478 551 478 l 408 482 l 350 -57 q 315 -165 339 -121 q 257 -237 292 -210 q 177 -278 222 -265 q 76 -290 132 -290 z "},"₪":{"ha":1304,"x_min":92,"x_max":1214,"o":"m 786 -22 q 563 26 656 -22 q 421 167 469 75 q 372 386 372 258 l 372 436 q 377 478 372 458 q 399 509 382 497 q 456 521 417 521 q 510 509 493 521 q 533 478 528 497 q 538 435 538 458 l 538 393 q 551 288 538 335 q 594 210 565 242 q 672 161 624 178 q 789 144 721 144 q 931 178 874 144 q 1018 274 989 211 q 1047 428 1047 338 l 1047 733 q 1053 771 1047 754 q 1076 799 1058 788 q 1131 810 1093 810 q 1187 798 1169 810 q 1209 767 1204 786 q 1214 725 1214 747 l 1214 422 q 1188 253 1214 333 q 1108 112 1161 174 q 974 14 1054 50 q 786 -22 894 -22 m 176 -12 q 120 -1 138 -12 q 97 30 103 11 q 92 71 92 49 l 92 726 q 97 767 92 747 q 120 797 103 786 q 176 808 138 808 l 474 810 q 648 790 574 810 q 772 725 722 771 q 847 603 822 679 q 872 417 872 528 l 872 368 q 868 324 872 344 q 847 289 864 303 q 792 275 829 275 q 736 288 754 275 q 713 319 718 300 q 708 358 708 339 l 708 413 q 686 547 708 497 q 617 619 664 597 q 499 642 571 642 l 261 642 l 261 72 q 256 30 261 49 q 233 -1 250 11 q 176 -12 215 -12 z "},"£":{"ha":906,"x_min":26,"x_max":872,"o":"m 190 -14 q 132 8 153 -14 q 111 69 111 31 q 124 131 111 108 q 156 174 138 154 q 187 222 174 193 q 200 301 200 251 q 197 339 200 311 q 183 393 193 367 l 93 393 q 59 397 74 393 q 35 417 44 401 q 26 464 26 432 q 35 512 26 497 q 60 531 44 526 q 96 535 76 535 l 153 535 l 153 606 q 163 695 153 657 q 192 774 172 733 q 269 874 219 831 q 385 941 318 917 q 532 965 451 965 q 638 952 590 965 q 723 919 686 939 q 784 878 760 899 q 819 844 808 858 q 849 783 847 813 q 821 726 850 754 q 757 697 788 697 q 704 725 726 697 q 669 759 690 742 q 615 790 649 776 q 533 803 582 803 q 419 778 468 803 q 344 709 371 754 q 318 603 318 664 l 318 535 l 494 535 q 529 531 514 535 q 553 512 544 526 q 561 463 561 497 q 552 417 561 432 q 528 397 543 401 q 494 393 513 393 l 351 393 q 361 341 358 368 q 364 299 364 314 q 358 249 364 276 q 342 197 351 222 q 319 151 332 171 l 790 151 q 832 147 814 151 q 861 124 850 142 q 872 67 872 107 q 861 13 872 29 q 831 -9 850 -4 q 789 -14 813 -14 l 190 -14 z "},"¥":{"ha":908,"x_min":40,"x_max":878,"o":"m 831 947 q 874 894 869 919 q 854 836 878 869 l 544 368 l 544 69 q 540 27 544 46 q 517 -3 535 8 q 460 -15 500 -15 q 403 -3 421 -15 q 380 28 385 8 q 375 72 375 47 l 375 368 l 64 835 q 46 894 40 869 q 90 946 51 919 q 158 970 133 976 q 207 926 183 964 l 460 526 l 713 926 q 763 969 738 965 q 831 947 788 974 m 253 156 q 218 159 235 156 q 191 176 201 163 q 181 218 181 190 q 192 259 181 246 q 219 276 203 272 q 254 279 236 279 l 651 279 q 687 276 671 279 q 713 259 703 272 q 724 217 724 246 q 714 176 724 189 q 688 159 704 163 q 651 156 671 156 l 253 156 m 253 344 q 218 348 235 344 q 191 365 201 351 q 181 406 181 378 q 198 455 181 442 q 251 468 215 468 l 654 468 q 708 455 692 468 q 724 406 724 442 q 714 365 724 378 q 688 348 704 351 q 651 344 671 344 l 253 344 z "},"+":{"ha":724,"x_min":42,"x_max":683,"o":"m 363 35 q 310 45 326 35 q 289 73 293 56 q 285 111 285 90 l 285 600 q 289 638 285 621 q 310 665 293 656 q 364 675 328 675 q 416 665 400 675 q 436 637 432 654 q 440 597 440 619 l 440 113 q 436 73 440 90 q 416 45 432 56 q 363 35 400 35 m 115 276 q 78 281 96 276 q 51 301 61 285 q 42 354 42 318 q 52 408 42 392 q 81 429 63 425 q 119 433 99 433 l 607 433 q 645 429 628 433 q 673 408 663 425 q 683 354 683 392 q 673 301 683 318 q 646 281 663 285 q 608 276 629 276 l 115 276 z "},"−":{"ha":772,"x_min":42,"x_max":732,"o":"m 117 275 q 81 279 97 275 q 53 301 64 283 q 42 356 42 318 q 52 409 42 393 q 80 430 63 425 q 115 435 97 435 l 657 435 q 694 430 676 435 q 722 408 711 425 q 732 354 732 392 q 721 300 732 317 q 693 279 710 283 q 656 275 676 275 l 117 275 z "},"×":{"ha":644,"x_min":39,"x_max":607,"o":"m 433 349 l 571 211 q 599 174 592 192 q 600 138 607 156 q 572 100 593 121 q 534 72 551 79 q 499 72 517 65 q 461 99 482 79 l 322 239 l 185 100 q 147 72 164 79 q 112 72 129 65 q 74 100 94 79 q 46 138 53 121 q 46 173 39 156 q 74 210 53 190 l 211 349 l 71 489 q 45 526 51 508 q 46 560 39 543 q 74 599 53 578 q 112 625 94 618 q 147 625 129 632 q 185 597 165 618 l 322 460 l 461 599 q 499 626 482 619 q 534 625 517 632 q 572 597 551 618 q 600 559 593 576 q 600 525 607 542 q 572 488 593 508 l 433 349 z "},"÷":{"ha":646,"x_min":42,"x_max":606,"o":"m 114 289 q 79 293 96 289 q 52 313 63 297 q 42 363 42 328 q 52 413 42 397 q 80 432 63 428 q 115 436 97 436 l 532 436 q 568 432 551 436 q 595 412 585 428 q 606 361 606 396 q 595 313 606 328 q 568 293 585 297 q 531 289 551 289 l 114 289 m 321 32 q 253 51 272 32 q 235 117 235 69 q 253 185 235 167 q 321 204 272 204 q 388 185 369 204 q 407 118 407 167 q 388 51 407 69 q 321 32 368 32 m 321 519 q 253 538 272 519 q 235 603 235 557 q 253 672 235 653 q 321 692 272 692 q 388 672 369 692 q 407 604 407 653 q 388 538 407 557 q 321 519 368 519 z "},"=":{"ha":638,"x_min":42,"x_max":596,"o":"m 113 419 q 79 423 96 419 q 52 443 63 426 q 42 494 42 460 q 52 546 42 531 q 78 566 63 561 q 113 571 94 571 l 525 571 q 560 566 544 571 q 586 546 576 561 q 596 494 596 531 q 586 442 596 458 q 560 423 576 426 q 524 419 543 419 l 113 419 m 113 143 q 78 147 94 143 q 52 167 63 151 q 42 219 42 183 q 52 270 42 254 q 78 290 63 286 q 113 294 94 294 l 525 294 q 559 290 543 294 q 585 270 575 286 q 596 218 596 254 q 585 167 596 183 q 559 147 575 151 q 524 143 543 143 l 113 143 z "},">":{"ha":746,"x_min":29,"x_max":718,"o":"m 160 7 q 124 -11 142 -6 q 88 -9 106 -17 q 50 29 71 -1 q 30 80 31 60 q 41 113 29 100 q 72 138 53 126 l 496 404 l 72 671 q 42 697 54 683 q 31 731 29 711 q 50 781 32 750 q 89 820 71 813 q 124 822 107 828 q 160 803 142 815 l 681 471 q 706 450 693 464 q 718 406 718 436 q 707 365 718 382 q 682 339 696 347 l 160 7 z "},"<":{"ha":746,"x_min":28,"x_max":717,"o":"m 586 7 l 64 339 q 39 365 50 347 q 28 406 28 382 q 40 450 28 436 q 65 471 53 464 l 586 803 q 622 822 606 815 q 657 820 639 828 q 696 781 675 813 q 716 731 715 750 q 704 697 717 711 q 674 671 692 683 l 250 404 l 674 138 q 705 113 693 126 q 716 80 717 100 q 696 29 715 60 q 658 -9 676 -1 q 623 -11 640 -17 q 586 7 606 -6 z "},"±":{"ha":679,"x_min":35,"x_max":644,"o":"m 107 343 q 72 347 89 343 q 45 365 56 350 q 35 414 35 381 q 45 463 35 447 q 72 482 56 478 q 106 486 89 486 l 574 486 q 609 482 593 486 q 635 463 625 478 q 644 413 644 447 q 635 365 644 381 q 608 347 625 350 q 572 343 592 343 l 107 343 m 340 188 q 288 198 304 188 q 266 226 271 208 q 261 264 261 243 l 261 572 q 266 610 261 593 q 288 638 271 628 q 340 647 304 647 q 393 637 376 647 q 414 609 410 626 q 418 569 418 592 l 418 265 q 414 226 418 243 q 393 198 410 208 q 340 188 376 188 m 107 -12 q 72 -9 89 -12 q 45 9 56 -6 q 35 57 35 24 q 45 106 35 92 q 72 125 56 121 q 106 129 89 129 l 574 129 q 609 125 593 129 q 635 106 625 121 q 644 57 644 90 q 635 9 644 24 q 608 -9 625 -6 q 572 -12 592 -12 l 107 -12 z "},"~":{"ha":769,"x_min":54,"x_max":713,"o":"m 279 490 q 341 481 314 490 q 390 458 368 471 q 429 431 411 444 q 464 407 447 417 q 497 397 481 397 q 526 406 514 397 q 550 429 539 415 q 574 456 561 443 q 606 475 588 468 q 634 483 617 483 q 669 469 651 482 q 702 440 692 456 q 713 408 713 425 q 693 353 713 382 q 641 298 674 324 q 570 256 608 272 q 494 240 532 240 q 430 250 457 240 q 382 274 403 260 q 344 301 361 288 q 310 324 326 315 q 275 333 293 333 q 245 324 258 333 q 219 302 232 315 q 194 276 207 289 q 163 257 181 264 q 145 253 156 253 q 122 257 135 253 q 97 269 110 261 q 60 316 65 294 q 72 367 54 338 q 97 403 79 382 q 142 444 115 424 q 204 477 169 464 q 279 490 239 490 z "},"¬":{"ha":706,"x_min":39,"x_max":672,"o":"m 601 167 q 553 177 568 167 q 533 204 538 188 q 529 238 529 221 l 529 365 l 108 365 q 74 370 90 365 q 49 392 58 375 q 39 447 39 410 q 49 505 39 488 q 75 527 58 522 q 110 532 92 532 l 599 532 q 656 515 640 532 q 672 460 672 497 l 672 238 q 668 203 672 219 q 649 177 664 188 q 601 167 633 167 z "},"^":{"ha":699,"x_min":40,"x_max":658,"o":"m 350 717 q 377 710 365 717 q 400 692 389 703 l 629 461 q 651 435 643 449 q 654 403 658 421 q 626 363 650 386 q 585 335 603 339 q 554 339 568 331 q 528 360 540 347 l 350 539 l 172 360 q 146 339 160 347 q 115 335 132 331 q 72 363 97 339 q 44 403 49 386 q 49 435 40 421 q 69 461 57 449 l 300 692 q 322 710 310 703 q 350 717 335 717 z "},"µ":{"ha":806,"x_min":71,"x_max":708,"o":"m 153 -292 q 98 -280 115 -292 q 76 -249 81 -268 q 71 -210 71 -231 l 71 589 q 76 631 71 613 q 99 660 82 650 q 154 671 117 671 q 210 659 193 671 q 232 628 228 647 q 236 588 236 610 l 236 311 q 253 226 236 263 q 304 171 271 190 q 386 151 338 151 q 470 172 435 151 q 525 228 506 192 q 544 313 544 264 l 544 589 q 549 631 544 613 q 571 660 553 650 q 628 671 589 671 q 683 660 665 671 q 704 629 700 649 q 708 588 708 610 l 708 71 q 704 31 708 50 q 683 2 700 13 q 626 -8 665 -8 q 586 -3 601 -8 q 563 10 571 1 q 551 28 554 18 q 546 50 547 39 l 557 89 q 528 56 544 72 q 490 24 513 39 q 440 -1 468 8 q 378 -10 413 -10 q 299 3 335 -10 q 236 42 263 17 l 236 -211 q 231 -250 236 -232 q 208 -280 225 -268 q 153 -292 190 -292 z "},"%":{"ha":1124,"x_min":42,"x_max":1086,"o":"m 285 -53 q 261 -34 269 -44 q 253 -8 253 -24 q 265 26 254 7 l 764 967 q 785 996 775 986 q 810 1006 796 1006 q 840 996 824 1006 q 866 975 858 986 q 872 950 874 964 q 858 917 869 936 l 358 -26 q 338 -54 349 -46 q 315 -62 328 -62 q 285 -53 301 -61 m 283 446 q 108 516 174 446 q 42 701 42 586 q 107 889 42 818 q 282 960 172 960 q 458 890 393 960 q 522 703 522 821 q 458 515 522 583 q 283 446 394 446 m 282 574 q 369 608 338 574 q 400 706 400 643 q 369 799 400 767 q 282 832 339 832 q 194 799 225 832 q 163 704 163 765 q 194 608 163 642 q 282 574 225 574 m 847 -15 q 672 56 739 -15 q 606 242 606 126 q 672 428 606 358 q 847 499 738 499 q 1022 430 957 499 q 1086 243 1086 361 q 1022 53 1086 122 q 847 -15 958 -15 m 847 113 q 933 147 903 113 q 964 244 964 182 q 933 338 964 306 q 847 371 903 371 q 759 338 790 371 q 728 243 728 304 q 759 147 728 181 q 847 113 790 113 z "},"‰":{"ha":1653,"x_min":42,"x_max":1613,"o":"m 285 -53 q 261 -34 269 -44 q 253 -8 253 -24 q 265 26 254 7 l 764 967 q 785 996 775 986 q 810 1006 796 1006 q 840 996 824 1006 q 866 975 858 986 q 872 950 874 964 q 858 917 869 936 l 358 -26 q 338 -54 349 -46 q 315 -62 328 -62 q 285 -53 301 -61 m 283 446 q 108 516 174 446 q 42 701 42 586 q 107 889 42 818 q 282 960 172 960 q 458 890 393 960 q 522 703 522 821 q 458 515 522 583 q 283 446 394 446 m 282 574 q 369 608 338 574 q 400 706 400 643 q 369 799 400 767 q 282 832 339 832 q 194 799 225 832 q 163 704 163 765 q 194 608 163 642 q 282 574 225 574 m 849 -15 q 674 56 740 -15 q 607 242 607 126 q 673 428 607 358 q 849 499 739 499 q 1023 430 958 499 q 1088 243 1088 361 q 1024 53 1088 122 q 849 -15 960 -15 m 849 113 q 935 147 904 113 q 965 244 965 182 q 935 338 965 306 q 849 371 904 371 q 760 338 792 371 q 729 243 729 304 q 760 147 729 181 q 849 113 792 113 m 1374 -15 q 1199 56 1265 -15 q 1132 242 1132 126 q 1198 428 1132 358 q 1374 499 1264 499 q 1548 430 1483 499 q 1613 243 1613 361 q 1549 53 1613 122 q 1374 -15 1485 -15 m 1374 113 q 1460 148 1429 113 q 1490 244 1490 183 q 1460 339 1490 307 q 1372 371 1429 371 q 1285 338 1315 371 q 1254 243 1254 304 q 1285 147 1254 181 q 1374 113 1317 113 z "},"@":{"ha":1158,"x_min":40,"x_max":1118,"o":"m 528 -190 q 269 -126 379 -190 q 100 54 160 -62 q 40 328 40 171 q 79 538 40 443 q 188 701 118 632 q 356 808 258 771 q 568 846 453 846 q 799 810 697 846 q 973 706 901 774 q 1081 542 1044 638 q 1118 326 1118 446 q 1092 158 1118 232 q 1022 33 1067 85 q 920 -44 976 -18 q 804 -71 864 -71 q 671 -23 721 -71 q 624 104 621 25 q 626 131 625 117 q 628 157 628 144 q 599 131 617 143 q 556 113 581 119 q 499 106 532 106 q 424 122 460 106 q 361 167 389 138 q 318 235 333 196 q 304 321 303 275 q 304 338 304 331 q 306 350 304 346 q 333 448 310 403 q 390 526 356 493 q 465 578 424 560 q 550 596 506 596 q 615 585 588 596 q 663 556 643 574 q 690 521 682 539 l 679 546 q 699 586 682 575 q 753 597 717 597 q 798 585 782 597 q 811 546 814 572 l 754 110 q 767 73 754 86 q 811 60 779 60 q 872 76 840 60 q 929 125 903 92 q 972 211 956 158 q 989 339 989 264 q 963 494 989 425 q 885 613 936 564 q 756 689 833 663 q 579 715 679 715 q 367 668 458 715 q 224 536 275 621 q 174 338 174 451 q 215 125 174 214 q 337 -11 257 36 q 529 -58 417 -58 q 569 -64 556 -58 q 590 -83 583 -69 q 596 -125 596 -97 q 586 -167 596 -153 q 561 -186 576 -182 q 528 -190 546 -190 m 533 240 q 574 248 554 240 q 608 270 593 256 q 634 305 624 285 q 647 349 644 325 l 647 358 q 641 402 647 383 q 622 434 635 421 q 592 454 610 447 q 554 461 575 461 q 513 453 532 461 q 478 431 493 446 q 453 397 463 417 q 439 350 443 376 l 439 340 q 451 288 439 310 q 484 253 463 265 q 533 240 506 240 z "},"&":{"ha":982,"x_min":38,"x_max":926,"o":"m 351 -19 q 180 12 250 -19 q 74 103 110 43 q 38 250 38 164 q 56 342 38 296 q 113 433 75 388 q 204 521 150 478 q 171 600 185 561 q 149 676 157 639 q 142 749 142 714 q 174 878 142 825 q 269 960 207 932 q 418 989 331 989 q 546 963 492 989 q 629 887 600 936 q 658 771 658 838 q 639 697 658 733 q 585 625 619 661 q 507 553 551 589 q 411 478 463 517 q 478 390 443 432 q 549 315 513 349 q 619 254 585 281 q 678 326 661 292 q 703 393 696 360 q 728 430 707 417 q 793 443 750 443 q 842 433 826 443 q 862 410 857 424 q 865 382 867 396 q 834 281 863 332 q 756 179 806 231 q 783 172 771 175 q 810 166 794 168 q 850 164 826 164 q 908 146 890 164 q 926 86 926 128 q 910 17 926 35 q 849 -1 893 -1 q 770 5 810 -1 q 692 24 731 11 q 613 60 653 38 q 530 17 574 35 q 441 -10 486 0 q 351 -19 396 -19 m 354 133 q 420 141 389 133 q 472 163 451 149 q 428 206 451 182 q 379 258 404 229 q 331 316 354 286 q 285 378 307 346 q 249 342 264 358 q 226 310 235 325 q 213 281 217 296 q 208 251 208 267 q 226 188 208 214 q 276 147 243 161 q 354 133 308 133 m 338 610 q 408 662 376 638 q 460 706 439 686 q 492 743 481 726 q 503 774 503 760 q 478 833 503 811 q 414 856 454 856 q 351 844 378 856 q 311 810 325 832 q 297 758 297 789 q 301 717 297 739 q 315 669 306 694 q 338 610 324 643 z "},"¶":{"ha":721,"x_min":38,"x_max":651,"o":"m 363 -331 q 314 -318 329 -331 q 294 -283 299 -306 q 290 -232 290 -261 l 290 378 q 135 403 190 378 q 59 477 81 428 q 38 600 38 526 q 47 700 38 658 q 79 769 56 742 q 148 810 103 796 q 264 824 193 824 l 582 824 q 628 810 614 824 q 647 776 643 797 q 651 726 651 754 l 651 -235 q 647 -284 651 -262 q 628 -318 643 -306 q 581 -331 614 -331 q 532 -318 547 -331 q 513 -283 517 -306 q 510 -232 510 -261 l 510 704 l 433 704 l 433 -235 q 429 -284 433 -262 q 410 -318 425 -306 q 363 -331 396 -331 z "},"§":{"ha":751,"x_min":47,"x_max":706,"o":"m 376 -308 q 270 -294 319 -308 q 181 -256 221 -279 q 115 -206 142 -232 q 74 -158 88 -181 q 49 -96 47 -121 q 86 -39 50 -71 q 152 -21 126 -8 q 208 -65 178 -33 q 260 -115 232 -94 q 316 -144 288 -135 q 372 -154 344 -154 q 464 -141 426 -154 q 522 -100 501 -128 q 542 -31 542 -72 q 517 28 542 6 q 449 65 492 50 q 358 93 407 79 q 258 125 308 107 q 164 172 208 143 q 92 246 119 200 q 65 361 65 292 q 79 440 65 404 q 118 503 93 475 q 176 551 143 532 q 97 629 128 583 q 65 742 65 675 q 103 875 65 818 q 209 963 142 932 q 364 994 276 994 q 471 981 424 994 q 556 947 518 968 q 624 897 594 925 q 656 849 654 869 q 632 794 657 828 q 577 753 604 757 q 518 775 550 750 q 479 806 501 792 q 428 830 457 821 q 363 839 400 839 q 294 828 325 839 q 246 797 264 818 q 228 740 228 775 q 253 681 228 704 q 322 644 279 658 q 416 616 365 629 q 517 585 467 603 q 611 539 568 567 q 680 467 654 511 q 706 356 706 422 q 676 240 706 289 q 599 158 647 192 q 676 83 646 128 q 706 -26 706 39 q 678 -152 706 -99 q 603 -240 650 -206 q 497 -292 556 -275 q 376 -308 439 -308 m 428 232 q 488 253 463 239 q 527 292 513 267 q 542 351 542 317 q 528 393 542 375 q 490 426 515 411 q 429 452 465 440 q 349 475 393 464 q 260 438 293 465 q 228 360 228 410 q 238 320 228 338 q 268 290 249 303 q 313 268 288 278 q 367 249 338 258 q 428 232 397 240 z "},"©":{"ha":911,"x_min":49,"x_max":863,"o":"m 458 142 q 275 165 353 142 q 147 239 197 189 q 73 366 97 289 q 49 550 49 443 q 73 738 49 660 q 147 867 97 817 q 274 942 197 918 q 454 967 350 967 q 637 942 560 967 q 764 867 714 918 q 838 739 814 817 q 863 553 863 661 q 838 366 863 444 q 764 238 814 288 q 638 165 714 189 q 458 142 561 142 m 469 294 q 337 329 396 294 q 244 424 278 364 q 210 560 210 483 q 244 686 210 629 q 335 777 278 743 q 464 811 393 811 q 546 798 513 811 q 599 769 579 785 q 621 746 618 753 q 632 709 633 728 q 613 671 631 690 q 590 658 601 661 q 569 660 579 656 q 549 669 560 664 q 523 683 546 671 q 467 696 500 696 q 393 678 425 696 q 343 627 361 660 q 325 553 325 594 q 343 478 325 511 q 393 427 361 446 q 465 408 425 408 q 510 417 493 408 q 539 433 526 425 q 564 442 551 440 q 594 446 583 446 q 619 425 604 446 q 635 374 642 396 q 604 335 629 351 q 570 317 590 326 q 525 301 550 307 q 469 294 500 294 m 456 243 q 597 260 539 243 q 692 314 656 276 q 744 410 728 351 q 761 554 761 469 q 744 699 761 639 q 690 795 726 758 q 595 849 653 832 q 456 865 538 865 q 315 848 372 865 q 221 793 257 831 q 167 696 185 756 q 150 551 150 636 q 167 408 150 467 q 222 312 185 349 q 317 259 260 275 q 456 243 375 243 z "},"®":{"ha":911,"x_min":49,"x_max":863,"o":"m 454 967 q 637 942 560 967 q 764 867 714 918 q 838 739 814 817 q 863 553 863 661 q 838 366 863 444 q 764 238 814 288 q 638 165 714 189 q 458 142 561 142 q 275 165 353 142 q 147 239 197 189 q 73 366 97 289 q 49 550 49 443 q 73 738 49 660 q 147 867 97 817 q 274 942 197 918 q 454 967 350 967 m 456 243 q 594 260 536 243 q 690 315 653 278 q 744 412 726 353 q 761 554 761 471 q 744 699 761 639 q 690 795 726 758 q 595 849 653 832 q 456 865 538 865 q 315 848 372 865 q 221 793 257 831 q 167 696 185 756 q 150 551 150 636 q 167 408 150 467 q 222 312 185 349 q 317 259 260 275 q 456 243 375 243 m 593 500 l 661 363 q 660 337 668 350 q 638 315 653 324 q 606 303 624 307 q 576 308 589 300 q 557 332 564 315 l 489 461 l 394 461 l 394 357 q 391 332 394 344 q 376 311 388 319 q 339 303 364 303 q 303 311 315 303 q 288 333 292 319 q 285 357 285 346 l 285 765 q 291 793 285 782 q 311 809 297 804 q 346 814 325 814 l 478 814 q 573 792 533 814 q 635 731 613 771 q 657 635 657 690 q 642 562 657 600 q 593 500 626 524 m 394 703 l 394 571 l 490 571 q 532 589 517 571 q 549 636 547 607 q 531 686 549 669 q 478 703 513 703 l 394 703 z "},"™":{"ha":1119,"x_min":35,"x_max":1069,"o":"m 274 293 q 231 302 244 293 q 212 325 217 311 q 207 354 207 339 l 207 706 l 93 706 q 65 710 79 706 q 43 728 51 714 q 35 769 35 742 q 43 813 35 800 q 64 831 51 826 q 89 835 76 835 l 456 835 q 483 831 471 835 q 502 814 494 828 q 510 769 510 800 q 454 706 510 706 l 339 706 l 339 354 q 335 324 339 339 q 317 301 331 310 q 274 293 303 293 m 606 293 q 564 301 578 293 q 546 324 550 310 q 542 354 542 339 l 542 771 q 547 799 542 783 q 566 825 551 814 q 610 836 581 836 q 648 827 635 836 q 668 810 661 818 l 806 606 l 942 808 q 962 826 947 818 q 1000 835 976 835 q 1045 824 1031 835 q 1065 796 1060 813 q 1069 764 1069 779 l 1069 353 q 1065 324 1069 338 q 1047 301 1060 310 q 1006 293 1033 293 q 962 301 976 293 q 942 323 947 310 q 938 353 938 336 l 938 578 l 844 450 q 826 438 836 443 q 806 433 815 433 q 785 438 796 433 q 765 451 775 442 l 674 579 l 674 354 q 669 324 674 339 q 650 301 664 310 q 606 293 636 293 z "},"°":{"ha":482,"x_min":24,"x_max":458,"o":"m 242 542 q 133 572 182 542 q 53 651 83 601 q 24 760 24 701 q 53 871 24 821 q 132 951 83 921 q 240 981 181 981 q 350 951 300 981 q 429 873 400 922 q 458 761 458 824 q 429 651 458 701 q 351 572 400 601 q 242 542 301 542 m 240 665 q 308 694 281 665 q 336 763 336 722 q 308 831 336 804 q 240 857 281 857 q 173 829 200 857 q 146 761 146 801 q 174 693 146 721 q 240 665 201 665 z "},"|":{"ha":292,"x_min":78,"x_max":219,"o":"m 147 -297 q 101 -285 115 -297 q 82 -255 86 -274 q 78 -212 78 -236 l 78 901 q 82 942 78 924 q 101 972 86 961 q 149 983 117 983 q 197 972 182 983 q 215 941 211 960 q 219 899 219 922 l 219 -215 q 215 -256 219 -237 q 196 -286 211 -275 q 147 -297 181 -297 z "},"¦":{"ha":289,"x_min":78,"x_max":218,"o":"m 147 406 q 101 417 115 406 q 82 445 86 429 q 78 475 78 461 l 78 901 q 82 943 78 925 q 101 972 86 961 q 149 983 117 983 q 195 972 181 983 q 214 942 210 961 q 218 900 218 924 l 218 474 q 214 444 218 460 q 195 417 210 428 q 147 406 181 406 m 147 -292 q 101 -280 115 -292 q 82 -249 86 -268 q 78 -208 78 -231 l 78 218 q 82 248 78 232 q 101 275 86 264 q 149 286 117 286 q 196 275 182 286 q 214 248 210 264 q 218 217 218 232 l 218 -210 q 214 -251 218 -232 q 195 -281 210 -269 q 147 -292 181 -292 z "},"†":{"ha":676,"x_min":43,"x_max":642,"o":"m 336 -269 q 281 -258 299 -269 q 259 -228 264 -247 q 254 -186 254 -210 l 254 886 q 259 927 254 908 q 281 956 264 946 q 338 967 299 967 q 394 955 376 967 q 415 924 411 943 q 419 882 419 906 l 419 -187 q 415 -228 419 -210 q 392 -258 410 -247 q 336 -269 375 -269 m 119 507 q 83 511 100 507 q 54 532 65 515 q 43 585 43 549 q 54 639 43 622 q 83 660 65 656 q 121 664 101 664 l 338 656 l 565 664 q 603 660 586 664 q 631 639 621 656 q 642 585 642 622 q 631 532 642 549 q 603 511 621 515 q 564 507 586 507 l 338 514 l 119 507 z "},"‡":{"ha":676,"x_min":43,"x_max":642,"o":"m 336 -269 q 281 -258 299 -269 q 259 -228 264 -247 q 254 -186 254 -210 l 254 886 q 259 927 254 908 q 281 956 264 946 q 338 967 299 967 q 394 955 376 967 q 415 924 411 943 q 419 882 419 906 l 419 -187 q 415 -228 419 -210 q 392 -258 410 -247 q 336 -269 375 -269 m 119 97 q 83 101 100 97 q 54 123 65 106 q 43 176 43 140 q 54 229 43 213 q 83 251 65 246 q 121 254 101 256 l 338 247 l 565 254 q 603 251 586 256 q 631 229 621 246 q 642 175 642 213 q 631 122 642 139 q 603 101 621 106 q 564 97 586 97 l 338 104 l 119 97 m 119 507 q 83 511 100 507 q 54 532 65 515 q 43 585 43 549 q 54 639 43 622 q 83 660 65 656 q 121 664 101 664 l 338 656 l 565 664 q 603 660 586 664 q 631 639 621 656 q 642 585 642 622 q 631 532 642 549 q 603 511 621 515 q 564 507 586 507 l 338 514 l 119 507 z "},"¨":{"ha":553,"x_min":63,"x_max":490,"o":"m 401 772 q 340 785 358 772 q 318 819 322 799 q 314 861 314 840 q 318 903 314 883 q 340 936 322 924 q 403 949 358 949 q 465 935 447 949 q 487 902 483 922 q 490 860 490 882 q 487 819 490 839 q 465 785 483 799 q 401 772 447 772 m 151 772 q 89 785 107 772 q 67 819 71 799 q 63 861 63 840 q 67 903 64 883 q 89 936 71 924 q 151 949 107 949 q 214 935 196 949 q 235 902 232 922 q 239 860 239 882 q 235 819 239 839 q 214 785 232 799 q 151 772 196 772 z "},"˙":{"ha":297,"x_min":63,"x_max":235,"o":"m 149 911 q 88 924 106 911 q 67 958 71 938 q 63 999 63 978 q 67 1039 63 1019 q 88 1072 71 1058 q 150 1085 106 1085 q 210 1072 193 1085 q 231 1038 228 1058 q 235 997 235 1018 q 231 957 235 978 q 209 924 226 936 q 149 911 192 911 z "},"`":{"ha":517,"x_min":63,"x_max":418,"o":"m 325 747 l 113 818 q 70 850 78 831 q 74 907 63 869 q 103 957 86 947 q 156 957 121 967 l 368 888 q 410 856 403 875 q 406 797 418 836 q 376 748 393 757 q 325 747 360 739 z "},"´":{"ha":597,"x_min":118,"x_max":475,"o":"m 192 744 q 155 753 169 740 q 131 797 140 765 q 126 856 118 836 q 168 888 133 876 l 401 961 q 438 952 424 965 q 461 907 453 939 q 466 849 475 869 q 424 818 457 829 l 192 744 z "},"ˆ":{"ha":639,"x_min":88,"x_max":556,"o":"m 322 960 q 337 958 331 960 q 347 954 343 957 l 506 889 q 548 853 540 876 q 539 797 556 829 q 506 755 524 768 q 471 750 489 742 l 322 818 l 174 751 q 137 757 154 743 q 104 799 119 771 q 95 853 88 831 q 136 889 103 876 l 296 954 q 307 958 300 957 q 322 960 314 960 z "},"ˇ":{"ha":636,"x_min":86,"x_max":554,"o":"m 319 890 l 439 950 q 469 960 453 957 q 503 953 486 963 q 538 911 521 944 q 546 855 554 878 q 504 819 538 832 l 346 754 q 334 751 340 753 q 319 749 328 749 q 305 751 311 749 q 294 754 299 753 l 136 819 q 95 855 104 832 q 103 910 86 878 q 135 952 119 942 q 166 960 151 963 q 193 953 181 958 l 319 890 z "},"˚":{"ha":450,"x_min":64,"x_max":386,"o":"m 225 726 q 144 749 181 726 q 86 808 108 771 q 64 888 64 844 q 86 969 64 932 q 144 1028 108 1006 q 224 1050 179 1050 q 306 1028 269 1050 q 364 971 342 1007 q 386 889 386 935 q 365 806 386 843 q 306 748 343 769 q 225 726 269 726 m 225 815 q 276 837 256 815 q 297 890 297 858 q 277 941 297 921 q 224 961 257 961 q 173 940 194 961 q 151 889 151 919 q 173 836 151 857 q 225 815 194 815 z "},"˜":{"ha":638,"x_min":75,"x_max":546,"o":"m 240 960 q 297 943 275 960 q 337 910 319 926 q 371 894 354 894 q 398 906 386 894 q 422 929 410 917 q 449 947 433 942 q 473 953 458 954 q 501 943 488 953 q 538 907 529 925 q 533 865 546 889 q 501 814 525 839 q 447 774 478 789 q 382 760 415 760 q 328 776 351 760 q 287 808 306 792 q 249 825 268 825 q 204 813 222 825 q 178 786 186 800 q 154 767 168 772 q 114 781 140 763 q 81 821 86 801 q 92 865 75 840 q 131 912 106 890 q 185 947 156 933 q 240 960 214 960 z "},"¸":{"ha":399,"x_min":76,"x_max":322,"o":"m 179 -253 q 113 -237 144 -253 q 78 -199 81 -221 q 89 -167 76 -182 q 111 -146 103 -151 q 128 -140 119 -140 q 152 -149 139 -140 q 181 -158 165 -158 q 213 -147 197 -158 q 228 -112 228 -135 q 213 -78 228 -90 q 181 -65 197 -65 q 149 -76 161 -65 q 125 -86 136 -86 q 105 -78 114 -86 q 89 -57 96 -69 q 80 -40 83 -47 q 78 -26 76 -32 q 95 1 79 -11 q 135 21 111 14 q 181 28 158 28 q 247 11 214 28 q 301 -37 279 -6 q 322 -111 322 -68 q 303 -183 322 -151 q 251 -234 283 -215 q 179 -253 218 -253 z "}}}
